<svg version="1.1" id="Layer_1" xmlns="http://www.w3.org/2000/svg" xmlns:xlink="http://www.w3.org/1999/xlink" x="0px" y="0px"
	 width="100%" viewBox="0 0 1000 424" enable-background="new 0 0 1000 424" xml:space="preserve">
<path fill="#242021" opacity="1.000000" stroke="none" 
	d="
M749.000000,0.999987 
	C832.960388,1.000000 916.920837,1.000000 1000.940613,1.000000 
	C1000.940613,142.227097 1000.940613,283.454224 1000.940613,425.000000 
	C918.312134,425.000000 835.623901,425.000000 752.514404,424.649078 
	C752.787170,422.986115 753.291382,421.521851 754.203308,420.384552 
	C772.190369,397.953583 787.084412,373.679413 798.877197,347.416290 
	C817.543945,305.844543 826.033752,262.128387 826.873352,216.817841 
	C827.072388,206.074356 825.766785,195.296158 825.017700,184.543381 
	C823.546936,163.432388 819.404785,142.851700 813.429810,122.536598 
	C801.638367,82.445534 782.742249,46.134380 756.965698,13.304813 
	C753.960815,9.477705 751.638672,5.114585 749.000000,0.999987 
z"/>
<path fill="#312F30" opacity="1.000000" stroke="none" 
	d="
M513.000000,425.000000 
	C504.645782,425.000000 496.291534,425.000000 487.354980,424.622681 
	C485.765350,423.832520 484.793427,423.242523 483.745514,423.033417 
	C468.018005,419.894531 451.920410,418.010742 436.624847,413.439331 
	C409.775696,405.414917 385.931793,391.383514 364.512115,373.163635 
	C348.415894,359.471893 335.027466,343.553711 323.929504,325.706268 
	C318.500549,316.975616 313.887787,307.737427 309.063751,298.395325 
	C309.703735,293.520630 310.234070,288.983398 310.591034,284.432526 
	C310.626038,283.986053 309.499176,282.983429 309.081177,283.068848 
	C308.342743,283.219666 307.389221,283.887848 307.152130,284.560303 
	C306.781525,285.611298 306.932922,286.846375 306.527100,287.914734 
	C305.578735,287.074585 304.714020,286.417847 304.391296,285.557739 
	C297.520111,267.246185 293.240417,248.277161 292.134735,228.808350 
	C290.770905,204.795502 293.137909,181.077454 299.966980,157.847122 
	C309.570984,125.177528 325.825073,96.275055 349.107361,71.557190 
	C369.069458,50.364262 392.902924,34.553146 419.715668,23.034489 
	C445.274780,12.054412 471.976807,6.539086 499.585388,6.186749 
	C519.532776,5.932184 539.193298,9.159335 558.453003,14.838396 
	C590.963867,24.424791 619.465271,40.918922 644.256714,63.843323 
	C658.251160,76.783798 670.091980,91.664574 679.343689,108.282761 
	C685.693298,119.688042 690.504761,131.949646 695.590149,143.908081 
	C694.555847,145.555496 693.398621,147.121597 693.393677,148.691315 
	C693.289368,182.073166 693.314575,215.455399 693.314575,248.837570 
	C693.314575,250.421707 693.314575,252.005844 693.314575,254.054657 
	C697.387939,254.054657 700.694580,254.054657 704.000671,254.489151 
	C703.682861,257.515259 703.596313,260.160858 703.004333,262.688110 
	C701.360046,269.707642 699.505676,276.677979 697.304871,283.527039 
	C693.659485,283.232758 690.443542,283.079193 686.984192,282.914032 
	C686.984192,288.060974 686.813171,292.527191 687.120056,296.960327 
	C687.186096,297.914124 688.977966,298.748474 689.947571,300.020081 
	C683.304077,316.317566 674.253174,330.727539 663.544189,344.217346 
	C645.195312,367.330841 622.992065,385.755402 596.941528,399.476196 
	C572.111572,412.554138 545.739563,420.457275 517.594604,422.135559 
	C516.011780,422.229950 514.529236,424.006470 513.000000,425.000000 
M377.067810,143.975586 
	C364.142090,143.975586 351.216370,143.975586 338.225006,143.975586 
	C338.225006,180.911377 338.225006,217.371445 338.225006,254.167831 
	C341.707794,254.167831 344.852051,254.167831 348.003571,254.952103 
	C351.350555,264.339355 354.697540,273.726624 358.001770,284.034729 
	C358.000610,288.362518 358.138794,292.696259 357.954010,297.016205 
	C357.807892,300.431702 359.400543,300.459473 361.865417,299.570618 
	C361.970764,297.968201 362.068176,296.485931 362.832794,295.118103 
	C364.553070,297.074371 366.537048,298.857849 367.950500,301.015137 
	C376.654938,314.300507 386.806885,326.349854 399.120789,336.372894 
	C415.924896,350.050781 434.631104,360.201752 455.538483,366.413330 
	C479.741547,373.604065 504.229370,375.067413 528.898499,370.426239 
	C565.781006,363.487213 596.769165,345.798553 621.171753,317.150330 
	C625.729858,311.799225 629.098389,305.434875 633.793945,299.247528 
	C634.012573,298.481873 634.231201,297.716217 634.931824,296.544189 
	C636.138306,294.995239 637.303162,293.411438 638.562439,291.906677 
	C639.961792,290.234497 641.447205,288.634369 643.057129,287.916351 
	C643.057129,291.667572 643.057129,295.418793 643.057129,299.621399 
	C646.655151,299.621399 649.613708,299.744843 652.549927,299.542694 
	C653.381348,299.485474 654.147278,298.477631 654.943237,297.905792 
	C654.190186,297.479034 653.467102,296.766296 652.677979,296.683655 
	C650.907043,296.498108 649.103210,296.625549 646.809998,296.625549 
	C646.809998,292.889404 646.717773,289.603821 646.842957,286.326508 
	C646.924255,284.198975 646.571045,282.697083 644.024963,282.134766 
	C644.375793,281.033936 644.645264,279.899078 645.089600,278.837372 
	C651.736145,262.958710 656.728760,246.558853 657.862732,229.360977 
	C659.590332,203.161346 656.390869,177.570358 645.872559,153.231155 
	C645.337891,151.994110 644.084961,151.067551 643.021301,149.164276 
	C642.348816,147.387512 641.676270,145.610748 640.888306,143.145416 
	C627.574829,116.995613 608.493774,96.165222 583.652771,80.102303 
	C584.730652,76.957191 585.650818,73.746361 586.927307,70.684059 
	C588.429993,67.079018 587.320679,64.715446 584.165894,62.734020 
	C577.537354,58.570763 570.428406,56.187267 562.556030,55.924793 
	C559.291748,55.815960 557.354675,57.008755 555.844238,59.893757 
	C552.298218,66.666672 548.469910,73.291794 544.038696,79.850914 
	C527.822693,74.839554 511.308319,71.071915 494.283539,73.154472 
	C481.023529,74.776489 467.495209,76.442764 454.867584,80.513535 
	C431.275818,88.118782 410.722076,101.381752 394.427673,120.307922 
	C388.218628,127.519760 383.430511,135.954926 377.067810,143.975586 
M677.943237,287.719208 
	C675.146545,282.937714 670.556946,281.319000 666.367798,283.636627 
	C662.651489,285.692657 661.277710,291.791962 663.582336,296.003510 
	C665.572510,299.640381 670.514526,301.029602 674.450256,298.839294 
	C678.632019,296.512085 678.951416,292.646698 677.943237,287.719208 
M323.405212,286.957764 
	C322.829315,285.594269 322.253418,284.230743 321.677521,282.867249 
	C321.246979,283.091705 320.816406,283.316132 320.385864,283.540588 
	C320.385864,288.747437 320.385864,293.954254 320.385864,298.708496 
	C324.421631,298.708496 328.093048,298.708496 331.764465,298.708496 
	C331.773773,298.181244 331.783081,297.653992 331.792389,297.126740 
	C329.183197,296.890808 326.574005,296.654877 323.404968,296.368317 
	C323.404968,293.424347 323.404968,290.648376 323.405212,286.957764 
M340.764771,282.990082 
	C339.501343,283.149139 338.237915,283.308228 336.974487,283.467285 
	C336.944336,284.006012 336.914215,284.544739 336.884094,285.083496 
	C338.544464,285.514313 340.204803,285.945160 342.205200,286.464203 
	C342.205200,290.820526 342.205200,295.074463 342.205200,299.328369 
	C342.796875,299.426636 343.388580,299.524902 343.980255,299.623169 
	C346.896820,295.805328 344.275787,290.735016 345.500214,286.712738 
	C347.197479,285.953064 348.821320,285.226288 350.445160,284.499481 
	C350.303284,283.996246 350.161438,283.493042 350.019562,282.989807 
	C347.242615,282.989807 344.465637,282.989807 340.764771,282.990082 
z"/>
<path fill="#231F20" opacity="1.000000" stroke="none" 
	d="
M1.000000,269.000000 
	C1.000000,179.745346 1.000000,90.490677 1.000000,1.000000 
	C77.020729,1.000000 153.041702,1.000000 229.482300,1.346497 
	C228.847870,3.374549 227.923767,5.155866 226.720535,6.722858 
	C204.644058,35.473877 187.750565,67.071182 175.873917,101.241997 
	C162.080414,140.927948 154.939713,181.786270 157.088409,223.927902 
	C157.855209,238.967270 159.665359,253.953445 160.531616,268.996399 
	C107.042656,269.019287 54.021328,269.009644 1.000000,269.000000 
z"/>
<path fill="#2D2B2C" opacity="1.000000" stroke="none" 
	d="
M308.905609,298.728943 
	C313.887787,307.737427 318.500549,316.975616 323.929504,325.706268 
	C335.027466,343.553711 348.415894,359.471893 364.512115,373.163635 
	C385.931793,391.383514 409.775696,405.414917 436.624847,413.439331 
	C451.920410,418.010742 468.018005,419.894531 483.745514,423.033417 
	C484.793427,423.242523 485.765350,423.832520 486.886292,424.622681 
	C441.312439,425.000000 395.624878,425.000000 349.420563,424.656799 
	C347.876862,423.044189 347.058319,421.496704 345.791443,420.547546 
	C329.369263,408.243805 314.581268,394.303253 301.667572,378.289215 
	C283.874542,356.224365 269.692413,332.178162 259.944611,305.528992 
	C259.177155,303.430817 257.605194,301.626862 256.542236,299.277008 
	C256.826721,296.249817 256.976135,293.631836 257.132812,290.886475 
	C261.133820,293.195007 260.403381,299.904053 266.821472,299.268158 
	C266.821472,294.315216 266.903168,289.865875 266.747986,285.424805 
	C266.719208,284.601349 265.735596,283.811249 265.192657,283.005768 
	C264.636688,283.798248 263.697327,284.546967 263.600891,285.391937 
	C263.366760,287.442322 263.524780,289.537506 263.524780,291.614624 
	C261.129059,289.768036 260.069061,287.313416 258.316742,285.544708 
	C257.134460,284.351379 254.975616,284.125549 253.084045,283.098175 
	C250.942673,273.171082 248.970871,263.612762 247.450104,253.955566 
	C252.201248,253.550415 256.557495,253.583130 260.792297,252.882080 
	C285.700165,248.758759 293.192871,222.423294 282.714508,204.805283 
	C280.749969,201.502167 277.453125,198.991440 275.005585,196.366501 
	C277.384460,192.499603 280.323761,188.997879 281.887238,184.963013 
	C289.309265,165.808640 274.914825,144.881363 253.933777,144.054306 
	C247.627594,143.805725 241.308121,143.894531 235.061462,143.460068 
	C235.923080,140.383148 236.683258,137.664200 237.518295,134.968445 
	C244.634918,111.993401 254.165115,90.127968 267.071075,69.757751 
	C280.919373,47.900173 296.833649,27.832281 316.505432,10.862683 
	C319.946014,7.894720 322.848816,4.303414 326.000000,0.999998 
	C432.687561,1.000000 539.375122,1.000000 646.579102,1.343043 
	C648.762634,3.475183 650.184509,5.607977 652.135193,6.999544 
	C669.267761,19.221376 684.555298,33.501301 697.930481,49.642437 
	C720.418274,76.780838 737.693848,106.970818 747.009766,141.136963 
	C751.226807,156.602814 753.822998,172.521057 756.847473,188.292923 
	C757.452820,191.450058 756.666687,194.874039 756.263672,197.982819 
	C743.988464,181.651108 731.888306,165.572556 720.017578,149.326385 
	C717.269043,145.564774 714.520325,143.256973 709.456970,143.867477 
	C705.038391,144.400238 700.493103,143.882217 696.003784,143.828461 
	C690.504761,131.949646 685.693298,119.688042 679.343689,108.282761 
	C670.091980,91.664574 658.251160,76.783798 644.256714,63.843323 
	C619.465271,40.918922 590.963867,24.424791 558.453003,14.838396 
	C539.193298,9.159335 519.532776,5.932184 499.585388,6.186749 
	C471.976807,6.539086 445.274780,12.054412 419.715668,23.034489 
	C392.902924,34.553146 369.069458,50.364262 349.107361,71.557190 
	C325.825073,96.275055 309.570984,125.177528 299.966980,157.847122 
	C293.137909,181.077454 290.770905,204.795502 292.134735,228.808350 
	C293.240417,248.277161 297.520111,267.246185 304.391296,285.557739 
	C304.714020,286.417847 305.578735,287.074585 306.603271,288.359985 
	C307.022491,289.893372 307.332642,291.022278 306.972748,291.865082 
	C306.241669,293.577179 305.334686,296.346771 304.169189,296.525818 
	C300.833496,297.038300 300.925293,294.134674 300.932037,291.741943 
	C300.939941,288.941162 300.933899,286.140350 300.933899,283.339539 
	C300.420929,283.079132 299.907959,282.818726 299.394989,282.558319 
	C298.667786,283.610291 297.427124,284.610291 297.314362,285.724426 
	C297.030884,288.525177 297.409729,291.386658 297.240173,294.206787 
	C297.024567,297.792664 299.164734,299.397766 302.117310,299.682373 
	C304.328888,299.895630 306.639221,299.084167 308.905609,298.728943 
M279.157043,295.258057 
	C278.017273,294.768372 276.877502,294.278687 275.249268,293.579132 
	C276.128204,298.931091 279.329865,300.455719 283.026245,299.639526 
	C285.154205,299.169617 288.105286,296.932922 288.465302,295.063812 
	C289.284027,290.813232 285.208221,290.135468 282.147766,288.999451 
	C280.982391,288.566864 279.917206,287.864471 278.806366,287.285034 
	C279.029816,286.727539 279.253265,286.170074 279.476715,285.612579 
	C282.237610,286.337982 284.998505,287.063385 288.391327,287.954803 
	C286.477936,281.610687 282.182739,282.757599 278.662659,283.297913 
	C277.274200,283.511047 276.203491,285.794281 274.988068,287.134857 
	C277.147400,288.882812 279.235016,290.731934 281.496704,292.335510 
	C282.604767,293.121185 284.036316,293.450684 285.321442,293.986664 
	C285.283844,294.611511 285.246246,295.236389 285.208649,295.861237 
	C283.346283,295.861237 281.483917,295.861237 279.157043,295.258057 
z"/>
<path fill="#282526" opacity="1.000000" stroke="none" 
	d="
M325.531342,0.999998 
	C322.848816,4.303414 319.946014,7.894720 316.505432,10.862683 
	C296.833649,27.832281 280.919373,47.900173 267.071075,69.757751 
	C254.165115,90.127968 244.634918,111.993401 237.518295,134.968445 
	C236.683258,137.664200 235.923080,140.383148 234.597916,143.531326 
	C224.970963,143.971313 215.874298,143.971313 206.724091,143.971313 
	C206.724091,180.871445 206.724091,217.211792 206.724091,253.584457 
	C208.377075,253.766510 209.688004,253.910889 211.002228,254.471069 
	C212.669403,264.198364 214.333282,273.509857 215.593018,282.881897 
	C211.068710,282.639954 207.414948,284.002655 207.168854,288.349518 
	C206.974289,291.786285 207.559601,296.412720 209.729507,298.554657 
	C212.590607,301.378815 217.010437,300.495300 220.022400,297.268921 
	C225.998840,312.985992 230.968445,328.777527 238.040894,343.563263 
	C251.527161,371.757782 269.604523,396.953583 291.635315,419.242065 
	C293.149170,420.773590 293.896301,423.063019 295.000000,425.000000 
	C272.312439,425.000000 249.624878,425.000000 226.459290,424.632385 
	C224.556320,421.678406 223.409668,418.884949 221.663223,416.537750 
	C204.792984,393.864502 191.783081,369.034241 181.131531,342.985748 
	C176.126221,330.745178 170.874756,318.454437 169.698669,304.968872 
	C169.520218,302.922668 168.041840,300.989838 167.087097,298.541321 
	C167.004532,291.961487 166.772644,285.834045 167.065170,279.731750 
	C167.306992,274.687134 165.692078,271.051422 160.999268,268.963898 
	C159.665359,253.953445 157.855209,238.967270 157.088409,223.927902 
	C154.939713,181.786270 162.080414,140.927948 175.873917,101.241997 
	C187.750565,67.071182 204.644058,35.473877 226.720535,6.722858 
	C227.923767,5.155866 228.847870,3.374549 229.950958,1.346497 
	C261.687561,1.000000 293.375122,1.000000 325.531342,0.999998 
z"/>
<path fill="#2A2728" opacity="1.000000" stroke="none" 
	d="
M748.531372,0.999987 
	C751.638672,5.114585 753.960815,9.477705 756.965698,13.304813 
	C782.742249,46.134380 801.638367,82.445534 813.429810,122.536598 
	C819.404785,142.851700 823.546936,163.432388 825.017700,184.543381 
	C825.766785,195.296158 827.072388,206.074356 826.873352,216.817841 
	C826.033752,262.128387 817.543945,305.844543 798.877197,347.416290 
	C787.084412,373.679413 772.190369,397.953583 754.203308,420.384552 
	C753.291382,421.521851 752.787170,422.986115 752.046570,424.649078 
	C729.312439,425.000000 706.624878,425.000000 683.515930,424.658447 
	C684.324951,422.782745 685.464355,421.164062 686.800232,419.728088 
	C696.286621,409.530487 706.340393,399.808105 715.223267,389.112091 
	C737.404175,362.403625 753.745239,332.386414 764.437256,299.092773 
	C767.165710,299.374847 768.110413,298.567017 767.998291,296.085083 
	C767.804077,291.783936 767.939697,287.467834 768.092285,282.812195 
	C770.165222,272.995972 772.082825,263.525635 774.457520,253.958710 
	C778.998169,253.862122 783.081665,253.862122 787.206726,253.862122 
	C787.206726,216.838150 787.206726,180.534760 787.206726,143.828278 
	C780.266296,143.828278 773.633850,143.828278 767.000610,143.423889 
	C765.276489,136.982681 763.846741,130.843491 761.783325,124.925240 
	C745.760925,78.970947 719.827515,39.636589 683.120667,7.507232 
	C681.079224,5.720369 679.691833,3.186296 678.000000,1.000006 
	C701.354248,1.000000 724.708435,1.000000 748.531372,0.999987 
M784.365479,282.992096 
	C781.630676,282.992096 778.895874,282.992096 776.161011,282.992096 
	C776.036743,283.541748 775.912476,284.091431 775.788208,284.641083 
	C777.412292,285.265991 779.036438,285.890900 780.994507,286.644287 
	C780.994507,289.834351 780.892395,293.303192 781.073669,296.757141 
	C781.113770,297.521088 782.155640,298.232483 782.736206,298.968079 
	C783.158569,298.239471 783.917664,297.523499 783.945618,296.780060 
	C784.075684,293.324951 784.003235,289.862244 784.003235,287.007629 
	C785.976868,285.905426 787.470154,285.071503 788.963440,284.237549 
	C787.739319,283.822571 786.515137,283.407593 784.365479,282.992096 
z"/>
<path fill="#231F20" opacity="1.000000" stroke="none" 
	d="
M167.164734,299.004547 
	C168.041840,300.989838 169.520218,302.922668 169.698669,304.968872 
	C170.874756,318.454437 176.126221,330.745178 181.131531,342.985748 
	C191.783081,369.034241 204.792984,393.864502 221.663223,416.537750 
	C223.409668,418.884949 224.556320,421.678406 225.990631,424.632385 
	C151.098648,425.000000 76.197289,425.000000 1.000000,425.000000 
	C1.000000,389.312988 1.000000,353.625153 1.468649,317.465698 
	C26.385220,316.993896 50.833138,316.993195 75.281059,316.993683 
	C102.389992,316.994232 129.498917,317.001953 156.607849,316.993073 
	C164.400986,316.990509 166.966873,314.362091 167.010757,306.477112 
	C167.024628,303.986053 167.111359,301.495392 167.164734,299.004547 
z"/>
<path fill="#2E2B2C" opacity="1.000000" stroke="none" 
	d="
M697.734314,283.667755 
	C699.505676,276.677979 701.360046,269.707642 703.004333,262.688110 
	C703.596313,260.160858 703.682861,257.515259 704.456787,254.394379 
	C709.152832,253.865112 713.392273,253.865112 718.002197,253.865112 
	C718.002197,231.445374 718.002197,209.915421 718.002197,186.865921 
	C732.277405,206.356094 745.686157,224.663361 758.732910,243.052582 
	C757.281067,245.616470 755.737854,248.000839 755.179199,250.597076 
	C752.604614,262.561249 750.367432,274.597839 747.830139,286.570465 
	C747.493347,288.159729 746.130798,289.531586 745.119385,290.607117 
	C743.981750,289.889984 742.967529,289.571045 741.954285,289.249298 
	C740.298035,288.723450 738.642334,288.195709 736.986450,287.668762 
	C738.584656,287.097961 740.173096,286.497589 741.783997,285.965302 
	C743.177917,285.504852 744.597290,285.121704 746.005432,284.704376 
	C745.835388,284.193329 745.665283,283.682312 745.495239,283.171265 
	C741.591431,283.171265 737.687622,283.171265 733.515503,283.171265 
	C733.515503,288.578888 733.515503,293.790405 733.515503,299.321686 
	C735.166870,299.431030 736.611816,299.531525 738.057434,299.621246 
	C739.703979,299.723450 741.351013,299.816040 742.988403,300.300079 
	C735.357666,316.906891 728.857117,333.779877 719.866943,349.201477 
	C704.176514,376.116760 683.639282,399.151825 658.649353,418.049683 
	C656.336792,419.798492 654.863159,422.656860 653.000000,425.000000 
	C606.645752,425.000000 560.291565,425.000000 513.468628,425.000000 
	C514.529236,424.006470 516.011780,422.229950 517.594604,422.135559 
	C545.739563,420.457275 572.111572,412.554138 596.941528,399.476196 
	C622.992065,385.755402 645.195312,367.330841 663.544189,344.217346 
	C674.253174,330.727539 683.304077,316.317566 690.061035,299.659027 
	C690.386353,297.165344 690.570984,295.414948 690.747620,293.740479 
	C700.195312,292.327179 701.464661,290.425171 697.734314,283.667755 
M716.562073,291.114227 
	C715.731384,289.742981 714.290771,288.416534 714.186157,286.991974 
	C713.890137,282.961426 711.866699,282.343384 708.565247,283.298462 
	C707.266541,293.065155 707.807861,297.583344 710.651245,299.045227 
	C710.927002,296.996826 711.191284,295.033539 711.455627,293.070282 
	C712.679993,293.956512 712.668396,295.068909 713.185242,295.815582 
	C714.014221,297.013336 715.192993,297.968903 716.223938,299.026855 
	C717.077698,298.041565 718.187134,297.176575 718.721680,296.041046 
	C719.419006,294.560120 719.660706,292.864746 720.098389,291.261658 
	C721.221008,298.327301 721.221008,298.327301 723.837280,298.548096 
	C723.837280,293.445557 723.837280,288.353210 723.837280,283.313416 
	C716.894104,281.461609 717.901733,286.788696 716.562073,291.114227 
z"/>
<path fill="#FEFEFE" opacity="1.000000" stroke="none" 
	d="
M167.087097,298.541321 
	C167.111359,301.495392 167.024628,303.986053 167.010757,306.477112 
	C166.966873,314.362091 164.400986,316.990509 156.607849,316.993073 
	C129.498917,317.001953 102.389992,316.994232 75.281059,316.993683 
	C50.833138,316.993195 26.385220,316.993896 1.468649,316.997040 
	C1.000000,301.312439 1.000000,285.624878 1.000000,269.468658 
	C54.021328,269.009644 107.042656,269.019287 160.531616,268.996399 
	C165.692078,271.051422 167.306992,274.687134 167.065170,279.731750 
	C166.772644,285.834045 167.004532,291.961487 167.087097,298.541321 
M59.001453,286.998718 
	C59.001453,286.998718 58.978626,286.952118 58.254570,286.711914 
	C57.820114,287.467987 57.385658,288.224060 56.998989,289.001160 
	C56.998989,289.001160 56.972187,288.956726 56.183392,288.929321 
	C54.668697,291.808594 53.407635,294.663055 56.999668,296.999329 
	C56.999668,296.999329 56.951233,297.017456 56.773636,297.751862 
	C57.177345,297.851288 57.581055,297.950714 57.995049,297.997650 
	C57.995049,297.997650 57.956100,298.035828 57.604893,298.708588 
	C61.755821,301.830963 65.855453,301.566772 68.004944,297.997681 
	C68.004944,297.997681 68.015251,298.050140 68.723709,298.317719 
	C68.832062,297.884308 68.940414,297.450867 69.000336,296.999329 
	C69.000336,296.999329 69.023430,297.045502 69.812332,297.068237 
	C71.340981,294.191254 72.581177,291.342194 69.000999,289.001160 
	C69.000999,289.001160 69.048798,288.980133 69.303322,288.260040 
	C68.542664,287.824066 67.782013,287.388092 67.002670,287.001770 
	C67.002670,287.001770 67.045303,286.968872 67.264687,286.353210 
	C66.216408,286.241241 65.168129,286.129242 63.407410,285.996063 
	C62.697495,285.976685 61.987579,285.957306 60.565365,285.502930 
	C60.030624,285.991089 59.495884,286.479248 59.001453,286.998718 
M99.404068,298.748077 
	C100.292397,298.709869 101.180725,298.671661 102.069054,298.633453 
	C101.231316,298.079620 100.393585,297.525818 99.158295,296.395325 
	C99.323433,295.520874 99.488571,294.646454 100.338814,293.386261 
	C102.523865,293.133209 105.496696,291.497284 104.537964,296.380280 
	C104.520760,296.961029 104.503555,297.541809 104.486336,298.122559 
	C104.991257,297.451691 105.496178,296.780823 106.349480,295.579773 
	C107.768562,295.369537 109.187653,295.159271 110.793243,294.921417 
	C108.299286,292.222900 105.717514,289.429382 103.135742,286.635864 
	C102.820160,286.932526 102.504585,287.229187 102.189011,287.525848 
	C102.981056,288.443848 103.773109,289.361847 104.443405,290.138733 
	C102.495514,291.075195 100.658752,291.958221 98.244339,293.208282 
	C98.523636,294.894440 98.802940,296.580566 99.404068,298.748077 
M25.796638,294.767792 
	C22.565229,294.858826 19.333820,294.949860 15.701657,295.008179 
	C15.701657,295.008179 15.299968,294.990173 15.159777,294.257446 
	C15.159777,291.393402 15.159777,288.529358 15.159777,285.665344 
	C14.858290,285.686676 14.556804,285.708038 14.255317,285.729401 
	C14.255317,289.591522 14.255317,293.453613 14.255317,297.110901 
	C18.930252,296.525879 23.261551,295.983856 27.984762,294.685730 
	C27.984762,291.555237 27.984762,288.424744 27.984762,285.294250 
	C27.544674,285.299500 27.104588,285.304718 26.664499,285.309967 
	C26.664499,288.444519 26.664499,291.579041 25.796638,294.767792 
M144.502777,298.152893 
	C144.986053,297.504547 145.846008,296.878693 145.886322,296.203888 
	C146.047058,293.513031 145.952606,290.806885 145.952606,287.711792 
	C148.236008,288.142212 149.544342,288.388824 150.852692,288.635437 
	C148.981781,284.587524 145.509033,286.307068 142.688309,286.044617 
	C141.217545,285.907837 139.661057,286.692261 138.143295,287.060608 
	C138.282379,287.459961 138.421463,287.859344 138.560547,288.258698 
	C145.002029,287.463562 145.723297,288.189880 144.935562,294.931854 
	C144.811539,295.993225 144.306778,297.010071 144.502777,298.152893 
M20.463757,292.127960 
	C20.348194,292.238831 20.165133,292.336182 20.139315,292.464996 
	C20.120121,292.560791 20.301289,292.796753 20.399126,292.800171 
	C21.199816,292.828003 22.001894,292.815826 22.803551,292.815826 
	C22.804014,292.603302 22.804480,292.390747 22.804945,292.178223 
	C22.198175,292.129425 21.591404,292.080597 20.463757,292.127960 
z"/>
<path fill="#2B2829" opacity="1.000000" stroke="none" 
	d="
M295.468689,425.000000 
	C293.896301,423.063019 293.149170,420.773590 291.635315,419.242065 
	C269.604523,396.953583 251.527161,371.757782 238.040894,343.563263 
	C230.968445,328.777527 225.998840,312.985992 220.107986,296.952667 
	C219.423019,295.461700 218.709656,294.666718 217.997253,293.446106 
	C217.971970,291.601349 217.945724,290.182159 218.083481,288.484192 
	C218.824554,287.318054 220.018066,285.774597 219.881775,285.646545 
	C218.724075,284.558807 217.324341,283.728699 215.997162,282.821350 
	C214.333282,273.509857 212.669403,264.198364 211.461792,254.372009 
	C223.611725,253.922913 235.305405,253.988678 246.999069,254.054443 
	C248.970871,263.612762 250.942673,273.171082 253.212738,283.518982 
	C253.528854,288.290771 253.328873,292.293182 253.694321,296.243286 
	C253.807266,297.464142 255.459610,298.542542 256.407135,299.686188 
	C257.605194,301.626862 259.177155,303.430817 259.944611,305.528992 
	C269.692413,332.178162 283.874542,356.224365 301.667572,378.289215 
	C314.581268,394.303253 329.369263,408.243805 345.791443,420.547546 
	C347.058319,421.496704 347.876862,423.044189 348.951904,424.656799 
	C331.312439,425.000000 313.624878,425.000000 295.468689,425.000000 
M244.514603,294.612335 
	C245.623520,288.180573 244.079636,284.449005 239.751419,283.099945 
	C235.389084,281.740234 231.426315,283.388458 229.748016,287.260620 
	C227.935013,291.443542 229.371033,296.848206 232.804626,298.764709 
	C236.984711,301.097778 241.137039,299.855469 244.514603,294.612335 
z"/>
<path fill="#2B2829" opacity="1.000000" stroke="none" 
	d="
M677.531372,1.000006 
	C679.691833,3.186296 681.079224,5.720369 683.120667,7.507232 
	C719.827515,39.636589 745.760925,78.970947 761.783325,124.925240 
	C763.846741,130.843491 765.276489,136.982681 766.569580,143.498840 
	C762.654602,143.422363 763.089233,145.803101 763.091492,147.963470 
	C763.109863,165.869263 763.106445,183.775116 763.092407,201.680939 
	C763.091309,203.068161 762.959167,204.455292 762.813538,207.291840 
	C760.175537,203.469131 758.348877,200.822067 756.522217,198.174988 
	C756.666687,194.874039 757.452820,191.450058 756.847473,188.292923 
	C753.822998,172.521057 751.226807,156.602814 747.009766,141.136963 
	C737.693848,106.970818 720.418274,76.780838 697.930481,49.642437 
	C684.555298,33.501301 669.267761,19.221376 652.135193,6.999544 
	C650.184509,5.607977 648.762634,3.475183 647.047791,1.343043 
	C657.020874,1.000000 667.041809,1.000000 677.531372,1.000006 
z"/>
<path fill="#2B2829" opacity="1.000000" stroke="none" 
	d="
M745.243286,291.004120 
	C746.130798,289.531586 747.493347,288.159729 747.830139,286.570465 
	C750.367432,274.597839 752.604614,262.561249 755.179199,250.597076 
	C755.737854,248.000839 757.281067,245.616470 759.030396,243.231628 
	C763.109070,248.706635 765.551147,255.388168 774.000427,254.055283 
	C772.082825,263.525635 770.165222,272.995972 767.663635,282.744904 
	C760.384216,282.957764 766.059326,288.658661 763.124084,290.621246 
	C759.671692,289.169739 760.553833,281.636749 754.135986,283.231232 
	C754.135986,288.423981 754.135986,293.523468 754.135986,298.984100 
	C755.524292,298.863586 756.705872,298.761047 758.103699,298.639709 
	C758.103699,296.038788 758.103699,293.801849 758.103699,290.715057 
	C760.391724,293.984802 762.195679,296.562805 763.999634,299.140808 
	C753.745239,332.386414 737.404175,362.403625 715.223267,389.112091 
	C706.340393,399.808105 696.286621,409.530487 686.800232,419.728088 
	C685.464355,421.164062 684.324951,422.782745 683.047241,424.658447 
	C673.312439,425.000000 663.624878,425.000000 653.468628,425.000000 
	C654.863159,422.656860 656.336792,419.798492 658.649353,418.049683 
	C683.639282,399.151825 704.176514,376.116760 719.866943,349.201477 
	C728.857117,333.779877 735.357666,316.906891 743.321533,300.185059 
	C746.542297,299.518890 746.838013,298.343353 744.979248,295.823059 
	C744.906921,294.323792 744.835205,293.325562 744.843018,292.106567 
	C745.046021,291.597961 745.152954,291.304047 745.243286,291.004120 
z"/>
<path fill="#353334" opacity="1.000000" stroke="none" 
	d="
M633.015869,299.538147 
	C629.098389,305.434875 625.729858,311.799225 621.171753,317.150330 
	C596.769165,345.798553 565.781006,363.487213 528.898499,370.426239 
	C504.229370,375.067413 479.741547,373.604065 455.538483,366.413330 
	C434.631104,360.201752 415.924896,350.050781 399.120789,336.372894 
	C386.806885,326.349854 376.654938,314.300507 367.950500,301.015137 
	C366.537048,298.857849 364.553070,297.074371 362.422852,294.604309 
	C362.012909,290.436279 362.012909,286.782043 362.012909,283.113861 
	C360.299194,283.113861 359.171844,283.113861 358.044525,283.113861 
	C354.697540,273.726624 351.350555,264.339355 348.461182,254.483826 
	C353.192841,254.015564 357.466949,254.015564 362.177368,254.015564 
	C362.177368,241.826584 362.177368,230.119415 362.177368,218.021698 
	C365.078217,218.021698 367.575592,218.310028 369.978638,217.956741 
	C373.965942,217.370514 375.838287,219.092758 377.415161,222.633011 
	C380.652283,229.900665 384.931305,236.729919 387.841370,244.110306 
	C390.704254,251.371033 394.605988,255.821869 403.055725,254.519806 
	C406.436127,261.283661 409.336487,267.965637 413.222687,274.014191 
	C415.850311,278.103882 419.865875,281.301819 423.476868,285.066040 
	C424.128540,285.823090 424.563995,286.412720 425.046814,287.343964 
	C427.677399,290.428223 429.958160,293.564514 432.907623,295.830444 
	C438.796478,300.354523 445.102142,304.332733 451.101776,308.719543 
	C451.991394,309.369995 452.151459,311.018311 452.328186,312.145142 
	C449.284943,310.782867 448.715881,312.377075 448.141815,314.639343 
	C446.115112,322.626190 444.084900,330.621674 441.675323,338.497437 
	C440.584595,342.062531 441.395844,344.448181 444.000885,346.887299 
	C449.596710,352.126831 456.031189,355.657837 463.435669,357.585938 
	C466.898773,358.487671 469.221008,357.545044 470.716827,354.263519 
	C473.059662,349.123810 475.489166,344.023193 477.917297,338.922882 
	C481.272339,331.875427 488.292328,327.943542 497.222076,328.793579 
	C504.240387,329.461670 502.546021,336.170868 504.418274,340.383270 
	C504.485565,340.534668 504.535492,340.694824 504.582153,340.854218 
	C506.222412,346.458466 508.592010,347.562469 513.098206,344.045166 
	C520.028320,338.635925 526.573975,332.737000 533.360291,327.139893 
	C537.218018,323.958191 539.080811,319.948120 539.431885,314.946228 
	C546.997559,311.180511 554.255798,307.567932 561.355591,303.667145 
	C562.579163,302.994873 563.130066,301.098206 564.286011,299.592407 
	C566.454041,297.947479 568.327698,296.477325 570.551758,294.996155 
	C573.571960,293.324249 576.241760,291.663361 578.994629,290.448730 
	C579.077698,293.660645 579.077698,296.426300 579.077698,299.814209 
	C583.770142,299.567444 587.845703,299.353119 591.921204,299.138763 
	C591.885010,298.464722 591.848816,297.790649 591.812561,297.116577 
	C588.963867,297.116577 586.115173,297.116577 582.836304,297.116577 
	C583.051453,295.450073 582.897034,293.628540 583.376038,293.443054 
	C585.811829,292.499786 588.411682,291.980316 590.954102,291.312408 
	C591.028259,290.911713 591.102356,290.510986 591.176514,290.110260 
	C589.542786,289.818909 587.869873,289.660004 586.288086,289.192871 
	C585.098022,288.841400 584.024780,288.094421 582.899536,287.523529 
	C584.062073,287.003632 585.187683,286.363525 586.395935,285.992371 
	C588.142151,285.455994 589.948364,285.114502 591.728943,284.689819 
	C591.606750,284.171906 591.484558,283.654022 591.362366,283.136108 
	C589.243286,283.018341 587.124146,282.900574 585.064941,282.450897 
	C586.096619,280.580170 586.985046,278.980896 588.052612,277.511871 
	C599.984924,261.092621 606.357788,242.511902 607.848328,222.506775 
	C609.450745,201.001053 604.648865,180.633377 594.015381,161.495102 
	C598.936462,156.120483 603.971802,151.251343 608.413147,145.890121 
	C610.261841,143.658478 611.830994,140.372681 611.816162,137.575287 
	C611.773193,129.455734 611.287170,121.283356 610.195984,113.237358 
	C608.529785,100.952713 607.949463,100.844421 597.219910,106.931816 
	C590.448608,110.773491 589.278198,110.449509 584.989807,103.675446 
	C584.102051,102.273155 582.620728,101.079155 582.215332,99.573135 
	C581.308472,96.204124 580.310364,92.668671 580.484131,89.258842 
	C580.629150,86.413254 582.388489,83.649948 583.432861,80.850189 
	C608.493774,96.165222 627.574829,116.995613 640.482666,143.566223 
	C632.809448,143.987045 625.541870,143.987045 618.287109,143.987045 
	C618.287109,180.953003 618.287109,217.340897 618.287109,253.688599 
	C626.644836,253.688599 634.709656,253.688599 642.995972,253.688599 
	C642.995972,251.403015 642.993042,249.422501 642.996460,247.441986 
	C643.052673,214.960129 643.109619,182.478271 643.166443,149.996414 
	C644.084961,151.067551 645.337891,151.994110 645.872559,153.231155 
	C656.390869,177.570358 659.590332,203.161346 657.862732,229.360977 
	C656.728760,246.558853 651.736145,262.958710 645.089600,278.837372 
	C644.645264,279.899078 644.375793,281.033936 643.725098,282.743774 
	C643.248535,284.569427 643.071838,285.786133 642.895142,287.002869 
	C641.447205,288.634369 639.961792,290.234497 638.562439,291.906677 
	C637.303162,293.411438 636.138306,294.995239 634.228638,296.638977 
	C630.908264,296.733795 628.291138,296.733795 625.423523,296.733795 
	C624.573547,288.880249 631.701782,294.359039 633.712280,290.560150 
	C630.731750,289.642395 627.854309,288.756378 624.976929,287.870361 
	C625.150024,287.400848 625.323120,286.931366 625.496216,286.461884 
	C628.438843,285.974182 631.381409,285.486481 634.323975,284.998779 
	C634.208374,284.436707 634.092773,283.874634 633.977173,283.312561 
	C629.996765,283.312561 626.016357,283.312561 622.234863,283.312561 
	C622.234863,288.890778 622.234863,294.110870 622.234863,299.538147 
	C626.064941,299.538147 629.540405,299.538147 633.015869,299.538147 
M382.649231,283.015869 
	C381.974915,283.854156 380.854980,284.625916 380.717865,285.544403 
	C380.420685,287.535126 380.626282,289.600922 380.626282,292.041504 
	C376.254120,289.540802 376.844788,283.024261 370.845612,282.967163 
	C370.845612,288.778351 370.845612,294.205902 370.845612,300.331268 
	C376.393158,298.583527 372.230591,293.594879 374.533936,291.141693 
	C378.216675,293.253876 377.321014,300.307648 383.488312,299.960693 
	C383.488312,294.193268 383.488312,288.737701 382.649231,283.015869 
M400.754700,296.837524 
	C396.896210,296.348724 395.694183,293.618927 396.208649,290.400208 
	C397.615295,281.599762 403.618835,288.299805 407.610657,287.857788 
	C405.626862,283.205963 402.250336,281.692993 397.904449,283.059235 
	C393.799164,284.349762 391.605377,289.342896 393.015472,294.186584 
	C394.216492,298.311890 398.244141,300.417267 402.875610,299.679779 
	C408.324280,298.812195 408.859222,295.452515 407.739349,291.198944 
	C405.390167,291.198944 403.134979,291.198944 400.879761,291.198944 
	C400.800201,291.553192 400.720642,291.907471 400.641083,292.261719 
	C401.887390,292.976471 403.133728,293.691223 405.054657,294.792847 
	C403.616425,295.616364 402.586273,296.206238 400.754700,296.837524 
M609.016663,287.304291 
	C608.207458,289.128448 607.398193,290.952637 606.535522,292.897217 
	C603.057861,290.346741 605.478638,283.568909 598.606628,282.869171 
	C600.502319,288.103241 602.025452,292.659576 603.861511,297.086182 
	C604.234619,297.985718 605.806274,298.909698 606.789673,298.872650 
	C607.604614,298.841919 608.698059,297.548157 609.095337,296.579132 
	C610.870911,292.248871 612.441162,287.834442 614.085571,283.450439 
	C613.586365,283.094910 613.087219,282.739349 612.588013,282.383820 
	C611.419006,283.756714 610.249939,285.129639 609.016663,287.304291 
z"/>
<path fill="#A4A6A8" opacity="1.000000" stroke="none" 
	d="
M539.070862,315.001831 
	C539.080811,319.948120 537.218018,323.958191 533.360291,327.139893 
	C526.573975,332.737000 520.028320,338.635925 513.098206,344.045166 
	C508.592010,347.562469 506.222412,346.458466 504.582153,340.854218 
	C504.535492,340.694824 504.485565,340.534668 504.418274,340.383270 
	C502.546021,336.170868 504.240387,329.461670 497.222076,328.793579 
	C488.292328,327.943542 481.272339,331.875427 477.917297,338.922882 
	C475.489166,344.023193 473.059662,349.123810 470.716827,354.263519 
	C469.221008,357.545044 466.898773,358.487671 463.435669,357.585938 
	C456.031189,355.657837 449.596710,352.126831 444.000885,346.887299 
	C441.395844,344.448181 440.584595,342.062531 441.675323,338.497437 
	C444.084900,330.621674 446.115112,322.626190 448.141815,314.639343 
	C448.715881,312.377075 449.284943,310.782867 452.606262,312.408691 
	C461.942688,316.398895 470.192657,314.302887 478.113525,310.302856 
	C490.678192,303.957642 500.408966,294.205811 509.183014,283.455963 
	C520.351746,269.772186 530.042175,255.132401 537.406372,238.687103 
	C539.637878,234.466797 541.882751,230.548569 543.495850,226.385559 
	C546.238892,219.306412 548.584351,212.073196 551.407227,204.740875 
	C560.512451,180.151825 566.175720,155.105988 565.012390,129.003708 
	C564.215759,111.130547 562.013611,93.520821 542.687927,84.803032 
	C543.456177,83.010155 544.106018,81.493446 544.755920,79.976746 
	C548.469910,73.291794 552.298218,66.666672 555.844238,59.893757 
	C557.354675,57.008755 559.291748,55.815960 562.556030,55.924793 
	C570.428406,56.187267 577.537354,58.570763 584.165894,62.734020 
	C587.320679,64.715446 588.429993,67.079018 586.927307,70.684059 
	C585.650818,73.746361 584.730652,76.957191 583.542847,80.476250 
	C582.388489,83.649948 580.629150,86.413254 580.484131,89.258842 
	C580.310364,92.668671 581.308472,96.204124 582.215332,99.573135 
	C582.620728,101.079155 584.102051,102.273155 584.989807,103.675446 
	C589.278198,110.449509 590.448608,110.773491 597.219910,106.931816 
	C607.949463,100.844421 608.529785,100.952713 610.195984,113.237358 
	C611.287170,121.283356 611.773193,129.455734 611.816162,137.575287 
	C611.830994,140.372681 610.261841,143.658478 608.413147,145.890121 
	C603.971802,151.251343 598.936462,156.120483 593.734863,161.738968 
	C591.050293,172.815536 588.503174,183.295685 586.702393,193.902557 
	C586.304993,196.243378 588.248413,199.216599 589.668152,201.563385 
	C591.025085,203.806442 592.999573,205.718201 594.887817,207.588623 
	C598.534729,211.200912 599.162476,215.235413 597.236206,219.911682 
	C592.234131,232.054382 587.135742,244.162292 582.431152,256.420502 
	C580.115662,262.453949 576.069458,264.797363 569.856750,264.843719 
	C566.265320,264.870483 562.459351,265.197174 559.144531,266.440765 
	C554.146057,268.316010 539.029724,292.113068 538.937683,297.531830 
	C538.838745,303.352722 539.014771,309.178284 539.070862,315.001831 
z"/>
<path fill="#363536" opacity="1.000000" stroke="none" 
	d="
M544.397339,79.913826 
	C544.106018,81.493446 543.456177,83.010155 542.687927,84.803032 
	C562.013611,93.520821 564.215759,111.130547 565.012390,129.003708 
	C566.175720,155.105988 560.512451,180.151825 551.322571,204.378357 
	C544.294922,185.361053 537.683716,166.534790 530.986877,147.738983 
	C530.478210,146.311249 529.364502,143.964157 528.528625,143.962692 
	C519.770691,143.947327 511.012024,144.323685 502.178589,144.209671 
	C501.720428,142.864639 501.337250,141.901581 501.107208,140.642517 
	C509.394012,130.900909 517.308044,121.109596 531.690491,121.645493 
	C528.255432,113.957939 522.841980,110.904701 516.007507,114.045723 
	C509.943451,116.832695 504.644775,121.285126 498.545532,125.001373 
	C485.300751,124.366684 473.389374,127.813850 461.958008,133.062759 
	C445.003815,140.847565 431.877075,152.928268 422.280426,168.950577 
	C421.240784,170.686340 418.937286,171.665085 417.096375,172.623596 
	C415.178650,164.580063 411.684296,158.024261 405.495544,152.835800 
	C397.460846,146.099762 388.075928,144.034790 377.994781,143.832550 
	C383.430511,135.954926 388.218628,127.519760 394.427673,120.307922 
	C410.722076,101.381752 431.275818,88.118782 454.867584,80.513535 
	C467.495209,76.442764 481.023529,74.776489 494.283539,73.154472 
	C511.308319,71.071915 527.822693,74.839554 544.397339,79.913826 
M508.021210,96.500069 
	C511.067413,94.299393 514.113647,92.098717 517.227844,89.848900 
	C515.821106,87.395660 514.761597,85.321762 513.493774,83.384140 
	C510.807251,79.278206 508.843109,78.998169 505.119659,82.292519 
	C501.634064,85.376419 498.591400,89.045921 494.825684,91.711609 
	C485.224915,98.507805 486.243988,108.903870 485.398743,118.990448 
	C492.755371,111.645020 500.112000,104.299599 508.021210,96.500069 
z"/>
<path fill="#FCFCFC" opacity="1.000000" stroke="none" 
	d="
M774.457520,253.958710 
	C765.551147,255.388168 763.109070,248.706635 759.392456,243.149689 
	C745.686157,224.663361 732.277405,206.356094 718.002197,186.865921 
	C718.002197,209.915421 718.002197,231.445374 718.002197,253.865112 
	C713.392273,253.865112 709.152832,253.865112 704.457275,253.959885 
	C700.694580,254.054657 697.387939,254.054657 693.314575,254.054657 
	C693.314575,252.005844 693.314575,250.421707 693.314575,248.837570 
	C693.314575,215.455399 693.289368,182.073166 693.393677,148.691315 
	C693.398621,147.121597 694.555847,145.555496 695.590149,143.908081 
	C700.493103,143.882217 705.038391,144.400238 709.456970,143.867477 
	C714.520325,143.256973 717.269043,145.564774 720.017578,149.326385 
	C731.888306,165.572556 743.988464,181.651108 756.263672,197.982834 
	C758.348877,200.822067 760.175537,203.469131 762.813538,207.291840 
	C762.959167,204.455292 763.091309,203.068161 763.092407,201.680939 
	C763.106445,183.775116 763.109863,165.869263 763.091492,147.963470 
	C763.089233,145.803101 762.654602,143.422363 766.570435,143.903229 
	C773.633850,143.828278 780.266296,143.828278 787.206726,143.828278 
	C787.206726,180.534760 787.206726,216.838150 787.206726,253.862122 
	C783.081665,253.862122 778.998169,253.862122 774.457520,253.958710 
z"/>
<path fill="#FEFEFE" opacity="1.000000" stroke="none" 
	d="
M377.531311,143.904068 
	C388.075928,144.034790 397.460846,146.099762 405.495544,152.835800 
	C411.684296,158.024261 415.178650,164.580063 417.072144,173.034149 
	C419.738098,190.946487 414.314178,204.499329 399.042114,213.605637 
	C406.132782,227.061646 413.109650,240.301666 420.416656,254.168228 
	C413.956635,254.168228 408.476044,254.168228 402.995453,254.168228 
	C394.605988,255.821869 390.704254,251.371033 387.841370,244.110306 
	C384.931305,236.729919 380.652283,229.900665 377.415161,222.633011 
	C375.838287,219.092758 373.965942,217.370514 369.978638,217.956741 
	C367.575592,218.310028 365.078217,218.021698 362.177368,218.021698 
	C362.177368,230.119415 362.177368,241.826584 362.177368,254.015564 
	C357.466949,254.015564 353.192841,254.015564 348.457520,254.091705 
	C344.852051,254.167831 341.707794,254.167831 338.225006,254.167831 
	C338.225006,217.371445 338.225006,180.911377 338.225006,143.975586 
	C351.216370,143.975586 364.142090,143.975586 377.531311,143.904068 
M389.158234,171.381943 
	C381.190186,163.920425 371.499207,168.130814 362.478485,166.780533 
	C362.478485,176.492630 362.478485,185.529556 362.478485,194.797409 
	C367.998962,194.797409 373.161133,195.043579 378.292297,194.748978 
	C391.143982,194.011108 396.566284,182.998474 389.158234,171.381943 
z"/>
<path fill="#FFFFFF" opacity="1.000000" stroke="none" 
	d="
M643.093872,149.580353 
	C643.109619,182.478271 643.052673,214.960129 642.996460,247.441986 
	C642.993042,249.422501 642.995972,251.403015 642.995972,253.688599 
	C634.709656,253.688599 626.644836,253.688599 618.287109,253.688599 
	C618.287109,217.340897 618.287109,180.953003 618.287109,143.987045 
	C625.541870,143.987045 632.809448,143.987045 640.540344,143.910522 
	C641.676270,145.610748 642.348816,147.387512 643.093872,149.580353 
z"/>
<path fill="#EDEEEE" opacity="1.000000" stroke="none" 
	d="
M678.034912,288.088379 
	C678.951416,292.646698 678.632019,296.512085 674.450256,298.839294 
	C670.514526,301.029602 665.572510,299.640381 663.582336,296.003510 
	C661.277710,291.791962 662.651489,285.692657 666.367798,283.636627 
	C670.556946,281.319000 675.146545,282.937714 678.034912,288.088379 
M674.273499,294.473602 
	C674.382629,292.535553 674.962219,290.475311 674.497559,288.686310 
	C673.670288,285.501587 668.900330,284.396088 667.529602,287.140625 
	C666.450684,289.300842 666.261230,292.760193 667.264893,294.896088 
	C668.615234,297.769592 671.547363,297.496185 674.273499,294.473602 
z"/>
<path fill="#EDEEEE" opacity="1.000000" stroke="none" 
	d="
M697.304871,283.527039 
	C701.464661,290.425171 700.195312,292.327179 690.747620,293.740479 
	C690.570984,295.414948 690.386353,297.165344 690.088257,299.276794 
	C688.977966,298.748474 687.186096,297.914124 687.120056,296.960327 
	C686.813171,292.527191 686.984192,288.060974 686.984192,282.914032 
	C690.443542,283.079193 693.659485,283.232758 697.304871,283.527039 
z"/>
<path fill="#DFE0E1" opacity="1.000000" stroke="none" 
	d="
M309.063751,298.395325 
	C306.639221,299.084167 304.328888,299.895630 302.117310,299.682373 
	C299.164734,299.397766 297.024567,297.792664 297.240173,294.206787 
	C297.409729,291.386658 297.030884,288.525177 297.314362,285.724426 
	C297.427124,284.610291 298.667786,283.610291 299.394989,282.558319 
	C299.907959,282.818726 300.420929,283.079132 300.933899,283.339539 
	C300.933899,286.140350 300.939941,288.941162 300.932037,291.741943 
	C300.925293,294.134674 300.833496,297.038300 304.169189,296.525818 
	C305.334686,296.346771 306.241669,293.577179 306.972748,291.865082 
	C307.332642,291.022278 307.022491,289.893372 306.939331,288.448700 
	C306.932922,286.846375 306.781525,285.611298 307.152130,284.560303 
	C307.389221,283.887848 308.342743,283.219666 309.081177,283.068848 
	C309.499176,282.983429 310.626038,283.986053 310.591034,284.432526 
	C310.234070,288.983398 309.703735,293.520630 309.063751,298.395325 
z"/>
<path fill="#EDEEEE" opacity="1.000000" stroke="none" 
	d="
M633.404907,299.392822 
	C629.540405,299.538147 626.064941,299.538147 622.234863,299.538147 
	C622.234863,294.110870 622.234863,288.890778 622.234863,283.312561 
	C626.016357,283.312561 629.996765,283.312561 633.977173,283.312561 
	C634.092773,283.874634 634.208374,284.436707 634.323975,284.998779 
	C631.381409,285.486481 628.438843,285.974182 625.496216,286.461884 
	C625.323120,286.931366 625.150024,287.400848 624.976929,287.870361 
	C627.854309,288.756378 630.731750,289.642395 633.712280,290.560150 
	C631.701782,294.359039 624.573547,288.880249 625.423523,296.733795 
	C628.291138,296.733795 630.908264,296.733795 633.987610,296.842194 
	C634.231201,297.716217 634.012573,298.481873 633.404907,299.392822 
z"/>
<path fill="#DFE0E1" opacity="1.000000" stroke="none" 
	d="
M642.976074,287.459595 
	C643.071838,285.786133 643.248535,284.569427 643.712891,283.118408 
	C646.571045,282.697083 646.924255,284.198975 646.842957,286.326508 
	C646.717773,289.603821 646.809998,292.889404 646.809998,296.625549 
	C649.103210,296.625549 650.907043,296.498108 652.677979,296.683655 
	C653.467102,296.766296 654.190186,297.479034 654.943237,297.905762 
	C654.147278,298.477631 653.381348,299.485474 652.549927,299.542694 
	C649.613708,299.744843 646.655151,299.621399 643.057129,299.621399 
	C643.057129,295.418793 643.057129,291.667572 642.976074,287.459595 
z"/>
<path fill="#FCFCFC" opacity="1.000000" stroke="none" 
	d="
M323.405090,287.415070 
	C323.404968,290.648376 323.404968,293.424347 323.404968,296.368317 
	C326.574005,296.654877 329.183197,296.890808 331.792389,297.126740 
	C331.783081,297.653992 331.773773,298.181244 331.764465,298.708496 
	C328.093048,298.708496 324.421631,298.708496 320.385864,298.708496 
	C320.385864,293.954254 320.385864,288.747437 320.385864,283.540588 
	C320.816406,283.316132 321.246979,283.091705 321.677521,282.867249 
	C322.253418,284.230743 322.829315,285.594269 323.405090,287.415070 
z"/>
<path fill="#FCFCFC" opacity="1.000000" stroke="none" 
	d="
M341.226715,282.989929 
	C344.465637,282.989807 347.242615,282.989807 350.019562,282.989807 
	C350.161438,283.493042 350.303284,283.996246 350.445160,284.499481 
	C348.821320,285.226288 347.197479,285.953064 345.500214,286.712738 
	C344.275787,290.735016 346.896820,295.805328 343.980255,299.623169 
	C343.388580,299.524902 342.796875,299.426636 342.205200,299.328369 
	C342.205200,295.074463 342.205200,290.820526 342.205200,286.464203 
	C340.204803,285.945160 338.544464,285.514313 336.884094,285.083496 
	C336.914215,284.544739 336.944336,284.006012 336.974487,283.467285 
	C338.237915,283.308228 339.501343,283.149139 341.226715,282.989929 
z"/>
<path fill="#FFFFFF" opacity="1.000000" stroke="none" 
	d="
M358.023132,283.574280 
	C359.171844,283.113861 360.299194,283.113861 362.012909,283.113861 
	C362.012909,286.782043 362.012909,290.436279 362.089264,294.547119 
	C362.068176,296.485931 361.970764,297.968201 361.865417,299.570618 
	C359.400543,300.459473 357.807892,300.431702 357.954010,297.016205 
	C358.138794,292.696259 358.000610,288.362518 358.023132,283.574280 
z"/>
<path fill="#FCFCFC" opacity="1.000000" stroke="none" 
	d="
M247.450104,253.955566 
	C235.305405,253.988678 223.611725,253.922913 211.458496,253.956192 
	C209.688004,253.910889 208.377075,253.766510 206.724091,253.584457 
	C206.724091,217.211792 206.724091,180.871445 206.724091,143.971313 
	C215.874298,143.971313 224.970963,143.971313 234.531189,143.900055 
	C241.308121,143.894531 247.627594,143.805725 253.933777,144.054306 
	C274.914825,144.881363 289.309265,165.808640 281.887238,184.963013 
	C280.323761,188.997879 277.384460,192.499603 275.005585,196.366501 
	C277.453125,198.991440 280.749969,201.502167 282.714508,204.805283 
	C293.192871,222.423294 285.700165,248.758759 260.792297,252.882080 
	C256.557495,253.583130 252.201248,253.550415 247.450104,253.955566 
M251.994522,208.939331 
	C245.072327,208.939331 238.150116,208.939331 231.108948,208.939331 
	C231.108948,216.278885 231.108948,223.158661 231.108948,230.398605 
	C237.808929,230.398605 244.248795,230.498535 250.684143,230.371048 
	C257.391968,230.238174 261.572571,226.702225 262.123474,220.990265 
	C262.729340,214.708496 259.806091,210.919983 251.994522,208.939331 
M259.069824,174.051636 
	C257.988098,169.851456 255.072296,167.358459 250.976059,167.127792 
	C244.415390,166.758331 237.818710,167.028824 231.172928,167.028824 
	C231.172928,173.767685 231.172928,180.111343 231.172928,186.797485 
	C237.102814,186.797485 242.709641,186.867096 248.314072,186.780777 
	C256.229401,186.658875 259.508057,183.020737 259.069824,174.051636 
z"/>
<path fill="#EDEEEE" opacity="1.000000" stroke="none" 
	d="
M256.542236,299.277008 
	C255.459610,298.542542 253.807266,297.464142 253.694321,296.243286 
	C253.328873,292.293182 253.528854,288.290771 253.382294,283.887756 
	C254.975616,284.125549 257.134460,284.351379 258.316742,285.544708 
	C260.069061,287.313416 261.129059,289.768036 263.524780,291.614624 
	C263.524780,289.537506 263.366760,287.442322 263.600891,285.391937 
	C263.697327,284.546967 264.636688,283.798248 265.192657,283.005768 
	C265.735596,283.811249 266.719208,284.601349 266.747986,285.424805 
	C266.903168,289.865875 266.821472,294.315216 266.821472,299.268158 
	C260.403381,299.904053 261.133820,293.195007 257.132812,290.886475 
	C256.976135,293.631836 256.826721,296.249817 256.542236,299.277008 
z"/>
<path fill="#EDEEEE" opacity="1.000000" stroke="none" 
	d="
M279.389282,295.559631 
	C281.483917,295.861237 283.346283,295.861237 285.208649,295.861237 
	C285.246246,295.236389 285.283844,294.611511 285.321442,293.986664 
	C284.036316,293.450684 282.604767,293.121185 281.496704,292.335510 
	C279.235016,290.731934 277.147400,288.882812 274.988068,287.134857 
	C276.203491,285.794281 277.274200,283.511047 278.662659,283.297913 
	C282.182739,282.757599 286.477936,281.610687 288.391327,287.954803 
	C284.998505,287.063385 282.237610,286.337982 279.476715,285.612579 
	C279.253265,286.170074 279.029816,286.727539 278.806366,287.285034 
	C279.917206,287.864471 280.982391,288.566864 282.147766,288.999451 
	C285.208221,290.135468 289.284027,290.813232 288.465302,295.063812 
	C288.105286,296.932922 285.154205,299.169617 283.026245,299.639526 
	C279.329865,300.455719 276.128204,298.931091 275.249268,293.579132 
	C276.877502,294.278687 278.017273,294.768372 279.389282,295.559631 
z"/>
<path fill="#EDEEEE" opacity="1.000000" stroke="none" 
	d="
M215.593018,282.881897 
	C217.324341,283.728699 218.724075,284.558807 219.881775,285.646545 
	C220.018066,285.774597 218.824554,287.318054 217.749573,288.351868 
	C215.736099,287.661560 214.074371,286.005005 212.750153,286.241119 
	C211.643051,286.438538 210.181488,288.871613 210.221680,290.276215 
	C210.279999,292.315033 211.548752,294.319244 212.301270,296.338196 
	C214.199615,295.516052 216.097961,294.693878 217.996307,293.871735 
	C218.709656,294.666718 219.423019,295.461700 220.050781,296.572937 
	C217.010437,300.495300 212.590607,301.378815 209.729507,298.554657 
	C207.559601,296.412720 206.974289,291.786285 207.168854,288.349518 
	C207.414948,284.002655 211.068710,282.639954 215.593018,282.881897 
z"/>
<path fill="#EDEEEE" opacity="1.000000" stroke="none" 
	d="
M764.437256,299.092773 
	C762.195679,296.562805 760.391724,293.984802 758.103699,290.715057 
	C758.103699,293.801849 758.103699,296.038788 758.103699,298.639709 
	C756.705872,298.761047 755.524292,298.863586 754.135986,298.984100 
	C754.135986,293.523468 754.135986,288.423981 754.135986,283.231232 
	C760.553833,281.636749 759.671692,289.169739 763.124084,290.621246 
	C766.059326,288.658661 760.384216,282.957764 767.508301,283.090759 
	C767.939697,287.467834 767.804077,291.783936 767.998291,296.085083 
	C768.110413,298.567017 767.165710,299.374847 764.437256,299.092773 
z"/>
<path fill="#FCFCFC" opacity="1.000000" stroke="none" 
	d="
M784.828247,282.992371 
	C786.515137,283.407593 787.739319,283.822571 788.963440,284.237549 
	C787.470154,285.071503 785.976868,285.905426 784.003235,287.007629 
	C784.003235,289.862244 784.075684,293.324951 783.945618,296.780060 
	C783.917664,297.523499 783.158569,298.239471 782.736206,298.968079 
	C782.155640,298.232483 781.113770,297.521088 781.073669,296.757141 
	C780.892395,293.303192 780.994507,289.834351 780.994507,286.644287 
	C779.036438,285.890900 777.412292,285.265991 775.788208,284.641083 
	C775.912476,284.091431 776.036743,283.541748 776.161011,282.992096 
	C778.895874,282.992096 781.630676,282.992096 784.828247,282.992371 
z"/>
<path fill="#EDEEEE" opacity="1.000000" stroke="none" 
	d="
M716.809692,290.763123 
	C717.901733,286.788696 716.894104,281.461609 723.837280,283.313416 
	C723.837280,288.353210 723.837280,293.445557 723.837280,298.548096 
	C721.221008,298.327301 721.221008,298.327301 720.098389,291.261658 
	C719.660706,292.864746 719.419006,294.560120 718.721680,296.041046 
	C718.187134,297.176575 717.077698,298.041565 716.223938,299.026855 
	C715.192993,297.968903 714.014221,297.013336 713.185242,295.815582 
	C712.668396,295.068909 712.679993,293.956512 711.455627,293.070282 
	C711.191284,295.033539 710.927002,296.996826 710.651245,299.045227 
	C707.807861,297.583344 707.266541,293.065155 708.565247,283.298462 
	C711.866699,282.343384 713.890137,282.961426 714.186157,286.991974 
	C714.290771,288.416534 715.731384,289.742981 716.809692,290.763123 
z"/>
<path fill="#DFE0E1" opacity="1.000000" stroke="none" 
	d="
M745.119385,290.607117 
	C745.152954,291.304047 745.046021,291.597961 744.390381,292.080444 
	C741.653076,292.275024 739.447998,292.275024 737.242859,292.275024 
	C736.966248,292.877808 736.689575,293.480591 736.412964,294.083374 
	C737.655334,294.928528 738.798706,296.171295 740.166687,296.511810 
	C741.662781,296.884186 743.366577,296.422363 744.979797,296.324097 
	C746.838013,298.343353 746.542297,299.518890 743.330994,299.797791 
	C741.351013,299.816040 739.703979,299.723450 738.057434,299.621246 
	C736.611816,299.531525 735.166870,299.431030 733.515503,299.321686 
	C733.515503,293.790405 733.515503,288.578888 733.515503,283.171265 
	C737.687622,283.171265 741.591431,283.171265 745.495239,283.171265 
	C745.665283,283.682312 745.835388,284.193329 746.005432,284.704376 
	C744.597290,285.121704 743.177917,285.504852 741.783997,285.965302 
	C740.173096,286.497589 738.584656,287.097961 736.986450,287.668762 
	C738.642334,288.195709 740.298035,288.723450 741.954285,289.249298 
	C742.967529,289.571045 743.981750,289.889984 745.119385,290.607117 
z"/>
<path fill="#EDEEEE" opacity="1.000000" stroke="none" 
	d="
M61.277657,285.937897 
	C61.987579,285.957306 62.697495,285.976685 64.006424,286.219849 
	C65.418732,286.618713 66.232018,286.793793 67.045303,286.968872 
	C67.045303,286.968872 67.002670,287.001770 67.037773,287.294678 
	C67.731514,288.051788 68.390152,288.515961 69.048798,288.980133 
	C69.048798,288.980133 69.000999,289.001160 68.972198,289.355774 
	C68.970070,292.155426 68.996750,294.600464 69.023430,297.045502 
	C69.023430,297.045502 69.000336,296.999329 68.732376,297.019958 
	C68.314705,297.377136 68.164986,297.713623 68.015259,298.050140 
	C68.015251,298.050140 68.004944,297.997681 67.681717,297.838989 
	C64.794189,293.700562 61.273293,293.833710 57.956100,298.035828 
	C57.956100,298.035828 57.995049,297.997650 57.965229,297.732513 
	C57.607353,297.317383 57.279297,297.167419 56.951237,297.017456 
	C56.951233,297.017456 56.999668,296.999329 57.022163,296.644897 
	C57.020500,293.845886 56.996342,291.401306 56.972187,288.956726 
	C56.972187,288.956726 56.998989,289.001160 57.293633,288.973999 
	C58.051731,288.281921 58.515182,287.617035 58.978630,286.952118 
	C58.978626,286.952118 59.001453,286.998718 59.329247,287.043762 
	C60.197239,286.705200 60.737446,286.321564 61.277657,285.937897 
z"/>
<path fill="#798E9C" opacity="1.000000" stroke="none" 
	d="
M57.780495,298.372192 
	C61.273293,293.833710 64.794189,293.700562 67.701172,297.858093 
	C65.855453,301.566772 61.755821,301.830963 57.780495,298.372192 
z"/>
<path fill="#A4A6A8" opacity="1.000000" stroke="none" 
	d="
M144.240417,298.100220 
	C144.306778,297.010071 144.811539,295.993225 144.935562,294.931854 
	C145.723297,288.189880 145.002029,287.463562 138.560547,288.258698 
	C138.421463,287.859344 138.282379,287.459961 138.143295,287.060608 
	C139.661057,286.692261 141.217545,285.907837 142.688309,286.044617 
	C145.509033,286.307068 148.981781,284.587524 150.852692,288.635437 
	C149.544342,288.388824 148.236008,288.142212 145.952606,287.711792 
	C145.952606,290.806885 146.047058,293.513031 145.886322,296.203888 
	C145.846008,296.878693 144.986053,297.504547 144.240417,298.100220 
z"/>
<path fill="#798E9C" opacity="1.000000" stroke="none" 
	d="
M104.961349,296.019592 
	C105.496696,291.497284 102.523865,293.133209 99.800659,293.333801 
	C99.115677,293.134674 98.968834,292.987976 98.821983,292.841248 
	C100.658752,291.958221 102.495514,291.075195 104.443405,290.138733 
	C103.773109,289.361847 102.981056,288.443848 102.189011,287.525848 
	C102.504585,287.229187 102.820160,286.932526 103.135742,286.635864 
	C105.717514,289.429382 108.299286,292.222900 110.793243,294.921417 
	C109.187653,295.159271 107.768562,295.369537 105.915787,295.817322 
	C105.308510,296.043060 105.134926,296.031311 104.961349,296.019592 
z"/>
<path fill="#798E9C" opacity="1.000000" stroke="none" 
	d="
M16.102413,295.040924 
	C19.333820,294.949860 22.565229,294.858826 26.457823,294.928894 
	C27.276953,295.207275 27.434900,295.324524 27.592850,295.441803 
	C23.261551,295.983856 18.930252,296.525879 14.255317,297.110901 
	C14.255317,293.453613 14.255317,289.591522 14.255317,285.729401 
	C14.556804,285.708038 14.858290,285.686676 15.159777,285.665344 
	C15.159777,288.529358 15.159777,291.393402 15.219001,294.821198 
	C15.552955,295.270264 15.827684,295.155609 16.102413,295.040924 
z"/>
<path fill="#798E9C" opacity="1.000000" stroke="none" 
	d="
M56.577789,288.943024 
	C56.996342,291.401306 57.020500,293.845886 57.010616,296.667969 
	C53.407635,294.663055 54.668697,291.808594 56.577789,288.943024 
z"/>
<path fill="#798E9C" opacity="1.000000" stroke="none" 
	d="
M69.417877,297.056885 
	C68.996750,294.600464 68.970070,292.155426 68.985603,289.333557 
	C72.581177,291.342194 71.340981,294.191254 69.417877,297.056885 
z"/>
<path fill="#798E9C" opacity="1.000000" stroke="none" 
	d="
M26.891754,294.901794 
	C26.664499,291.579041 26.664499,288.444519 26.664499,285.309967 
	C27.104588,285.304718 27.544674,285.299500 27.984762,285.294250 
	C27.984762,288.424744 27.984762,291.555237 27.788805,295.063782 
	C27.434900,295.324524 27.276953,295.207275 26.891754,294.901794 
z"/>
<path fill="#798E9C" opacity="1.000000" stroke="none" 
	d="
M99.082245,298.266724 
	C98.802940,296.580566 98.523636,294.894440 98.533157,293.024780 
	C98.968834,292.987976 99.115677,293.134674 99.458115,293.526672 
	C99.488571,294.646454 99.323433,295.520874 99.301910,297.030518 
	C99.324432,297.866058 99.203339,298.066376 99.082245,298.266724 
z"/>
<path fill="#FCFCFC" opacity="1.000000" stroke="none" 
	d="
M99.243149,298.507385 
	C99.203339,298.066376 99.324432,297.866058 99.500687,297.318848 
	C100.393585,297.525818 101.231316,298.079620 102.069054,298.633453 
	C101.180725,298.671661 100.292397,298.709869 99.243149,298.507385 
z"/>
<path fill="#FCFCFC" opacity="1.000000" stroke="none" 
	d="
M20.724195,292.079865 
	C21.591404,292.080597 22.198175,292.129425 22.804945,292.178223 
	C22.804480,292.390747 22.804014,292.603302 22.803551,292.815826 
	C22.001894,292.815826 21.199816,292.828003 20.399126,292.800171 
	C20.301289,292.796753 20.120121,292.560791 20.139315,292.464996 
	C20.165133,292.336182 20.348194,292.238831 20.724195,292.079865 
z"/>
<path fill="#798E9C" opacity="1.000000" stroke="none" 
	d="
M67.154999,286.661041 
	C66.232018,286.793793 65.418732,286.618713 64.362648,286.230469 
	C65.168129,286.129242 66.216408,286.241241 67.154999,286.661041 
z"/>
<path fill="#FCFCFC" opacity="1.000000" stroke="none" 
	d="
M104.749657,296.199951 
	C105.134926,296.031311 105.308510,296.043060 105.741592,296.082397 
	C105.496178,296.780823 104.991257,297.451691 104.486343,298.122559 
	C104.503555,297.541809 104.520760,296.961029 104.749657,296.199951 
z"/>
<path fill="#798E9C" opacity="1.000000" stroke="none" 
	d="
M58.616600,286.832031 
	C58.515182,287.617035 58.051731,288.281921 57.269741,288.963470 
	C57.385658,288.224060 57.820114,287.467987 58.616600,286.832031 
z"/>
<path fill="#798E9C" opacity="1.000000" stroke="none" 
	d="
M69.176056,288.620087 
	C68.390152,288.515961 67.731514,288.051788 67.047119,287.269836 
	C67.782013,287.388092 68.542664,287.824066 69.176056,288.620087 
z"/>
<path fill="#798E9C" opacity="1.000000" stroke="none" 
	d="
M60.921509,285.720398 
	C60.737446,286.321564 60.197239,286.705200 59.309090,287.028107 
	C59.495884,286.479248 60.030624,285.991089 60.921509,285.720398 
z"/>
<path fill="#798E9C" opacity="1.000000" stroke="none" 
	d="
M68.369484,298.183929 
	C68.164986,297.713623 68.314705,297.377136 68.756592,297.029053 
	C68.940414,297.450867 68.832062,297.884308 68.369484,298.183929 
z"/>
<path fill="#798E9C" opacity="1.000000" stroke="none" 
	d="
M56.862438,297.384644 
	C57.279297,297.167419 57.607353,297.317383 57.960091,297.758759 
	C57.581055,297.950714 57.177345,297.851288 56.862438,297.384644 
z"/>
<path fill="#FCFCFC" opacity="1.000000" stroke="none" 
	d="
M15.902037,295.024536 
	C15.827684,295.155609 15.552955,295.270264 15.289097,295.187561 
	C15.299968,294.990173 15.701657,295.008179 15.902037,295.024536 
z"/>
<path fill="#EDEEEE" opacity="1.000000" stroke="none" 
	d="
M244.360794,294.982819 
	C241.137039,299.855469 236.984711,301.097778 232.804626,298.764709 
	C229.371033,296.848206 227.935013,291.443542 229.748016,287.260620 
	C231.426315,283.388458 235.389084,281.740234 239.751419,283.099945 
	C244.079636,284.449005 245.623520,288.180573 244.360794,294.982819 
M234.931656,286.178070 
	C234.285721,288.711945 233.246338,291.237396 233.191620,293.783966 
	C233.170364,294.773254 235.294922,296.488495 236.583572,296.635986 
	C237.887665,296.785217 239.894485,295.765961 240.673737,294.628448 
	C243.380798,290.676849 240.725784,286.186035 234.931656,286.178070 
z"/>
<path fill="#282526" opacity="1.000000" stroke="none" 
	d="
M217.997253,293.446106 
	C216.097961,294.693878 214.199615,295.516052 212.301270,296.338196 
	C211.548752,294.319244 210.279999,292.315033 210.221680,290.276215 
	C210.181488,288.871613 211.643051,286.438538 212.750153,286.241119 
	C214.074371,286.005005 215.736099,287.661560 217.585556,288.630676 
	C217.945724,290.182159 217.971970,291.601349 217.997253,293.446106 
z"/>
<path fill="#2E2B2C" opacity="1.000000" stroke="none" 
	d="
M744.979248,295.823059 
	C743.366577,296.422363 741.662781,296.884186 740.166687,296.511810 
	C738.798706,296.171295 737.655334,294.928528 736.412964,294.083374 
	C736.689575,293.480591 736.966248,292.877808 737.242859,292.275024 
	C739.447998,292.275024 741.653076,292.275024 744.310791,292.301178 
	C744.835205,293.325562 744.906921,294.323792 744.979248,295.823059 
z"/>
<path fill="#393739" opacity="1.000000" stroke="none" 
	d="
M403.055725,254.519806 
	C408.476044,254.168228 413.956635,254.168228 420.416656,254.168228 
	C413.109650,240.301666 406.132782,227.061646 399.042114,213.605637 
	C414.314178,204.499329 419.738098,190.946487 417.195801,173.405502 
	C418.937286,171.665085 421.240784,170.686340 422.280426,168.950577 
	C431.877075,152.928268 445.003815,140.847565 461.958008,133.062759 
	C473.389374,127.813850 485.300751,124.366684 498.392517,125.297447 
	C482.671997,143.163025 471.480682,163.613235 462.930908,185.639175 
	C454.886993,206.361862 448.687286,227.569656 449.270813,250.008438 
	C449.441223,256.561951 451.478760,263.455658 454.268219,269.444580 
	C457.142517,275.615723 464.001984,276.664856 468.880920,273.433044 
	C458.426636,262.056000 460.494904,248.431625 462.208801,235.013763 
	C464.628174,236.725891 466.709290,238.364090 468.774963,240.367432 
	C467.263611,245.025589 465.767731,249.318634 464.249542,253.675735 
	C473.441895,253.675735 482.151855,253.675735 490.969421,254.062347 
	C494.977539,255.283920 498.933929,257.022705 502.768311,256.785828 
	C514.690063,256.049469 524.786255,251.095047 532.678955,241.891022 
	C533.749817,240.642258 535.494446,239.971359 536.945740,238.949005 
	C536.964355,238.865097 537.135681,238.879089 537.135681,238.879089 
	C530.042175,255.132401 520.351746,269.772186 509.183014,283.455963 
	C500.408966,294.205811 490.678192,303.957642 478.113525,310.302856 
	C470.192657,314.302887 461.942688,316.398895 452.927185,312.468506 
	C452.151459,311.018311 451.991394,309.369995 451.101776,308.719543 
	C445.102142,304.332733 438.796478,300.354523 432.907623,295.830444 
	C429.958160,293.564514 427.677399,290.428223 425.483124,287.363831 
	C427.690399,286.930054 429.517639,286.895996 431.325317,286.690369 
	C435.606781,286.203461 437.877686,284.769440 436.308258,279.589569 
	C435.083710,275.548004 435.049927,271.069275 434.964142,266.775269 
	C434.792450,258.178986 434.947540,249.576172 435.083832,240.946030 
	C435.199921,240.916000 435.236938,240.634079 435.236938,240.634079 
	C435.236938,240.634079 435.020477,241.029724 434.716675,241.173767 
	C432.013275,244.658752 429.349030,247.846161 427.294586,251.387344 
	C425.526367,254.435226 423.494568,257.821014 423.265503,261.172668 
	C422.727386,269.044647 423.198181,276.985596 423.260620,284.898651 
	C419.865875,281.301819 415.850311,278.103882 413.222687,274.014191 
	C409.336487,267.965637 406.436127,261.283661 403.055725,254.519806 
M443.993378,173.504333 
	C442.327698,177.837280 440.555023,182.132721 439.019958,186.511444 
	C436.341553,194.151215 436.829285,195.460678 443.669434,200.526535 
	C449.942993,185.170227 456.210907,169.827759 462.501953,154.428604 
	C453.726257,153.335785 453.007477,153.659317 449.512299,160.965668 
	C447.652222,164.853897 445.984314,168.834076 443.993378,173.504333 
z"/>
<path fill="#393739" opacity="1.000000" stroke="none" 
	d="
M539.431885,314.946228 
	C539.014771,309.178284 538.838745,303.352722 538.937683,297.531830 
	C539.029724,292.113068 554.146057,268.316010 559.144531,266.440765 
	C562.459351,265.197174 566.265320,264.870483 569.856750,264.843719 
	C576.069458,264.797363 580.115662,262.453949 582.431152,256.420502 
	C587.135742,244.162292 592.234131,232.054382 597.236206,219.911682 
	C599.162476,215.235413 598.534729,211.200912 594.887817,207.588623 
	C592.999573,205.718201 591.025085,203.806442 589.668152,201.563385 
	C588.248413,199.216599 586.304993,196.243378 586.702393,193.902557 
	C588.503174,183.295685 591.050293,172.815536 593.609314,162.045898 
	C604.648865,180.633377 609.450745,201.001053 607.848328,222.506775 
	C606.357788,242.511902 599.984924,261.092621 588.052612,277.511871 
	C586.985046,278.980896 586.096619,280.580170 584.632324,282.514252 
	C582.553345,283.001770 580.966919,283.093994 579.322266,283.189636 
	C579.168274,285.744354 579.039978,287.873413 578.911621,290.002472 
	C576.241760,291.663361 573.571960,293.324249 570.544189,294.626678 
	C571.284180,284.415894 567.774048,281.555542 556.973633,283.597229 
	C556.973633,288.695404 556.973633,293.810516 556.973633,299.155304 
	C559.423767,299.368927 561.707764,299.568024 563.991699,299.767151 
	C563.130066,301.098206 562.579163,302.994873 561.355591,303.667145 
	C554.255798,307.567932 546.997559,311.180511 539.431885,314.946228 
z"/>
<path fill="#707274" opacity="1.000000" stroke="none" 
	d="
M423.476868,285.066040 
	C423.198181,276.985596 422.727386,269.044647 423.265503,261.172668 
	C423.494568,257.821014 425.526367,254.435226 427.294586,251.387344 
	C429.349030,247.846161 432.013275,244.658752 434.704956,241.158905 
	C434.997101,241.000031 434.967743,240.976059 434.967743,240.976059 
	C434.947540,249.576172 434.792450,258.178986 434.964142,266.775269 
	C435.049927,271.069275 435.083710,275.548004 436.308258,279.589569 
	C437.877686,284.769440 435.606781,286.203461 431.325317,286.690369 
	C429.517639,286.895996 427.690399,286.930054 425.435760,287.022217 
	C424.563995,286.412720 424.128540,285.823090 423.476868,285.066040 
z"/>
<path fill="#EDEEEE" opacity="1.000000" stroke="none" 
	d="
M383.068787,283.148987 
	C383.488312,288.737701 383.488312,294.193268 383.488312,299.960693 
	C377.321014,300.307648 378.216675,293.253876 374.533936,291.141693 
	C372.230591,293.594879 376.393158,298.583527 370.845612,300.331268 
	C370.845612,294.205902 370.845612,288.778351 370.845612,282.967163 
	C376.844788,283.024261 376.254120,289.540802 380.626282,292.041504 
	C380.626282,289.600922 380.420685,287.535126 380.717865,285.544403 
	C380.854980,284.625916 381.974915,283.854156 383.068787,283.148987 
z"/>
<path fill="#EDEEEE" opacity="1.000000" stroke="none" 
	d="
M401.155396,296.816833 
	C402.586273,296.206238 403.616425,295.616364 405.054657,294.792847 
	C403.133728,293.691223 401.887390,292.976471 400.641083,292.261719 
	C400.720642,291.907471 400.800201,291.553192 400.879761,291.198944 
	C403.134979,291.198944 405.390167,291.198944 407.739349,291.198944 
	C408.859222,295.452515 408.324280,298.812195 402.875610,299.679779 
	C398.244141,300.417267 394.216492,298.311890 393.015472,294.186584 
	C391.605377,289.342896 393.799164,284.349762 397.904449,283.059235 
	C402.250336,281.692993 405.626862,283.205963 407.610657,287.857788 
	C403.618835,288.299805 397.615295,281.599762 396.208649,290.400208 
	C395.694183,293.618927 396.896210,296.348724 401.155396,296.816833 
z"/>
<path fill="#DFE0E1" opacity="1.000000" stroke="none" 
	d="
M578.994629,290.448730 
	C579.039978,287.873413 579.168274,285.744354 579.322266,283.189636 
	C580.966919,283.093994 582.553345,283.001770 584.572388,282.846191 
	C587.124146,282.900574 589.243286,283.018341 591.362366,283.136108 
	C591.484558,283.654022 591.606750,284.171906 591.728943,284.689819 
	C589.948364,285.114502 588.142151,285.455994 586.395935,285.992371 
	C585.187683,286.363525 584.062073,287.003632 582.899536,287.523529 
	C584.024780,288.094421 585.098022,288.841400 586.288086,289.192871 
	C587.869873,289.660004 589.542786,289.818909 591.176514,290.110260 
	C591.102356,290.510986 591.028259,290.911713 590.954102,291.312408 
	C588.411682,291.980316 585.811829,292.499786 583.376038,293.443054 
	C582.897034,293.628540 583.051453,295.450073 582.836304,297.116577 
	C586.115173,297.116577 588.963867,297.116577 591.812561,297.116577 
	C591.848816,297.790649 591.885010,298.464722 591.921204,299.138763 
	C587.845703,299.353119 583.770142,299.567444 579.077698,299.814209 
	C579.077698,296.426300 579.077698,293.660645 578.994629,290.448730 
z"/>
<path fill="#FCFCFC" opacity="1.000000" stroke="none" 
	d="
M564.286011,299.592407 
	C561.707764,299.568024 559.423767,299.368927 556.973633,299.155304 
	C556.973633,293.810516 556.973633,288.695404 556.973633,283.597229 
	C567.774048,281.555542 571.284180,284.415894 570.193848,294.637695 
	C568.327698,296.477325 566.454041,297.947479 564.286011,299.592407 
M560.079102,286.834045 
	C560.079102,290.095184 560.079102,293.356323 560.079102,296.493896 
	C565.232788,297.412872 567.229187,295.595245 567.129761,290.948273 
	C567.028748,286.230103 564.460144,285.340546 560.079102,286.834045 
z"/>
<path fill="#EDEEEE" opacity="1.000000" stroke="none" 
	d="
M609.048828,286.903412 
	C610.249939,285.129639 611.419006,283.756714 612.588013,282.383820 
	C613.087219,282.739349 613.586365,283.094910 614.085571,283.450439 
	C612.441162,287.834442 610.870911,292.248871 609.095337,296.579132 
	C608.698059,297.548157 607.604614,298.841919 606.789673,298.872650 
	C605.806274,298.909698 604.234619,297.985718 603.861511,297.086182 
	C602.025452,292.659576 600.502319,288.103241 598.606628,282.869171 
	C605.478638,283.568909 603.057861,290.346741 606.535522,292.897217 
	C607.398193,290.952637 608.207458,289.128448 609.048828,286.903412 
z"/>
<path fill="#FDFDFD" opacity="1.000000" stroke="none" 
	d="
M490.861847,253.675735 
	C482.151855,253.675735 473.441895,253.675735 464.249542,253.675735 
	C465.767731,249.318634 467.263611,245.025589 468.956177,240.042542 
	C473.636688,226.703308 478.173309,214.072540 482.591858,201.400604 
	C489.189392,182.479492 495.703766,163.529388 502.253571,144.591644 
	C511.012024,144.323685 519.770691,143.947327 528.528625,143.962692 
	C529.364502,143.964157 530.478210,146.311249 530.986877,147.738983 
	C537.683716,166.534790 544.294922,185.361053 551.012207,204.542206 
	C548.584351,212.073196 546.238892,219.306412 543.495850,226.385559 
	C541.882751,230.548569 539.637878,234.466797 537.406372,238.687103 
	C537.135681,238.879089 536.964355,238.865097 536.945129,238.565002 
	C535.074585,235.935181 536.932617,230.947556 532.014282,230.890900 
	C520.768433,230.761353 509.520020,230.849960 497.906158,230.849960 
	C495.527100,238.558823 493.194489,246.117279 490.861847,253.675735 
M511.761230,207.554688 
	C516.521240,207.554688 521.281189,207.554688 526.757507,207.554688 
	C523.251465,196.301590 519.955627,185.723358 516.248779,173.825623 
	C512.527954,185.747345 509.207306,196.386826 505.721802,207.554520 
	C507.912079,207.554520 509.377808,207.554520 511.761230,207.554688 
z"/>
<path fill="#707274" opacity="1.000000" stroke="none" 
	d="
M461.870605,234.939835 
	C460.494904,248.431625 458.426636,262.056000 468.880920,273.433044 
	C464.001984,276.664856 457.142517,275.615723 454.268219,269.444580 
	C451.478760,263.455658 449.441223,256.561951 449.270813,250.008438 
	C448.687286,227.569656 454.886993,206.361862 462.930908,185.639175 
	C471.480682,163.613235 482.671997,143.163025 498.855255,125.298477 
	C504.644775,121.285126 509.943451,116.832695 516.007507,114.045723 
	C522.841980,110.904701 528.255432,113.957939 531.690491,121.645493 
	C517.308044,121.109596 509.394012,130.900909 500.825195,140.823486 
	C488.965240,155.746414 480.592896,171.915314 473.910095,188.969650 
	C468.099335,203.798477 462.910675,218.839005 461.870605,234.939835 
z"/>
<path fill="#3D3C3D" opacity="1.000000" stroke="none" 
	d="
M462.208801,235.013763 
	C462.910675,218.839005 468.099335,203.798477 473.910095,188.969650 
	C480.592896,171.915314 488.965240,155.746414 500.672058,141.119492 
	C501.337250,141.901581 501.720428,142.864639 502.178589,144.209671 
	C495.703766,163.529388 489.189392,182.479492 482.591858,201.400604 
	C478.173309,214.072540 473.636688,226.703308 468.971680,239.677399 
	C466.709290,238.364090 464.628174,236.725891 462.208801,235.013763 
z"/>
<path fill="#707274" opacity="1.000000" stroke="none" 
	d="
M507.744934,96.727119 
	C500.112000,104.299599 492.755371,111.645020 485.398743,118.990448 
	C486.243988,108.903870 485.224915,98.507805 494.825684,91.711609 
	C498.591400,89.045921 501.634064,85.376419 505.119659,82.292519 
	C508.843109,78.998169 510.807251,79.278206 513.493774,83.384140 
	C514.761597,85.321762 515.821106,87.395660 517.227844,89.848900 
	C514.113647,92.098717 511.067413,94.299393 507.744934,96.727119 
z"/>
<path fill="#393739" opacity="1.000000" stroke="none" 
	d="
M389.409790,171.662170 
	C396.566284,182.998474 391.143982,194.011108 378.292297,194.748978 
	C373.161133,195.043579 367.998962,194.797409 362.478485,194.797409 
	C362.478485,185.529556 362.478485,176.492630 362.478485,166.780533 
	C371.499207,168.130814 381.190186,163.920425 389.409790,171.662170 
z"/>
<path fill="#393739" opacity="1.000000" stroke="none" 
	d="
M674.075439,294.812317 
	C671.547363,297.496185 668.615234,297.769592 667.264893,294.896088 
	C666.261230,292.760193 666.450684,289.300842 667.529602,287.140625 
	C668.900330,284.396088 673.670288,285.501587 674.497559,288.686310 
	C674.962219,290.475311 674.382629,292.535553 674.075439,294.812317 
z"/>
<path fill="#2D2B2C" opacity="1.000000" stroke="none" 
	d="
M252.433273,208.969879 
	C259.806091,210.919983 262.729340,214.708496 262.123474,220.990265 
	C261.572571,226.702225 257.391968,230.238174 250.684143,230.371048 
	C244.248795,230.498535 237.808929,230.398605 231.108948,230.398605 
	C231.108948,223.158661 231.108948,216.278885 231.108948,208.939331 
	C238.150116,208.939331 245.072327,208.939331 252.433273,208.969879 
z"/>
<path fill="#2E2B2C" opacity="1.000000" stroke="none" 
	d="
M259.138550,174.464264 
	C259.508057,183.020737 256.229401,186.658875 248.314072,186.780777 
	C242.709641,186.867096 237.102814,186.797485 231.172928,186.797485 
	C231.172928,180.111343 231.172928,173.767685 231.172928,167.028824 
	C237.818710,167.028824 244.415390,166.758331 250.976059,167.127792 
	C255.072296,167.358459 257.988098,169.851456 259.138550,174.464264 
z"/>
<path fill="#353334" opacity="1.000000" stroke="none" 
	d="
M235.343582,286.042633 
	C240.725784,286.186035 243.380798,290.676849 240.673737,294.628448 
	C239.894485,295.765961 237.887665,296.785217 236.583572,296.635986 
	C235.294922,296.488495 233.170364,294.773254 233.191620,293.783966 
	C233.246338,291.237396 234.285721,288.711945 235.343582,286.042633 
z"/>
<path fill="#3D3C3D" opacity="1.000000" stroke="none" 
	d="
M490.969421,254.062347 
	C493.194489,246.117279 495.527100,238.558823 497.906158,230.849960 
	C509.520020,230.849960 520.768433,230.761353 532.014282,230.890900 
	C536.932617,230.947556 535.074585,235.935181 536.926514,238.648895 
	C535.494446,239.971359 533.749817,240.642258 532.678955,241.891022 
	C524.786255,251.095047 514.690063,256.049469 502.768311,256.785828 
	C498.933929,257.022705 494.977539,255.283920 490.969421,254.062347 
z"/>
<path fill="#707274" opacity="1.000000" stroke="none" 
	d="
M444.111511,173.138550 
	C445.984314,168.834076 447.652222,164.853897 449.512299,160.965668 
	C453.007477,153.659317 453.726257,153.335785 462.501953,154.428604 
	C456.210907,169.827759 449.942993,185.170227 443.669434,200.526535 
	C436.829285,195.460678 436.341553,194.151215 439.019958,186.511444 
	C440.555023,182.132721 442.327698,177.837280 444.111511,173.138550 
z"/>
<path fill="#707274" opacity="1.000000" stroke="none" 
	d="
M435.008789,241.014877 
	C435.020477,241.029724 435.236938,240.634079 435.236938,240.634079 
	C435.236938,240.634079 435.199921,240.916000 435.083832,240.946030 
	C434.967743,240.976059 434.997101,241.000031 435.008789,241.014877 
z"/>
<path fill="#464546" opacity="1.000000" stroke="none" 
	d="
M560.302246,286.437988 
	C564.460144,285.340546 567.028748,286.230103 567.129761,290.948273 
	C567.229187,295.595245 565.232788,297.412872 560.079102,296.493896 
	C560.079102,293.356323 560.079102,290.095184 560.302246,286.437988 
z"/>
<path fill="#464546" opacity="1.000000" stroke="none" 
	d="
M511.302399,207.554596 
	C509.377808,207.554520 507.912079,207.554520 505.721802,207.554520 
	C509.207306,196.386826 512.527954,185.747345 516.248779,173.825623 
	C519.955627,185.723358 523.251465,196.301590 526.757507,207.554688 
	C521.281189,207.554688 516.521240,207.554688 511.302399,207.554596 
z"/>
</svg>