<svg version="1.1" id="Layer_1" xmlns="http://www.w3.org/2000/svg" xmlns:xlink="http://www.w3.org/1999/xlink" x="0px" y="0px"
	 width="100%" viewBox="0 0 884 457" enable-background="new 0 0 884 457" xml:space="preserve">
<path fill="#FEFEFE" opacity="1.000000" stroke="none" 
	d="
M636.000000,458.000000 
	C424.000031,458.000000 212.500076,458.000000 1.000085,458.000000 
	C1.000057,305.666718 1.000057,153.333466 1.000028,1.000146 
	C295.666534,1.000098 590.333069,1.000098 884.999756,1.000049 
	C884.999817,153.333191 884.999817,305.666382 884.999878,457.999786 
	C802.166687,458.000000 719.333313,458.000000 636.000000,458.000000 
M496.083801,102.545784 
	C496.228912,102.210220 496.374023,101.874657 496.387787,100.846756 
	C490.175812,88.562485 480.465912,85.361931 467.729645,91.532913 
	C455.904388,97.262527 446.669373,106.251228 438.816681,116.426834 
	C400.473083,166.112854 377.797821,222.125137 372.411652,284.800415 
	C371.369202,296.931152 372.378021,309.151978 377.906097,320.404236 
	C383.202454,331.184845 392.884888,334.509521 403.583069,329.521484 
	C394.887848,322.113098 392.993073,318.828400 390.709229,306.916351 
	C388.097748,293.295563 389.372498,279.697968 391.481079,266.200562 
	C396.557129,233.708206 407.477142,203.086945 422.260468,173.835983 
	C432.886200,152.811478 445.159454,132.787598 462.393921,116.401131 
	C471.650940,107.599548 481.566437,99.516617 496.083801,102.545784 
M525.188843,225.994568 
	C514.905945,196.826523 504.563599,167.679092 494.427948,138.459961 
	C493.362335,135.388077 492.018005,134.376678 488.828888,134.439087 
	C478.668365,134.637878 468.492859,134.756348 458.341187,134.397003 
	C454.072784,134.245880 452.386078,135.737961 451.025635,139.645874 
	C437.577911,178.275772 423.912140,216.829788 410.318268,255.408844 
	C405.193726,269.952057 400.095459,284.504517 394.769501,299.666931 
	C406.974640,299.666931 418.574097,299.526886 430.166351,299.755157 
	C433.495972,299.820709 434.780579,298.585602 435.691650,295.601562 
	C438.410095,286.698029 441.539825,277.919769 444.236115,269.009979 
	C445.170807,265.921509 446.642517,264.981567 449.858429,265.033234 
	C462.685577,265.239410 475.518005,265.118256 488.348480,265.118225 
	C500.566132,265.118225 500.566132,265.118195 503.953522,277.671082 
	C500.305359,285.094299 497.086578,292.767639 492.933167,299.896484 
	C476.671051,327.808594 458.300140,354.184723 432.272461,373.992859 
	C414.886566,387.224335 396.324097,397.601654 373.520691,386.205627 
	C373.217072,386.684418 372.838684,387.066711 372.706482,387.520660 
	C368.523895,401.882019 364.219696,416.211700 360.381287,430.664978 
	C359.883942,432.537781 361.240662,435.573517 362.709076,437.187592 
	C371.471375,446.819031 382.349182,452.916870 395.128723,455.626923 
	C399.548767,456.564240 402.380249,455.195099 404.285736,450.958374 
	C408.313171,442.003723 412.711487,433.216705 416.839020,424.305969 
	C419.626190,418.288910 424.530609,415.364136 430.768646,414.186707 
	C434.189056,413.541138 437.619965,412.945801 441.026428,412.233459 
	C446.971130,410.990326 450.675232,413.019165 452.479156,418.863281 
	C453.752808,422.989471 454.763672,427.197296 455.869659,431.374573 
	C457.730652,438.403595 461.719299,440.205414 467.457245,435.616516 
	C479.136047,426.276459 490.722900,416.759064 501.604980,406.524994 
	C504.689575,403.624084 506.300781,398.083069 506.672028,393.594391 
	C507.438538,384.326935 506.542267,374.930603 507.095581,365.632843 
	C507.340363,361.519470 508.719055,357.077209 510.849579,353.549072 
	C516.521729,344.156067 522.895935,335.187805 528.963379,326.032349 
	C533.126953,319.749786 538.960510,316.425385 546.471130,316.118744 
	C550.465454,315.955658 554.472961,316.070068 558.462463,315.845978 
	C563.447083,315.566010 567.591370,313.606171 569.606934,308.745880 
	C578.267273,287.862640 586.915771,266.973663 595.380554,246.010849 
	C597.243164,241.398285 596.431091,236.835876 593.016418,232.949753 
	C589.720276,229.198532 586.415039,225.454544 583.171143,221.658417 
	C579.174622,216.981674 577.451294,211.786575 578.810669,205.515350 
	C581.272705,194.156540 583.659973,182.768311 585.560120,171.306412 
	C586.514221,165.551590 588.954163,161.086578 593.104980,157.135559 
	C599.257446,151.279266 605.107239,145.106140 611.137451,139.119904 
	C614.872253,135.412415 617.192383,130.954666 616.796753,125.739677 
	C615.641357,110.507736 614.372925,95.276031 612.670837,80.097832 
	C611.955750,73.721405 607.417725,72.004318 601.679260,75.224503 
	C597.905640,77.342110 594.261597,79.695938 590.448608,81.736687 
	C585.232117,84.528625 581.273743,83.299019 578.161621,78.282852 
	C576.059326,74.894257 574.040222,71.422966 571.614624,68.273079 
	C567.807373,63.328987 567.058899,58.192245 569.204590,52.350559 
	C572.587708,43.140259 575.773926,33.856758 578.969482,24.578777 
	C581.032288,18.589701 580.653564,16.457695 575.004578,13.469950 
	C568.298462,9.923158 561.347900,6.367854 554.072021,4.466598 
	C538.848389,0.488458 536.722900,1.589684 529.912292,13.678608 
	C523.816895,24.498117 518.043579,35.499111 512.265991,46.165527 
	C516.651794,48.590134 520.866028,50.331345 524.394836,52.984234 
	C533.869019,60.106766 538.706238,70.333015 541.829773,81.394798 
	C548.281189,104.242203 547.564636,127.488892 544.706360,150.697205 
	C541.794250,174.342209 536.231384,197.440567 528.541809,220.002411 
	C527.756470,222.306595 526.532532,224.461258 525.188843,225.994568 
M738.841553,183.499954 
	C738.841553,222.246353 738.841553,260.992737 738.841553,299.782227 
	C751.213806,299.782227 762.974365,299.782227 775.185425,299.782227 
	C775.185425,266.539856 775.185425,233.513428 775.185425,199.182190 
	C777.055725,201.584869 778.156982,202.938370 779.193237,204.340012 
	C801.864807,235.003555 824.519470,265.679596 847.225891,296.317261 
	C848.257751,297.709503 849.712891,299.774231 851.024475,299.815308 
	C860.599731,300.115021 870.188782,299.976746 879.562500,299.976746 
	C879.562500,244.567642 879.562500,189.846725 879.562500,135.242355 
	C867.419556,135.242355 855.644409,135.242355 843.132568,135.242355 
	C843.132568,166.561798 843.132568,197.643829 843.132568,229.812515 
	C841.229187,227.297211 840.116455,225.848099 839.025940,224.382416 
	C817.653870,195.657440 796.298523,166.919922 774.869507,138.237473 
	C773.877014,136.908997 772.251343,135.177307 770.884033,135.144165 
	C760.284485,134.887390 749.675842,135.002502 738.841553,135.002502 
	C738.841553,151.215912 738.841553,166.857925 738.841553,183.499954 
M8.158481,267.499969 
	C8.158481,278.096466 8.158481,288.692993 8.158481,299.226990 
	C9.243067,299.456726 9.716531,299.644623 10.190062,299.644806 
	C33.182831,299.652832 56.179535,299.900574 79.166992,299.547729 
	C94.340027,299.314880 108.118675,294.760010 118.396027,282.858948 
	C136.718185,261.642120 133.025909,231.468399 110.101128,213.435577 
	C110.165161,213.281754 110.193222,213.095047 110.298973,212.979385 
	C111.082932,212.122223 111.872787,211.270020 112.678345,210.433136 
	C122.954857,199.757019 126.306343,186.982712 123.486130,172.675415 
	C119.036072,150.099655 101.088203,135.326294 77.722748,135.076416 
	C55.398846,134.837677 33.070568,135.004791 10.744222,135.011154 
	C9.968671,135.011383 9.193173,135.201065 8.158486,135.336334 
	C8.158486,179.249817 8.158486,222.874878 8.158481,267.499969 
M230.468506,299.674438 
	C234.094025,299.674438 237.719543,299.674438 241.799835,299.674438 
	C241.799835,281.612000 241.799835,264.045502 241.799835,246.048065 
	C246.717514,246.048065 251.194275,246.296448 255.629532,245.974030 
	C259.590942,245.686066 261.792175,246.903458 263.607422,250.686829 
	C270.940674,265.970947 278.747681,281.027069 286.224396,296.243713 
	C287.503601,298.847107 288.996460,299.831757 291.931610,299.749237 
	C299.756134,299.529236 307.590973,299.674438 315.421692,299.674438 
	C319.777435,299.674438 324.133179,299.674438 329.131805,299.674438 
	C318.131348,279.018738 307.601959,259.247620 296.990204,239.321838 
	C297.908020,238.749924 298.586823,238.294373 299.294952,237.890366 
	C332.253052,219.087555 330.841888,173.557983 312.520264,153.393417 
	C300.328583,139.975372 284.790588,135.056900 267.251953,135.009293 
	C247.925186,134.956818 228.598175,134.989410 209.271286,135.011154 
	C208.017029,135.012558 206.763046,135.238297 205.670380,135.344055 
	C205.670380,190.281815 205.670380,244.828705 205.670380,299.674408 
	C213.853928,299.674408 221.666534,299.674408 230.468506,299.674438 
M626.001221,138.659744 
	C626.001221,192.391006 626.001221,246.122253 626.001221,299.649719 
	C638.747437,299.649719 650.815369,299.649719 662.655151,299.649719 
	C662.655151,244.578751 662.655151,189.857254 662.655151,135.001480 
	C651.324829,135.001480 640.337646,135.021591 629.350647,134.982697 
	C627.402222,134.975800 625.533691,134.821640 626.001221,138.659744 
M439.249084,58.752079 
	C436.213562,62.466171 431.659576,65.747292 430.451935,69.982582 
	C427.762115,79.415985 426.745148,89.326385 425.046478,99.042404 
	C439.620605,81.869392 454.732819,65.677238 474.758759,54.210201 
	C472.347534,50.187065 470.221771,46.468479 467.928528,42.856220 
	C464.847626,38.003204 461.500732,37.428680 457.326721,41.295395 
	C451.354858,46.827587 445.595154,52.588821 439.249084,58.752079 
M333.082733,328.492767 
	C333.314178,333.804779 333.472839,339.121338 333.802917,344.427216 
	C334.018707,347.896149 335.974213,350.408356 339.486084,350.003876 
	C344.641174,349.410095 349.704254,348.017120 354.916290,346.942017 
	C348.760101,324.214172 349.419250,301.980072 351.558411,279.571594 
	C349.287720,282.031158 347.755035,284.818787 345.660034,287.086975 
	C335.032013,298.593506 331.298096,312.166382 333.082733,328.492767 
M368.117737,210.697418 
	C376.204529,190.547348 384.291321,170.397293 392.391876,150.212830 
	C389.480713,150.212830 386.054504,150.190475 382.628723,150.218994 
	C379.103760,150.248367 376.631042,151.851639 375.277740,155.167191 
	C368.557037,171.632706 361.746918,188.062561 355.188263,204.592239 
	C354.482269,206.371414 354.438812,209.207687 355.405365,210.700912 
	C357.877960,214.520966 361.094116,217.859802 364.427216,221.892365 
	C365.809174,217.758133 366.861664,214.609558 368.117737,210.697418 
M771.896484,368.196014 
	C774.426331,368.582123 775.807678,367.856079 776.307312,364.988373 
	C777.000671,361.008606 778.311340,357.136383 779.357727,353.218109 
	C779.661316,353.270569 779.964966,353.323059 780.268616,353.375519 
	C780.268616,358.157440 780.268616,362.939362 780.268616,367.926361 
	C782.013428,367.926361 783.414429,367.926361 784.707214,367.926361 
	C784.707214,359.726746 784.707214,351.812469 784.707214,343.783936 
	C782.135071,343.783936 779.855042,343.783936 777.474854,343.783936 
	C776.129639,348.585052 774.834534,353.207092 773.539490,357.829102 
	C773.172852,357.777557 772.806152,357.725983 772.439514,357.674438 
	C771.159241,353.096100 769.878906,348.517792 768.589661,343.907410 
	C766.037659,343.907410 763.631897,343.907410 761.157349,343.907410 
	C761.157349,352.056427 761.157349,359.859253 761.157349,367.934998 
	C762.678101,367.934998 764.080383,367.934998 765.802734,367.934998 
	C765.802734,362.910980 765.802734,358.139984 765.802734,353.368988 
	C766.010986,353.335876 766.219299,353.302765 766.427551,353.269653 
	C768.010681,358.196777 769.593872,363.123932 771.896484,368.196014 
M93.903870,350.505615 
	C93.903870,353.087952 93.903870,355.670288 93.903870,358.481110 
	C87.782928,354.490570 88.669899,344.095795 79.131317,343.319427 
	C79.131317,352.023987 79.131317,359.931549 79.131317,368.194061 
	C80.749077,368.089569 82.138176,367.999847 83.862091,367.888489 
	C83.862091,363.105469 83.862091,358.717072 83.862091,354.123260 
	C89.817390,357.792847 88.880905,368.259705 98.600471,368.262817 
	C98.600471,360.713745 98.444572,353.911713 98.660645,347.121552 
	C98.784500,343.229034 96.958496,343.181458 93.903870,343.987122 
	C93.903870,345.965759 93.903870,347.777313 93.903870,350.505615 
M265.065613,361.493469 
	C269.332916,368.207825 269.332916,368.207825 273.844604,367.425812 
	C273.844604,359.327728 273.844604,351.234863 273.844604,342.931519 
	C272.317413,343.059906 271.071320,343.164642 269.191559,343.322662 
	C269.191559,348.362335 269.191559,353.135132 269.191559,357.907898 
	C266.466034,354.872375 264.724731,351.684570 262.745728,348.651825 
	C260.910370,345.839294 260.104950,341.255096 254.859329,343.427032 
	C254.859329,351.515656 254.859329,359.618591 254.859329,367.752258 
	C256.340240,367.752258 257.584595,367.752258 259.136993,367.752258 
	C259.136993,365.201080 259.136993,362.895355 259.136993,360.589630 
	C259.136993,358.335815 259.136993,356.082001 259.136993,353.828217 
	C259.428650,353.732727 259.720306,353.637238 260.011932,353.541779 
	C261.578613,355.978149 263.145294,358.414551 265.065613,361.493469 
M290.133392,364.271667 
	C295.257141,369.229156 301.739899,370.126282 307.901306,366.702057 
	C313.206635,363.753601 309.565063,359.103180 310.823639,355.181824 
	C306.778107,355.181824 303.504028,355.181824 300.243011,355.181824 
	C300.125610,358.627106 300.125610,358.627106 306.466949,360.129944 
	C304.900818,361.659546 303.859863,363.553864 302.689484,363.637512 
	C300.213806,363.814484 296.238037,363.866302 295.452515,362.494720 
	C293.803802,359.616028 292.936981,355.673431 293.355988,352.371521 
	C293.979797,347.456024 300.248413,345.613342 303.805481,349.148956 
	C306.062653,351.392548 307.731995,351.470184 311.173126,349.169983 
	C308.414459,347.104126 306.406433,344.829529 303.897491,343.883698 
	C298.835632,341.975464 293.826904,342.872864 290.373993,347.293762 
	C286.379761,352.407776 286.672455,358.065247 290.133392,364.271667 
M843.957886,365.855743 
	C845.819031,366.834686 847.680237,367.813629 850.197449,369.137665 
	C850.197449,359.772430 850.197449,351.989288 850.197449,343.985107 
	C848.684448,343.985107 847.345154,343.985107 845.588867,343.985107 
	C845.588867,349.038086 845.588867,353.723328 845.588867,359.605469 
	C843.006104,355.464691 841.148499,352.350708 839.153625,349.327301 
	C837.241760,346.429718 836.287598,341.800262 831.084717,344.174164 
	C831.084717,352.192505 831.084717,359.982452 831.084717,367.955872 
	C832.527588,367.955872 833.776917,367.955872 835.599243,367.955872 
	C835.599243,363.238892 835.599243,358.722961 835.599243,354.233704 
	C836.331848,354.233704 836.590454,354.170532 836.636536,354.242798 
	C838.959412,357.885986 841.264221,361.540741 843.957886,365.855743 
M692.828613,352.419128 
	C691.697937,360.652039 694.198120,366.068146 700.021667,368.001526 
	C706.744934,370.233643 713.408203,367.330292 715.582764,361.221222 
	C718.148804,354.012360 715.258179,346.282104 709.126526,343.955627 
	C702.094727,341.287628 695.868835,344.240448 692.828613,352.419128 
M578.445129,364.043274 
	C576.657532,364.043274 574.869934,364.043274 573.054688,364.043274 
	C573.054688,361.560669 573.054688,359.549286 573.054688,357.184906 
	C577.223572,357.184906 580.982605,357.184906 584.805359,357.184906 
	C584.805359,355.717438 584.805359,354.617462 584.805359,353.024872 
	C580.701843,353.024872 576.792847,353.024872 572.878418,353.024872 
	C572.878418,351.104340 572.878418,349.686035 572.878418,347.808960 
	C575.717285,347.808960 578.335571,347.880920 580.948059,347.788177 
	C583.429443,347.700073 587.168396,348.882355 585.603882,343.963806 
	C579.549072,343.963806 573.675354,343.963806 567.998779,343.963806 
	C567.998779,352.226501 567.998779,360.094482 567.998779,367.897034 
	C574.265503,367.897034 580.158691,367.897034 586.257690,367.897034 
	C586.531738,361.326599 581.615112,365.205048 578.445129,364.043274 
M62.373543,346.102600 
	C60.295216,345.143463 58.300468,343.698914 56.121593,343.323761 
	C51.217281,342.479370 46.714031,343.725769 44.067513,348.290009 
	C41.209892,353.218323 41.135178,358.498779 44.035126,363.453888 
	C46.699394,368.006317 51.158161,369.236298 56.084862,368.517120 
	C65.866142,367.089203 69.254807,356.073181 62.373543,346.102600 
M649.556885,347.302612 
	C649.615356,346.194855 649.673828,345.087097 649.734863,343.930725 
	C643.533142,343.930725 637.644348,343.930725 631.822205,343.930725 
	C631.822205,352.162659 631.822205,360.040161 631.822205,367.928009 
	C638.090515,367.928009 644.005615,367.928009 650.028809,367.928009 
	C650.028809,366.695129 650.128357,364.899323 650.014465,364.885681 
	C645.558105,364.351837 641.082275,363.980377 636.409485,363.570160 
	C636.525208,361.342926 636.624390,359.433624 636.741028,357.187927 
	C641.096375,357.187927 644.860291,357.187927 648.691711,357.187927 
	C648.691711,355.720428 648.691711,354.626221 648.691711,353.041138 
	C644.561035,353.041138 640.645386,353.041138 636.717163,353.041138 
	C636.717163,351.124329 636.717163,349.701385 636.717163,347.708435 
	C640.888794,347.708435 644.835876,347.708435 649.556885,347.302612 
M159.279160,355.393250 
	C159.273376,356.389862 159.238525,357.387329 159.267120,358.382965 
	C159.363434,361.737335 158.667953,364.422546 154.469772,364.289246 
	C150.395142,364.159851 149.697266,361.496399 149.735565,358.153076 
	C149.785034,353.835297 149.740341,349.516052 149.691681,345.197937 
	C149.686691,344.754272 149.378433,344.313995 149.096176,343.569611 
	C147.701126,343.667114 146.312164,343.764160 144.863449,343.865417 
	C144.863449,349.881622 144.626343,355.520996 144.933090,361.130615 
	C145.214920,366.284637 148.685074,368.758423 154.684555,368.741180 
	C160.465347,368.724548 163.794846,366.360046 164.066147,361.366516 
	C164.379166,355.604950 164.138901,349.813324 164.138901,343.543732 
	C162.369217,343.673645 160.858185,343.784607 159.280487,343.900421 
	C159.280487,347.794861 159.280487,351.115143 159.279160,355.393250 
M125.510963,368.226685 
	C129.461334,367.316711 131.533249,364.733185 131.528351,360.782684 
	C131.523239,356.674561 128.831253,354.657410 125.176651,353.513184 
	C122.385406,352.639282 119.663910,351.542603 116.186920,350.282440 
	C119.876518,346.616730 122.337280,346.549591 125.275734,349.106720 
	C126.548515,350.214325 128.597275,350.430237 130.968597,351.298279 
	C128.981995,344.112915 123.056602,341.184906 117.122780,343.980927 
	C115.088760,344.939362 112.788185,347.666321 112.671448,349.703491 
	C112.554550,351.743408 114.584984,354.509064 116.459023,355.896698 
	C118.469658,357.385498 121.465149,357.474548 123.887207,358.510284 
	C124.915527,358.950073 126.406937,360.484436 126.229134,361.100006 
	C125.890808,362.271393 124.470268,363.996857 123.558632,363.961395 
	C121.451500,363.879517 119.311882,363.045685 117.314766,362.208344 
	C115.620522,361.498016 114.107521,360.355408 111.454765,358.771454 
	C113.225929,367.399139 116.499893,369.363251 125.510963,368.226685 
M554.175110,353.217194 
	C552.915161,344.285400 547.880005,342.054352 534.114197,344.318298 
	C534.114197,352.206573 534.114197,360.080170 534.114197,367.919312 
	C550.864563,369.177673 554.580322,366.564636 554.175110,353.217194 
M811.378296,364.048218 
	C808.946838,364.048218 806.515442,364.048218 804.149536,364.048218 
	C804.149536,361.466827 804.149536,359.522217 804.149536,357.249939 
	C808.198669,357.249939 811.985107,357.249939 816.121033,357.249939 
	C815.990967,355.695740 815.891357,354.505127 815.760010,352.935425 
	C811.609131,352.935425 807.851257,352.935425 803.817017,352.935425 
	C803.949341,350.952332 804.052368,349.408417 804.168579,347.666992 
	C808.677979,347.666992 812.651123,347.666992 816.784790,347.666992 
	C816.784790,346.228973 816.784790,345.031250 816.784790,343.864075 
	C810.691711,343.864075 804.925537,343.864075 799.166016,343.864075 
	C799.166016,352.069855 799.166016,359.989319 799.166016,368.194763 
	C804.590149,368.194763 809.727905,368.173126 814.865295,368.202240 
	C818.398743,368.222260 818.049927,366.443420 816.984863,364.048218 
	C815.295532,364.048218 813.799500,364.048218 811.378296,364.048218 
M8.784711,359.594971 
	C11.180458,367.158142 16.903172,370.652283 23.523853,367.865784 
	C26.178186,366.748657 28.112167,363.919922 31.159609,361.158295 
	C28.104532,360.177368 26.757698,359.744904 25.363775,359.297333 
	C23.770552,362.682190 21.879028,365.158173 17.956137,364.026398 
	C14.095211,362.912476 13.836926,359.617615 13.661105,356.405945 
	C13.589196,355.092377 13.717703,353.726227 14.009125,352.441681 
	C15.176864,347.294250 19.807783,345.975403 23.873169,349.291168 
	C25.212692,350.383698 27.319454,350.535583 30.101122,351.457520 
	C27.880535,344.588257 23.980911,342.889374 19.089748,343.148743 
	C11.579226,343.547058 7.766567,349.397430 8.784711,359.594971 
M739.879028,343.631439 
	C736.421631,343.631439 732.964172,343.631439 729.153381,343.631439 
	C729.153381,348.076996 729.153320,352.044098 729.153320,356.011230 
	C729.153320,359.959412 729.153381,363.907623 729.153381,367.888092 
	C731.102051,367.888092 732.495056,367.888092 734.277893,367.888092 
	C734.277893,364.829620 734.277893,362.070740 734.277893,359.365814 
	C745.770691,358.105194 748.093323,356.739685 748.075134,351.258575 
	C748.059143,346.433716 745.559082,343.889709 739.879028,343.631439 
M610.661011,368.077576 
	C613.786072,360.116486 616.911194,352.155426 620.099548,344.033203 
	C614.769409,343.473938 614.762451,343.471558 613.403015,347.453094 
	C611.904297,351.842651 610.420227,356.237213 608.607361,361.579681 
	C606.719421,356.032532 605.015625,351.685089 603.786377,347.207397 
	C602.794006,343.592651 600.817993,342.823486 597.219238,344.108032 
	C599.692200,351.019623 602.383850,357.798309 604.487610,364.754761 
	C605.453247,367.948273 607.177063,368.546021 610.661011,368.077576 
M216.616974,364.006042 
	C216.616974,358.739563 216.616974,353.473114 216.616974,348.036652 
	C219.269409,347.882599 221.373703,347.760376 223.478012,347.638153 
	C223.781082,347.255859 224.084137,346.873566 224.387207,346.491272 
	C223.360565,345.508728 222.374451,343.731598 221.300491,343.676788 
	C215.701233,343.391205 210.079651,343.543640 204.352066,343.543640 
	C203.365479,350.669983 209.584610,346.127777 211.603607,349.162689 
	C211.603607,354.932617 211.603607,361.360962 211.603607,367.899414 
	C214.451477,368.321320 217.133957,369.171509 216.616974,364.006042 
M663.588135,359.395996 
	C663.588135,362.179077 663.588135,364.962158 663.588135,367.978607 
	C669.535095,367.978607 675.097900,367.978607 680.935547,367.978607 
	C680.866394,366.633270 680.804504,365.429535 680.726318,363.909454 
	C676.546814,363.909454 672.779541,363.909454 668.487915,363.909454 
	C668.487915,357.055573 668.487915,350.530792 668.487915,343.690338 
	C666.523010,343.877350 665.126526,344.010254 663.588257,344.156677 
	C663.588257,349.163513 663.588257,353.795624 663.588135,359.395996 
M875.142212,361.450623 
	C875.142212,356.999207 875.142212,352.547760 875.142212,348.153595 
	C882.511353,347.458679 882.511353,347.458679 881.668152,343.739258 
	C875.560303,343.739258 869.436768,343.739258 863.208679,343.739258 
	C861.760742,350.787506 868.169373,346.113281 870.169128,348.932617 
	C870.169128,354.798157 870.169128,361.232758 870.169128,367.924164 
	C871.925171,367.924164 873.314636,367.924164 875.142212,367.924164 
	C875.142212,366.025421 875.142212,364.226959 875.142212,361.450623 
M183.740250,359.430603 
	C183.740250,354.333038 183.740250,349.235474 183.740250,343.811371 
	C181.732910,343.916595 180.331680,343.990051 178.909119,344.064606 
	C178.909119,352.236145 178.909119,360.020752 178.909119,367.923523 
	C184.666412,367.923523 190.238617,367.923523 196.158249,367.923523 
	C195.937653,366.420197 195.764099,365.237579 195.588242,364.039185 
	C192.510025,364.039185 189.833313,363.844482 187.197845,364.090881 
	C184.226486,364.368622 183.321152,363.113373 183.740250,359.430603 
M240.998718,364.299683 
	C240.998718,357.336884 240.998718,350.374115 240.998718,343.376587 
	C239.102188,343.376587 237.607407,343.376587 236.195816,343.376587 
	C236.195816,351.701477 236.195816,359.652618 236.195816,368.297913 
	C238.187546,367.330505 241.365509,369.772614 240.998718,364.299683 
z"/>
<path fill="#A5A7A9" opacity="1.000000" stroke="none" 
	d="
M525.512146,226.685303 
	C526.532532,224.461258 527.756470,222.306595 528.541809,220.002411 
	C536.231384,197.440567 541.794250,174.342209 544.706360,150.697205 
	C547.564636,127.488892 548.281189,104.242203 541.829773,81.394798 
	C538.706238,70.333015 533.869019,60.106766 524.394836,52.984234 
	C520.866028,50.331345 516.651794,48.590134 512.265991,46.165527 
	C518.043579,35.499111 523.816895,24.498117 529.912292,13.678608 
	C536.722900,1.589684 538.848389,0.488458 554.072021,4.466598 
	C561.347900,6.367854 568.298462,9.923158 575.004578,13.469950 
	C580.653564,16.457695 581.032288,18.589701 578.969482,24.578777 
	C575.773926,33.856758 572.587708,43.140259 569.204590,52.350559 
	C567.058899,58.192245 567.807373,63.328987 571.614624,68.273079 
	C574.040222,71.422966 576.059326,74.894257 578.161621,78.282852 
	C581.273743,83.299019 585.232117,84.528625 590.448608,81.736687 
	C594.261597,79.695938 597.905640,77.342110 601.679260,75.224503 
	C607.417725,72.004318 611.955750,73.721405 612.670837,80.097832 
	C614.372925,95.276031 615.641357,110.507736 616.796753,125.739677 
	C617.192383,130.954666 614.872253,135.412415 611.137451,139.119904 
	C605.107239,145.106140 599.257446,151.279266 593.104980,157.135559 
	C588.954163,161.086578 586.514221,165.551590 585.560120,171.306412 
	C583.659973,182.768311 581.272705,194.156540 578.810669,205.515350 
	C577.451294,211.786575 579.174622,216.981674 583.171143,221.658417 
	C586.415039,225.454544 589.720276,229.198532 593.016418,232.949753 
	C596.431091,236.835876 597.243164,241.398285 595.380554,246.010849 
	C586.915771,266.973663 578.267273,287.862640 569.606934,308.745880 
	C567.591370,313.606171 563.447083,315.566010 558.462463,315.845978 
	C554.472961,316.070068 550.465454,315.955658 546.471130,316.118744 
	C538.960510,316.425385 533.126953,319.749786 528.963379,326.032349 
	C522.895935,335.187805 516.521729,344.156067 510.849579,353.549072 
	C508.719055,357.077209 507.340363,361.519470 507.095581,365.632843 
	C506.542267,374.930603 507.438538,384.326935 506.672028,393.594391 
	C506.300781,398.083069 504.689575,403.624084 501.604980,406.524994 
	C490.722900,416.759064 479.136047,426.276459 467.457245,435.616516 
	C461.719299,440.205414 457.730652,438.403595 455.869659,431.374573 
	C454.763672,427.197296 453.752808,422.989471 452.479156,418.863281 
	C450.675232,413.019165 446.971130,410.990326 441.026428,412.233459 
	C437.619965,412.945801 434.189056,413.541138 430.768646,414.186707 
	C424.530609,415.364136 419.626190,418.288910 416.839020,424.305969 
	C412.711487,433.216705 408.313171,442.003723 404.285736,450.958374 
	C402.380249,455.195099 399.548767,456.564240 395.128723,455.626923 
	C382.349182,452.916870 371.471375,446.819031 362.709076,437.187592 
	C361.240662,435.573517 359.883942,432.537781 360.381287,430.664978 
	C364.219696,416.211700 368.523895,401.882019 372.706482,387.520660 
	C372.838684,387.066711 373.217072,386.684418 373.520691,386.205627 
	C396.324097,397.601654 414.886566,387.224335 432.272461,373.992859 
	C458.300140,354.184723 476.671051,327.808594 492.933167,299.896484 
	C497.086578,292.767639 500.305359,285.094299 504.357849,277.268311 
	C510.523987,264.070068 516.399048,251.323624 521.976807,238.448364 
	C523.593201,234.717102 524.357300,230.616562 525.512146,226.685303 
z"/>
<path fill="#242021" opacity="1.000000" stroke="none" 
	d="
M738.841553,182.999939 
	C738.841553,166.857925 738.841553,151.215912 738.841553,135.002502 
	C749.675842,135.002502 760.284485,134.887390 770.884033,135.144165 
	C772.251343,135.177307 773.877014,136.908997 774.869507,138.237473 
	C796.298523,166.919922 817.653870,195.657440 839.025940,224.382416 
	C840.116455,225.848099 841.229187,227.297211 843.132568,229.812515 
	C843.132568,197.643829 843.132568,166.561798 843.132568,135.242355 
	C855.644409,135.242355 867.419556,135.242355 879.562500,135.242355 
	C879.562500,189.846725 879.562500,244.567642 879.562500,299.976746 
	C870.188782,299.976746 860.599731,300.115021 851.024475,299.815308 
	C849.712891,299.774231 848.257751,297.709503 847.225891,296.317261 
	C824.519470,265.679596 801.864807,235.003555 779.193237,204.340012 
	C778.156982,202.938370 777.055725,201.584869 775.185425,199.182190 
	C775.185425,233.513428 775.185425,266.539856 775.185425,299.782227 
	C762.974365,299.782227 751.213806,299.782227 738.841553,299.782227 
	C738.841553,260.992737 738.841553,222.246353 738.841553,182.999939 
z"/>
<path fill="#252122" opacity="1.000000" stroke="none" 
	d="
M8.158484,266.999939 
	C8.158486,222.874878 8.158486,179.249817 8.158486,135.336334 
	C9.193173,135.201065 9.968671,135.011383 10.744222,135.011154 
	C33.070568,135.004791 55.398846,134.837677 77.722748,135.076416 
	C101.088203,135.326294 119.036072,150.099655 123.486130,172.675415 
	C126.306343,186.982712 122.954857,199.757019 112.678345,210.433136 
	C111.872787,211.270020 111.082932,212.122223 110.298973,212.979385 
	C110.193222,213.095047 110.165161,213.281754 110.101128,213.435577 
	C133.025909,231.468399 136.718185,261.642120 118.396027,282.858948 
	C108.118675,294.760010 94.340027,299.314880 79.166992,299.547729 
	C56.179535,299.900574 33.182831,299.652832 10.190062,299.644806 
	C9.716531,299.644623 9.243067,299.456726 8.158481,299.226990 
	C8.158481,288.692993 8.158481,278.096466 8.158484,266.999939 
M44.670540,247.501984 
	C44.670540,253.114456 44.670540,258.726929 44.670540,264.603333 
	C56.071453,264.603333 67.030907,265.143799 77.908379,264.431885 
	C86.569283,263.865021 91.992523,256.945953 91.998466,248.535080 
	C92.004425,240.102890 86.635956,233.205521 77.943840,232.622223 
	C67.068161,231.892395 56.106308,232.446747 44.670502,232.446747 
	C44.670502,237.282791 44.670502,241.893433 44.670540,247.501984 
M46.806278,169.298889 
	C46.096607,170.167053 44.785225,171.024979 44.770222,171.904984 
	C44.617970,180.834885 44.677265,189.768387 44.677265,198.515839 
	C45.416397,198.835846 45.707577,199.071243 45.999805,199.072540 
	C54.483112,199.110489 62.966808,199.176392 71.449852,199.130081 
	C81.617599,199.074585 87.763336,193.504517 87.837540,184.405579 
	C87.913010,175.150864 81.619583,169.389984 71.214462,169.304352 
	C63.396370,169.240005 55.577324,169.290771 46.806278,169.298889 
z"/>
<path fill="#252223" opacity="1.000000" stroke="none" 
	d="
M229.973816,299.674438 
	C221.666534,299.674408 213.853928,299.674408 205.670380,299.674408 
	C205.670380,244.828705 205.670380,190.281815 205.670380,135.344055 
	C206.763046,135.238297 208.017029,135.012558 209.271286,135.011154 
	C228.598175,134.989410 247.925186,134.956818 267.251953,135.009293 
	C284.790588,135.056900 300.328583,139.975372 312.520264,153.393417 
	C330.841888,173.557983 332.253052,219.087555 299.294952,237.890366 
	C298.586823,238.294373 297.908020,238.749924 296.990204,239.321838 
	C307.601959,259.247620 318.131348,279.018738 329.131805,299.674438 
	C324.133179,299.674438 319.777435,299.674438 315.421692,299.674438 
	C307.590973,299.674438 299.756134,299.529236 291.931610,299.749237 
	C288.996460,299.831757 287.503601,298.847107 286.224396,296.243713 
	C278.747681,281.027069 270.940674,265.970947 263.607422,250.686829 
	C261.792175,246.903458 259.590942,245.686066 255.629532,245.974030 
	C251.194275,246.296448 246.717514,246.048065 241.799835,246.048065 
	C241.799835,264.045502 241.799835,281.612000 241.799835,299.674438 
	C237.719543,299.674438 234.094025,299.674438 229.973816,299.674438 
M253.516266,169.294449 
	C249.736755,169.294449 245.957245,169.294449 242.188644,169.294449 
	C242.188644,183.574585 242.188644,197.276642 242.188644,211.123993 
	C250.199463,211.123993 257.845398,211.130020 265.491333,211.116638 
	C266.488159,211.114899 267.488861,211.053009 268.480927,210.951889 
	C279.826630,209.795578 287.164429,202.146286 287.621674,191.015289 
	C288.073608,180.013458 281.098175,171.456741 269.928711,169.954346 
	C264.849121,169.271088 259.648651,169.486633 253.516266,169.294449 
z"/>
<path fill="#252122" opacity="1.000000" stroke="none" 
	d="
M525.350464,226.339935 
	C524.357300,230.616562 523.593201,234.717102 521.976807,238.448364 
	C516.399048,251.323624 510.523987,264.070068 504.422058,276.886719 
	C500.566132,265.118195 500.566132,265.118225 488.348480,265.118225 
	C475.518005,265.118256 462.685577,265.239410 449.858429,265.033234 
	C446.642517,264.981567 445.170807,265.921509 444.236115,269.009979 
	C441.539825,277.919769 438.410095,286.698029 435.691650,295.601562 
	C434.780579,298.585602 433.495972,299.820709 430.166351,299.755157 
	C418.574097,299.526886 406.974640,299.666931 394.769501,299.666931 
	C400.095459,284.504517 405.193726,269.952057 410.318268,255.408844 
	C423.912140,216.829788 437.577911,178.275772 451.025635,139.645874 
	C452.386078,135.737961 454.072784,134.245880 458.341187,134.397003 
	C468.492859,134.756348 478.668365,134.637878 488.828888,134.439087 
	C492.018005,134.376678 493.362335,135.388077 494.427948,138.459961 
	C504.563599,167.679092 514.905945,196.826523 525.350464,226.339935 
M472.011536,182.811081 
	C467.136414,198.441605 462.261292,214.072144 457.315979,229.927673 
	C468.040955,229.927673 478.077820,229.927673 488.632904,229.927673 
	C483.609680,213.801300 478.733368,198.122421 473.785034,182.466324 
	C473.702118,182.203964 472.744659,182.218048 472.011536,182.811081 
z"/>
<path fill="#231F20" opacity="1.000000" stroke="none" 
	d="
M626.001465,138.175323 
	C625.533691,134.821640 627.402222,134.975800 629.350647,134.982697 
	C640.337646,135.021591 651.324829,135.001480 662.655151,135.001480 
	C662.655151,189.857254 662.655151,244.578751 662.655151,299.649719 
	C650.815369,299.649719 638.747437,299.649719 626.001221,299.649719 
	C626.001221,246.122253 626.001221,192.391006 626.001465,138.175323 
z"/>
<path fill="#737577" opacity="1.000000" stroke="none" 
	d="
M495.856995,102.156204 
	C481.566437,99.516617 471.650940,107.599548 462.393921,116.401131 
	C445.159454,132.787598 432.886200,152.811478 422.260468,173.835983 
	C407.477142,203.086945 396.557129,233.708206 391.481079,266.200562 
	C389.372498,279.697968 388.097748,293.295563 390.709229,306.916351 
	C392.993073,318.828400 394.887848,322.113098 403.583069,329.521484 
	C392.884888,334.509521 383.202454,331.184845 377.906097,320.404236 
	C372.378021,309.151978 371.369202,296.931152 372.411652,284.800415 
	C377.797821,222.125137 400.473083,166.112854 438.816681,116.426834 
	C446.669373,106.251228 455.904388,97.262527 467.729645,91.532913 
	C480.465912,85.361931 490.175812,88.562485 496.281586,101.340393 
	C496.175385,101.834023 495.856995,102.156204 495.856995,102.156204 
z"/>
<path fill="#737577" opacity="1.000000" stroke="none" 
	d="
M439.496948,58.502167 
	C445.595154,52.588821 451.354858,46.827587 457.326721,41.295395 
	C461.500732,37.428680 464.847626,38.003204 467.928528,42.856220 
	C470.221771,46.468479 472.347534,50.187065 474.758759,54.210201 
	C454.732819,65.677238 439.620605,81.869392 425.046478,99.042404 
	C426.745148,89.326385 427.762115,79.415985 430.451935,69.982582 
	C431.659576,65.747292 436.213562,62.466171 439.496948,58.502167 
z"/>
<path fill="#747678" opacity="1.000000" stroke="none" 
	d="
M333.082642,327.994263 
	C331.298096,312.166382 335.032013,298.593506 345.660034,287.086975 
	C347.755035,284.818787 349.287720,282.031158 351.558411,279.571594 
	C349.419250,301.980072 348.760101,324.214172 354.916290,346.942017 
	C349.704254,348.017120 344.641174,349.410095 339.486084,350.003876 
	C335.974213,350.408356 334.018707,347.896149 333.802917,344.427216 
	C333.472839,339.121338 333.314178,333.804779 333.082642,327.994263 
z"/>
<path fill="#747678" opacity="1.000000" stroke="none" 
	d="
M368.015930,211.079193 
	C366.861664,214.609558 365.809174,217.758133 364.427216,221.892365 
	C361.094116,217.859802 357.877960,214.520966 355.405365,210.700912 
	C354.438812,209.207687 354.482269,206.371414 355.188263,204.592239 
	C361.746918,188.062561 368.557037,171.632706 375.277740,155.167191 
	C376.631042,151.851639 379.103760,150.248367 382.628723,150.218994 
	C386.054504,150.190475 389.480713,150.212830 392.391876,150.212830 
	C384.291321,170.397293 376.204529,190.547348 368.015930,211.079193 
z"/>
<path fill="#312E30" opacity="1.000000" stroke="none" 
	d="
M771.536743,368.123535 
	C769.593872,363.123932 768.010681,358.196777 766.427551,353.269653 
	C766.219299,353.302765 766.010986,353.335876 765.802734,353.368988 
	C765.802734,358.139984 765.802734,362.910980 765.802734,367.934998 
	C764.080383,367.934998 762.678101,367.934998 761.157349,367.934998 
	C761.157349,359.859253 761.157349,352.056427 761.157349,343.907410 
	C763.631897,343.907410 766.037659,343.907410 768.589661,343.907410 
	C769.878906,348.517792 771.159241,353.096100 772.439514,357.674438 
	C772.806152,357.725983 773.172852,357.777557 773.539490,357.829102 
	C774.834534,353.207092 776.129639,348.585052 777.474854,343.783936 
	C779.855042,343.783936 782.135071,343.783936 784.707214,343.783936 
	C784.707214,351.812469 784.707214,359.726746 784.707214,367.926361 
	C783.414429,367.926361 782.013428,367.926361 780.268616,367.926361 
	C780.268616,362.939362 780.268616,358.157440 780.268616,353.375519 
	C779.964966,353.323059 779.661316,353.270569 779.357727,353.218109 
	C778.311340,357.136383 777.000671,361.008606 776.307312,364.988373 
	C775.807678,367.856079 774.426331,368.582123 771.536743,368.123535 
z"/>
<path fill="#323031" opacity="1.000000" stroke="none" 
	d="
M93.903870,350.047241 
	C93.903870,347.777313 93.903870,345.965759 93.903870,343.987122 
	C96.958496,343.181458 98.784500,343.229034 98.660645,347.121552 
	C98.444572,353.911713 98.600471,360.713745 98.600471,368.262817 
	C88.880905,368.259705 89.817390,357.792847 83.862091,354.123260 
	C83.862091,358.717072 83.862091,363.105469 83.862091,367.888489 
	C82.138176,367.999847 80.749077,368.089569 79.131317,368.194061 
	C79.131317,359.931549 79.131317,352.023987 79.131317,343.319427 
	C88.669899,344.095795 87.782928,354.490570 93.903870,358.481110 
	C93.903870,355.670288 93.903870,353.087952 93.903870,350.047241 
z"/>
<path fill="#272324" opacity="1.000000" stroke="none" 
	d="
M264.888794,361.172211 
	C263.145294,358.414551 261.578613,355.978149 260.011932,353.541779 
	C259.720306,353.637238 259.428650,353.732727 259.136993,353.828217 
	C259.136993,356.082001 259.136993,358.335815 259.136993,360.589630 
	C259.136993,362.895355 259.136993,365.201080 259.136993,367.752258 
	C257.584595,367.752258 256.340240,367.752258 254.859329,367.752258 
	C254.859329,359.618591 254.859329,351.515656 254.859329,343.427032 
	C260.104950,341.255096 260.910370,345.839294 262.745728,348.651825 
	C264.724731,351.684570 266.466034,354.872375 269.191559,357.907898 
	C269.191559,353.135132 269.191559,348.362335 269.191559,343.322662 
	C271.071320,343.164642 272.317413,343.059906 273.844604,342.931519 
	C273.844604,351.234863 273.844604,359.327728 273.844604,367.425812 
	C269.332916,368.207825 269.332916,368.207825 264.888794,361.172211 
z"/>
<path fill="#312E30" opacity="1.000000" stroke="none" 
	d="
M289.910767,363.965515 
	C286.672455,358.065247 286.379761,352.407776 290.373993,347.293762 
	C293.826904,342.872864 298.835632,341.975464 303.897491,343.883698 
	C306.406433,344.829529 308.414459,347.104126 311.173126,349.169983 
	C307.731995,351.470184 306.062653,351.392548 303.805481,349.148956 
	C300.248413,345.613342 293.979797,347.456024 293.355988,352.371521 
	C292.936981,355.673431 293.803802,359.616028 295.452515,362.494720 
	C296.238037,363.866302 300.213806,363.814484 302.689484,363.637512 
	C303.859863,363.553864 304.900818,361.659546 306.466949,360.129944 
	C300.125610,358.627106 300.125610,358.627106 300.243011,355.181824 
	C303.504028,355.181824 306.778107,355.181824 310.823639,355.181824 
	C309.565063,359.103180 313.206635,363.753601 307.901306,366.702057 
	C301.739899,370.126282 295.257141,369.229156 289.910767,363.965515 
z"/>
<path fill="#272324" opacity="1.000000" stroke="none" 
	d="
M843.764404,365.524994 
	C841.264221,361.540741 838.959412,357.885986 836.636536,354.242798 
	C836.590454,354.170532 836.331848,354.233704 835.599243,354.233704 
	C835.599243,358.722961 835.599243,363.238892 835.599243,367.955872 
	C833.776917,367.955872 832.527588,367.955872 831.084717,367.955872 
	C831.084717,359.982452 831.084717,352.192505 831.084717,344.174164 
	C836.287598,341.800262 837.241760,346.429718 839.153625,349.327301 
	C841.148499,352.350708 843.006104,355.464691 845.588867,359.605469 
	C845.588867,353.723328 845.588867,349.038086 845.588867,343.985107 
	C847.345154,343.985107 848.684448,343.985107 850.197449,343.985107 
	C850.197449,351.989288 850.197449,359.772430 850.197449,369.137665 
	C847.680237,367.813629 845.819031,366.834686 843.764404,365.524994 
z"/>
<path fill="#312E30" opacity="1.000000" stroke="none" 
	d="
M692.878967,352.028320 
	C695.868835,344.240448 702.094727,341.287628 709.126526,343.955627 
	C715.258179,346.282104 718.148804,354.012360 715.582764,361.221222 
	C713.408203,367.330292 706.744934,370.233643 700.021667,368.001526 
	C694.198120,366.068146 691.697937,360.652039 692.878967,352.028320 
M697.801147,353.823334 
	C697.560974,361.726685 700.964233,365.774841 706.447266,363.964111 
	C711.025818,362.452209 711.239868,358.543549 711.088867,354.628326 
	C710.947815,350.969604 709.418213,348.084961 705.490051,347.576111 
	C701.505981,347.060028 698.818298,348.875763 697.801147,353.823334 
z"/>
<path fill="#2E2B2D" opacity="1.000000" stroke="none" 
	d="
M578.914551,364.043274 
	C581.615112,365.205048 586.531738,361.326599 586.257690,367.897034 
	C580.158691,367.897034 574.265503,367.897034 567.998779,367.897034 
	C567.998779,360.094482 567.998779,352.226501 567.998779,343.963806 
	C573.675354,343.963806 579.549072,343.963806 585.603882,343.963806 
	C587.168396,348.882355 583.429443,347.700073 580.948059,347.788177 
	C578.335571,347.880920 575.717285,347.808960 572.878418,347.808960 
	C572.878418,349.686035 572.878418,351.104340 572.878418,353.024872 
	C576.792847,353.024872 580.701843,353.024872 584.805359,353.024872 
	C584.805359,354.617462 584.805359,355.717438 584.805359,357.184906 
	C580.982605,357.184906 577.223572,357.184906 573.054688,357.184906 
	C573.054688,359.549286 573.054688,361.560669 573.054688,364.043274 
	C574.869934,364.043274 576.657532,364.043274 578.914551,364.043274 
z"/>
<path fill="#312E30" opacity="1.000000" stroke="none" 
	d="
M62.641891,346.370178 
	C69.254807,356.073181 65.866142,367.089203 56.084862,368.517120 
	C51.158161,369.236298 46.699394,368.006317 44.035126,363.453888 
	C41.135178,358.498779 41.209892,353.218323 44.067513,348.290009 
	C46.714031,343.725769 51.217281,342.479370 56.121593,343.323761 
	C58.300468,343.698914 60.295216,345.143463 62.641891,346.370178 
M51.223766,363.730835 
	C54.556984,364.890625 57.509380,364.454651 59.574890,361.375824 
	C61.770004,358.103821 61.572990,351.051392 58.627003,349.411835 
	C56.409008,348.177429 52.925282,347.882172 50.501930,348.679382 
	C47.246078,349.750519 46.249771,355.476349 47.991405,359.777893 
	C48.520363,361.084320 49.666061,362.141052 51.223766,363.730835 
z"/>
<path fill="#2D292B" opacity="1.000000" stroke="none" 
	d="
M649.169922,347.505524 
	C644.835876,347.708435 640.888794,347.708435 636.717163,347.708435 
	C636.717163,349.701385 636.717163,351.124329 636.717163,353.041138 
	C640.645386,353.041138 644.561035,353.041138 648.691711,353.041138 
	C648.691711,354.626221 648.691711,355.720428 648.691711,357.187927 
	C644.860291,357.187927 641.096375,357.187927 636.741028,357.187927 
	C636.624390,359.433624 636.525208,361.342926 636.409485,363.570160 
	C641.082275,363.980377 645.558105,364.351837 650.014465,364.885681 
	C650.128357,364.899323 650.028809,366.695129 650.028809,367.928009 
	C644.005615,367.928009 638.090515,367.928009 631.822205,367.928009 
	C631.822205,360.040161 631.822205,352.162659 631.822205,343.930725 
	C637.644348,343.930725 643.533142,343.930725 649.734863,343.930725 
	C649.673828,345.087097 649.615356,346.194855 649.169922,347.505524 
z"/>
<path fill="#323031" opacity="1.000000" stroke="none" 
	d="
M159.279816,354.914307 
	C159.280487,351.115143 159.280487,347.794861 159.280487,343.900421 
	C160.858185,343.784607 162.369217,343.673645 164.138901,343.543732 
	C164.138901,349.813324 164.379166,355.604950 164.066147,361.366516 
	C163.794846,366.360046 160.465347,368.724548 154.684555,368.741180 
	C148.685074,368.758423 145.214920,366.284637 144.933090,361.130615 
	C144.626343,355.520996 144.863449,349.881622 144.863449,343.865417 
	C146.312164,343.764160 147.701126,343.667114 149.096176,343.569611 
	C149.378433,344.313995 149.686691,344.754272 149.691681,345.197937 
	C149.740341,349.516052 149.785034,353.835297 149.735565,358.153076 
	C149.697266,361.496399 150.395142,364.159851 154.469772,364.289246 
	C158.667953,364.422546 159.363434,361.737335 159.267120,358.382965 
	C159.238525,357.387329 159.273376,356.389862 159.279816,354.914307 
z"/>
<path fill="#323031" opacity="1.000000" stroke="none" 
	d="
M125.118332,368.305847 
	C116.499893,369.363251 113.225929,367.399139 111.454765,358.771454 
	C114.107521,360.355408 115.620522,361.498016 117.314766,362.208344 
	C119.311882,363.045685 121.451500,363.879517 123.558632,363.961395 
	C124.470268,363.996857 125.890808,362.271393 126.229134,361.100006 
	C126.406937,360.484436 124.915527,358.950073 123.887207,358.510284 
	C121.465149,357.474548 118.469658,357.385498 116.459023,355.896698 
	C114.584984,354.509064 112.554550,351.743408 112.671448,349.703491 
	C112.788185,347.666321 115.088760,344.939362 117.122780,343.980927 
	C123.056602,341.184906 128.981995,344.112915 130.968597,351.298279 
	C128.597275,350.430237 126.548515,350.214325 125.275734,349.106720 
	C122.337280,346.549591 119.876518,346.616730 116.186920,350.282440 
	C119.663910,351.542603 122.385406,352.639282 125.176651,353.513184 
	C128.831253,354.657410 131.523239,356.674561 131.528351,360.782684 
	C131.533249,364.733185 129.461334,367.316711 125.118332,368.305847 
z"/>
<path fill="#2D292B" opacity="1.000000" stroke="none" 
	d="
M554.220703,353.608459 
	C554.580322,366.564636 550.864563,369.177673 534.114197,367.919312 
	C534.114197,360.080170 534.114197,352.206573 534.114197,344.318298 
	C547.880005,342.054352 552.915161,344.285400 554.220703,353.608459 
M544.896606,363.937256 
	C548.881042,361.829498 550.584045,356.536316 548.748596,351.556458 
	C546.913513,346.577637 542.802795,348.058136 539.150879,347.850250 
	C539.150879,353.547363 539.150879,358.757019 539.150879,364.009003 
	C541.025940,364.009003 542.523560,364.009003 544.896606,363.937256 
z"/>
<path fill="#2D292B" opacity="1.000000" stroke="none" 
	d="
M811.840881,364.048218 
	C813.799500,364.048218 815.295532,364.048218 816.984863,364.048218 
	C818.049927,366.443420 818.398743,368.222260 814.865295,368.202240 
	C809.727905,368.173126 804.590149,368.194763 799.166016,368.194763 
	C799.166016,359.989319 799.166016,352.069855 799.166016,343.864075 
	C804.925537,343.864075 810.691711,343.864075 816.784790,343.864075 
	C816.784790,345.031250 816.784790,346.228973 816.784790,347.666992 
	C812.651123,347.666992 808.677979,347.666992 804.168579,347.666992 
	C804.052368,349.408417 803.949341,350.952332 803.817017,352.935425 
	C807.851257,352.935425 811.609131,352.935425 815.760010,352.935425 
	C815.891357,354.505127 815.990967,355.695740 816.121033,357.249939 
	C811.985107,357.249939 808.198669,357.249939 804.149536,357.249939 
	C804.149536,359.522217 804.149536,361.466827 804.149536,364.048218 
	C806.515442,364.048218 808.946838,364.048218 811.840881,364.048218 
z"/>
<path fill="#312E30" opacity="1.000000" stroke="none" 
	d="
M8.716484,359.196655 
	C7.766567,349.397430 11.579226,343.547058 19.089748,343.148743 
	C23.980911,342.889374 27.880535,344.588257 30.101122,351.457520 
	C27.319454,350.535583 25.212692,350.383698 23.873169,349.291168 
	C19.807783,345.975403 15.176864,347.294250 14.009125,352.441681 
	C13.717703,353.726227 13.589196,355.092377 13.661105,356.405945 
	C13.836926,359.617615 14.095211,362.912476 17.956137,364.026398 
	C21.879028,365.158173 23.770552,362.682190 25.363775,359.297333 
	C26.757698,359.744904 28.104532,360.177368 31.159609,361.158295 
	C28.112167,363.919922 26.178186,366.748657 23.523853,367.865784 
	C16.903172,370.652283 11.180458,367.158142 8.716484,359.196655 
z"/>
<path fill="#2D292B" opacity="1.000000" stroke="none" 
	d="
M740.303223,343.646362 
	C745.559082,343.889709 748.059143,346.433716 748.075134,351.258575 
	C748.093323,356.739685 745.770691,358.105194 734.277893,359.365814 
	C734.277893,362.070740 734.277893,364.829620 734.277893,367.888092 
	C732.495056,367.888092 731.102051,367.888092 729.153381,367.888092 
	C729.153381,363.907623 729.153320,359.959412 729.153320,356.011230 
	C729.153320,352.044098 729.153381,348.076996 729.153381,343.631439 
	C732.964172,343.631439 736.421631,343.631439 740.303223,343.646362 
M734.835571,354.621674 
	C737.973877,354.606354 742.586487,356.102051 742.714417,351.347931 
	C742.849609,346.321594 738.125671,348.087830 735.073059,347.976166 
	C734.833008,347.967377 734.578918,348.341553 734.280945,348.577698 
	C734.280945,350.349243 734.280945,352.153015 734.835571,354.621674 
z"/>
<path fill="#2E2B2D" opacity="1.000000" stroke="none" 
	d="
M610.300049,368.135254 
	C607.177063,368.546021 605.453247,367.948273 604.487610,364.754761 
	C602.383850,357.798309 599.692200,351.019623 597.219238,344.108032 
	C600.817993,342.823486 602.794006,343.592651 603.786377,347.207397 
	C605.015625,351.685089 606.719421,356.032532 608.607361,361.579681 
	C610.420227,356.237213 611.904297,351.842651 613.403015,347.453094 
	C614.762451,343.471558 614.769409,343.473938 620.099548,344.033203 
	C616.911194,352.155426 613.786072,360.116486 610.300049,368.135254 
z"/>
<path fill="#363335" opacity="1.000000" stroke="none" 
	d="
M216.616837,364.442352 
	C217.133957,369.171509 214.451477,368.321320 211.603607,367.899414 
	C211.603607,361.360962 211.603607,354.932617 211.603607,349.162689 
	C209.584610,346.127777 203.365479,350.669983 204.352066,343.543640 
	C210.079651,343.543640 215.701233,343.391205 221.300491,343.676788 
	C222.374451,343.731598 223.360565,345.508728 224.387207,346.491272 
	C224.084137,346.873566 223.781082,347.255859 223.478012,347.638153 
	C221.373703,347.760376 219.269409,347.882599 216.616974,348.036652 
	C216.616974,353.473114 216.616974,358.739563 216.616837,364.442352 
z"/>
<path fill="#312E30" opacity="1.000000" stroke="none" 
	d="
M663.588196,358.911865 
	C663.588257,353.795624 663.588257,349.163513 663.588257,344.156677 
	C665.126526,344.010254 666.523010,343.877350 668.487915,343.690338 
	C668.487915,350.530792 668.487915,357.055573 668.487915,363.909454 
	C672.779541,363.909454 676.546814,363.909454 680.726318,363.909454 
	C680.804504,365.429535 680.866394,366.633270 680.935547,367.978607 
	C675.097900,367.978607 669.535095,367.978607 663.588135,367.978607 
	C663.588135,364.962158 663.588135,362.179077 663.588196,358.911865 
z"/>
<path fill="#2E2B2D" opacity="1.000000" stroke="none" 
	d="
M875.142212,361.939575 
	C875.142212,364.226959 875.142212,366.025421 875.142212,367.924164 
	C873.314636,367.924164 871.925171,367.924164 870.169128,367.924164 
	C870.169128,361.232758 870.169128,354.798157 870.169128,348.932617 
	C868.169373,346.113281 861.760742,350.787506 863.208679,343.739258 
	C869.436768,343.739258 875.560303,343.739258 881.668152,343.739258 
	C882.511353,347.458679 882.511353,347.458679 875.142212,348.153595 
	C875.142212,352.547760 875.142212,356.999207 875.142212,361.939575 
z"/>
<path fill="#2E2B2D" opacity="1.000000" stroke="none" 
	d="
M183.740356,359.920258 
	C183.321152,363.113373 184.226486,364.368622 187.197845,364.090881 
	C189.833313,363.844482 192.510025,364.039185 195.588242,364.039185 
	C195.764099,365.237579 195.937653,366.420197 196.158249,367.923523 
	C190.238617,367.923523 184.666412,367.923523 178.909119,367.923523 
	C178.909119,360.020752 178.909119,352.236145 178.909119,344.064606 
	C180.331680,343.990051 181.732910,343.916595 183.740250,343.811371 
	C183.740250,349.235474 183.740250,354.333038 183.740356,359.920258 
z"/>
<path fill="#231F20" opacity="1.000000" stroke="none" 
	d="
M240.998535,364.776459 
	C241.365509,369.772614 238.187546,367.330505 236.195816,368.297913 
	C236.195816,359.652618 236.195816,351.701477 236.195816,343.376587 
	C237.607407,343.376587 239.102188,343.376587 240.998718,343.376587 
	C240.998718,350.374115 240.998718,357.336884 240.998535,364.776459 
z"/>
<path fill="#737577" opacity="1.000000" stroke="none" 
	d="
M496.347290,101.686554 
	C496.374023,101.874657 496.228912,102.210220 495.970398,102.350998 
	C495.856995,102.156204 496.175385,101.834023 496.347290,101.686554 
z"/>
<path fill="#FBFBFB" opacity="1.000000" stroke="none" 
	d="
M44.670521,247.003021 
	C44.670502,241.893433 44.670502,237.282791 44.670502,232.446747 
	C56.106308,232.446747 67.068161,231.892395 77.943840,232.622223 
	C86.635956,233.205521 92.004425,240.102890 91.998466,248.535080 
	C91.992523,256.945953 86.569283,263.865021 77.908379,264.431885 
	C67.030907,265.143799 56.071453,264.603333 44.670540,264.603333 
	C44.670540,258.726929 44.670540,253.114456 44.670521,247.003021 
z"/>
<path fill="#FCFCFC" opacity="1.000000" stroke="none" 
	d="
M47.282490,169.294586 
	C55.577324,169.290771 63.396370,169.240005 71.214462,169.304352 
	C81.619583,169.389984 87.913010,175.150864 87.837540,184.405579 
	C87.763336,193.504517 81.617599,199.074585 71.449852,199.130081 
	C62.966808,199.176392 54.483112,199.110489 45.999805,199.072540 
	C45.707577,199.071243 45.416397,198.835846 44.677265,198.515839 
	C44.677265,189.768387 44.617970,180.834885 44.770222,171.904984 
	C44.785225,171.024979 46.096607,170.167053 47.282490,169.294586 
z"/>
<path fill="#FDFDFD" opacity="1.000000" stroke="none" 
	d="
M254.009628,169.294464 
	C259.648651,169.486633 264.849121,169.271088 269.928711,169.954346 
	C281.098175,171.456741 288.073608,180.013458 287.621674,191.015289 
	C287.164429,202.146286 279.826630,209.795578 268.480927,210.951889 
	C267.488861,211.053009 266.488159,211.114899 265.491333,211.116638 
	C257.845398,211.130020 250.199463,211.123993 242.188644,211.123993 
	C242.188644,197.276642 242.188644,183.574585 242.188644,169.294449 
	C245.957245,169.294449 249.736755,169.294449 254.009628,169.294464 
z"/>
<path fill="#FBFBFB" opacity="1.000000" stroke="none" 
	d="
M472.103424,182.457092 
	C472.744659,182.218048 473.702118,182.203964 473.785034,182.466324 
	C478.733368,198.122421 483.609680,213.801300 488.632904,229.927673 
	C478.077820,229.927673 468.040955,229.927673 457.315979,229.927673 
	C462.261292,214.072144 467.136414,198.441605 472.103424,182.457092 
z"/>
<path fill="#FBFBFB" opacity="1.000000" stroke="none" 
	d="
M697.885132,353.403900 
	C698.818298,348.875763 701.505981,347.060028 705.490051,347.576111 
	C709.418213,348.084961 710.947815,350.969604 711.088867,354.628326 
	C711.239868,358.543549 711.025818,362.452209 706.447266,363.964111 
	C700.964233,365.774841 697.560974,361.726685 697.885132,353.403900 
z"/>
<path fill="#F6F6F6" opacity="1.000000" stroke="none" 
	d="
M50.876526,363.521484 
	C49.666061,362.141052 48.520363,361.084320 47.991405,359.777893 
	C46.249771,355.476349 47.246078,349.750519 50.501930,348.679382 
	C52.925282,347.882172 56.409008,348.177429 58.627003,349.411835 
	C61.572990,351.051392 61.770004,358.103821 59.574890,361.375824 
	C57.509380,364.454651 54.556984,364.890625 50.876526,363.521484 
z"/>
<path fill="#FCFCFC" opacity="1.000000" stroke="none" 
	d="
M544.458862,363.973145 
	C542.523560,364.009003 541.025940,364.009003 539.150879,364.009003 
	C539.150879,358.757019 539.150879,353.547363 539.150879,347.850250 
	C542.802795,348.058136 546.913513,346.577637 548.748596,351.556458 
	C550.584045,356.536316 548.881042,361.829498 544.458862,363.973145 
z"/>
<path fill="#F6F6F6" opacity="1.000000" stroke="none" 
	d="
M734.558228,354.289246 
	C734.280945,352.153015 734.280945,350.349243 734.280945,348.577698 
	C734.578918,348.341553 734.833008,347.967377 735.073059,347.976166 
	C738.125671,348.087830 742.849609,346.321594 742.714417,351.347931 
	C742.586487,356.102051 737.973877,354.606354 734.558228,354.289246 
z"/>
</svg>