<svg version="1.1" id="Layer_1" xmlns="http://www.w3.org/2000/svg" xmlns:xlink="http://www.w3.org/1999/xlink" x="0px" y="0px"
	 width="100%" viewBox="0 0 497 259" enable-background="new 0 0 497 259" xml:space="preserve">
<path fill="#15171B" opacity="1.000000" stroke="none" 
	d="
M291.000000,260.000000 
	C194.395096,260.000000 97.790199,260.000000 1.092649,260.000000 
	C1.092649,173.783691 1.092649,87.567238 1.092649,1.000000 
	C46.020287,1.000000 91.041489,1.000000 136.531342,1.450316 
	C137.433792,7.769028 135.040253,15.158586 144.493256,15.689583 
	C143.600693,19.109074 142.279251,22.148438 142.119980,25.247530 
	C141.869904,30.113567 141.633942,34.523800 136.157547,36.626499 
	C134.912277,37.104630 133.982513,38.636036 133.119843,39.835373 
	C130.617203,43.314709 128.059296,45.082516 123.522591,42.563148 
	C119.660500,40.418419 117.053886,42.316769 117.048012,46.697536 
	C117.044037,49.659275 117.708763,52.628529 117.621315,55.581009 
	C117.570160,57.307961 116.628563,59.008541 116.087540,60.720989 
	C114.907173,59.613995 113.738853,58.493725 112.540176,57.406933 
	C112.097588,57.005665 111.583511,56.683254 110.126060,55.598423 
	C110.277199,57.938557 109.915070,59.548798 110.533012,60.560303 
	C112.467873,63.727451 112.512741,65.508995 108.646378,67.517235 
	C103.849281,70.008911 103.923203,76.897774 108.735619,79.760246 
	C109.728806,75.773994 110.683502,71.942215 111.664619,68.004395 
	C118.160660,69.219536 118.098465,73.628059 117.608688,78.197540 
	C116.818069,79.950943 116.078217,81.562866 116.070587,83.178246 
	C115.941841,110.452126 115.904213,137.726425 115.500053,165.059784 
	C113.542549,168.602829 111.008316,171.962234 110.518135,175.597290 
	C109.583565,182.527756 108.630020,189.919479 115.317276,195.534119 
	C116.557930,196.894577 117.824890,197.876038 119.173126,198.920471 
	C119.602463,208.178406 119.602463,208.178406 122.143806,208.792191 
	C122.307343,206.170868 122.468521,203.587158 123.012527,201.031723 
	C130.531677,202.999451 130.495605,209.096375 130.925964,214.625824 
	C131.412720,220.879898 134.368073,224.937454 140.419235,224.886627 
	C147.916519,224.823685 155.396820,223.621429 162.901276,223.264267 
	C169.446503,222.952759 176.041687,222.742859 182.566544,223.190933 
	C190.783707,223.755219 198.951797,225.033981 207.171951,226.422195 
	C206.952698,228.214111 206.702576,229.588318 206.267380,231.256866 
	C205.286667,234.259262 204.655029,237.029419 203.658173,239.661270 
	C202.027542,243.966385 202.619568,247.687668 206.668060,250.055008 
	C211.351227,252.793472 216.252441,255.184021 221.172424,257.482849 
	C223.941620,258.776764 225.945847,257.454529 227.189377,254.786942 
	C229.784607,249.219757 232.416962,243.669876 235.325073,237.921066 
	C238.092789,236.546814 240.569489,235.364395 243.449036,234.201782 
	C246.970383,234.465057 250.088913,234.708511 253.311371,235.285217 
	C254.024887,237.391937 254.634491,239.165405 255.229156,241.304916 
	C257.488220,248.971542 258.592865,249.355453 264.856232,244.939178 
	C265.637177,244.388519 266.284851,243.648911 267.302460,242.888611 
	C269.041016,241.778885 270.471375,240.777435 272.067810,240.102539 
	C273.462677,241.234772 274.590729,242.407257 275.939117,242.777740 
	C280.089630,243.918121 283.026947,245.424332 281.575684,250.740112 
	C281.320496,251.674927 284.123413,254.678421 285.237610,254.537720 
	C289.828857,253.957993 290.727356,256.460022 291.000000,260.000000 
M69.535461,112.719856 
	C74.452522,99.393303 66.542198,81.593483 50.503414,79.593796 
	C35.978001,77.782776 21.048717,79.211037 6.380355,79.211037 
	C6.380355,109.446686 6.380355,139.982437 6.380355,170.722000 
	C18.587290,170.722000 30.401495,170.723999 42.215702,170.719208 
	C43.548229,170.718674 44.885532,170.745224 46.212494,170.648132 
	C55.182674,169.991730 63.252213,167.316162 68.748207,159.671768 
	C77.554626,147.422882 75.311043,133.102676 63.347633,122.688957 
	C65.308228,119.567551 67.239449,116.492912 69.535461,112.719856 
M54.015751,208.899597 
	C57.139023,207.714676 57.638386,198.263290 54.098324,194.460464 
	C53.949841,197.525452 53.831383,199.970627 53.688450,202.921036 
	C51.154114,199.830399 49.000263,197.203766 46.301003,193.912003 
	C46.301003,199.946030 46.301003,204.444702 46.301003,208.943390 
	C46.831860,208.966064 47.362720,208.988724 47.893578,209.011398 
	C48.000740,206.579712 48.107903,204.148041 48.263996,200.606125 
	C50.361313,203.898468 51.842484,206.223602 54.015751,208.899597 
M33.854065,195.194443 
	C33.201561,195.109451 32.546528,194.935257 31.896957,194.953674 
	C26.932926,195.094360 24.454416,197.977814 24.943146,202.995087 
	C25.350435,207.176315 28.164045,209.509735 32.342827,209.131866 
	C36.597050,208.747177 39.147102,205.255554 38.015800,200.528046 
	C37.578636,198.701202 35.749302,197.207504 33.854065,195.194443 
M65.747910,201.837830 
	C67.876778,202.741516 70.005653,203.645203 72.134521,204.548889 
	C71.895576,205.242523 71.656624,205.936172 71.417679,206.629822 
	C69.102570,205.907394 66.787460,205.184967 64.472351,204.462524 
	C64.163940,204.770981 63.855537,205.079453 63.547127,205.387909 
	C64.987473,206.614380 66.455643,208.871506 67.861855,208.833557 
	C70.156181,208.771622 73.942657,207.695023 74.413132,206.200729 
	C76.348137,200.054855 69.669655,201.242203 67.198730,198.033066 
	C69.489967,198.358582 71.781204,198.684082 74.423553,199.059479 
	C73.072578,194.331467 69.814751,194.346375 66.760590,195.366791 
	C63.877090,196.330185 63.168701,198.654984 65.747910,201.837830 
M82.643265,206.550095 
	C86.443764,210.375565 92.168144,210.077103 92.868484,205.835175 
	C93.440987,202.367538 92.985008,198.730087 92.985008,195.167923 
	C92.534645,195.038681 92.084274,194.909439 91.633911,194.780197 
	C91.170479,195.705551 90.411430,196.598434 90.305534,197.563034 
	C90.089264,199.533234 90.495102,201.595688 90.114380,203.514938 
	C89.881721,204.687836 88.662636,205.665054 87.886581,206.730148 
	C86.936394,205.640961 85.349960,204.649109 85.165428,203.442825 
	C84.752022,200.740326 85.036018,197.931168 85.036018,195.165436 
	C84.529129,195.110001 84.022232,195.054581 83.515343,194.999146 
	C80.589943,198.084335 82.546776,202.135712 82.643265,206.550095 
M8.044771,207.565231 
	C13.361913,210.320587 15.447189,209.763672 17.876795,204.589691 
	C15.062137,203.277481 9.896376,211.011032 9.121495,202.844070 
	C8.359648,194.814468 14.237114,198.507828 18.660152,199.295303 
	C14.381735,193.924850 8.840616,193.632370 7.215051,198.100647 
	C6.277380,200.678101 7.344724,203.984970 8.044771,207.565231 
M101.054428,196.998764 
	C101.054428,200.908569 101.054428,204.818390 101.054428,208.521362 
	C104.694534,208.521362 107.778687,208.521362 110.862839,208.521362 
	C110.914589,208.092422 110.966339,207.663467 111.018089,207.234528 
	C108.805847,206.909286 106.593605,206.584045 104.016975,206.205231 
	C104.016975,203.307816 104.080605,200.353058 103.995750,197.402573 
	C103.933952,195.253830 103.250496,194.045898 101.054428,196.998764 
M108.271202,50.487671 
	C108.012070,50.733791 107.750511,50.977638 107.507454,51.238724 
	C107.501167,51.245483 107.697464,51.440826 107.799286,51.548222 
	C108.058525,51.301785 108.317772,51.055344 108.271202,50.487671 
z"/>
<path fill="#151A1E" opacity="1.000000" stroke="none" 
	d="
M498.000000,194.000000 
	C498.000000,215.954941 498.000000,237.909866 498.000000,260.000000 
	C448.979187,260.000000 399.958252,260.000000 350.461823,259.634705 
	C349.537201,258.233856 349.154266,257.163239 348.627350,256.168945 
	C346.510529,252.174622 344.294891,248.231812 342.229462,244.211548 
	C341.331329,242.463379 340.862732,239.086700 339.934692,238.990112 
	C333.891907,238.361206 333.825073,233.363693 332.397858,229.390518 
	C329.980652,229.560623 327.771576,229.716080 325.360077,229.885788 
	C325.360077,228.669571 325.377808,228.030457 325.355347,227.392776 
	C325.330353,226.683105 325.268768,225.974747 325.214661,225.134628 
	C314.625000,229.461502 307.317688,226.095520 304.522644,216.242142 
	C306.373688,214.964890 308.275513,213.903915 309.734528,212.410385 
	C309.992371,212.146439 308.402405,210.077393 307.898376,208.556793 
	C311.770996,205.446106 311.954712,201.704895 310.073151,198.078415 
	C307.709137,193.521912 303.417603,195.170731 299.480103,195.308914 
	C299.298126,197.427444 299.144653,199.213806 298.593292,201.011414 
	C294.532318,200.686234 290.869232,200.349808 287.201599,199.781586 
	C287.197052,199.549774 287.249146,199.089096 287.512451,198.918945 
	C288.546082,197.508316 289.316406,196.267822 290.350830,194.833740 
	C292.020599,192.421387 293.426208,190.202606 295.041687,187.738358 
	C295.871979,186.397018 296.492371,185.301132 297.387390,183.994904 
	C299.778717,182.485367 301.895386,181.186172 304.462463,179.911652 
	C306.887054,179.891708 308.862488,179.878342 310.835052,179.795792 
	C314.553619,179.640152 318.176056,179.272247 319.779480,174.647873 
	C320.578064,172.872787 321.236237,171.428467 322.121460,169.702911 
	C323.189301,166.943893 324.030060,164.466141 324.996155,161.702057 
	C325.683105,160.602921 326.244720,159.790085 326.997375,158.667023 
	C328.073639,155.565857 328.958893,152.774918 329.995209,149.667053 
	C330.740143,147.898438 331.333984,146.446762 331.997620,144.645416 
	C332.546936,143.260681 333.026520,142.225616 333.634094,141.157608 
	C333.762115,141.124664 334.019470,141.064316 334.058228,141.412079 
	C336.514313,143.500519 338.956512,145.207977 341.339233,146.994797 
	C342.689056,148.007050 344.069855,149.030197 345.209839,150.258896 
	C347.386353,152.604721 345.944336,157.591003 350.908997,158.462372 
	C350.984009,162.849426 350.984009,166.776093 350.984009,170.768402 
	C358.218384,170.768402 364.932739,170.768402 372.167664,170.768402 
	C372.167664,146.359924 372.167664,122.181480 372.518127,98.056427 
	C379.972961,101.041771 387.077393,103.973740 394.329285,106.966583 
	C393.516266,107.228188 392.171112,107.465279 391.034912,108.085327 
	C390.031830,108.632736 388.448425,109.707603 388.530853,110.375656 
	C388.872009,113.140854 389.115387,116.247299 390.553833,118.482414 
	C394.019867,123.868164 397.868225,129.069031 402.074768,133.898178 
	C405.585754,137.928833 409.824097,141.325974 413.821960,145.465820 
	C413.903564,154.040848 413.903564,162.153748 413.903564,170.879059 
	C420.836273,170.879059 427.283783,170.879059 434.117310,170.918625 
	C437.013092,172.659500 439.881195,174.007538 441.968658,176.125153 
	C449.713287,183.981873 459.094269,188.237625 469.915680,187.015320 
	C481.698792,185.684387 482.714813,185.566177 485.613342,194.922379 
	C484.539276,195.303879 483.847931,195.609680 483.156616,195.915466 
	C484.397003,196.862137 485.637360,197.808807 486.856812,198.739517 
	C488.012970,201.980179 485.597992,206.227997 488.388580,209.098709 
	C489.009888,208.991516 489.631165,208.884308 490.252472,208.777115 
	C490.252472,205.513016 490.252472,202.248917 490.421814,198.849213 
	C490.796112,198.498810 490.933044,198.247025 491.348999,197.824829 
	C492.435333,196.804459 493.174561,195.917496 494.264893,194.989151 
	C495.743988,194.631836 496.871979,194.315918 498.000000,194.000000 
M426.281250,196.126602 
	C426.784027,200.427475 424.638519,205.159164 428.845520,208.966034 
	C428.954407,206.574081 429.063324,204.182129 429.174286,201.745132 
	C429.404480,201.875259 429.621216,201.920868 429.682709,202.043991 
	C430.840210,204.361282 431.979370,206.687729 433.122375,209.012253 
	C434.336151,206.879074 435.549957,204.745895 436.807037,202.536606 
	C436.943787,204.669022 437.081940,206.823029 437.220062,208.977020 
	C437.706421,208.994843 438.192780,209.012665 438.679138,209.030487 
	C441.135956,204.691345 439.344788,199.903656 439.177094,194.847977 
	C437.397919,195.288727 435.775604,195.925568 435.033020,197.112701 
	C434.110992,198.586700 433.916687,200.515915 433.341370,202.475769 
	C430.507019,199.973373 433.173737,193.505737 426.281250,196.126602 
M447.974792,195.279221 
	C447.679352,199.787125 447.383911,204.295044 447.105499,208.543488 
	C451.336090,208.543488 454.643860,208.543488 458.258789,208.543488 
	C456.765503,204.372299 450.246613,209.496796 450.332794,203.335770 
	C452.733551,203.078781 454.970581,202.839325 457.207642,202.599854 
	C457.202545,202.138824 457.197449,201.677811 457.192383,201.216782 
	C454.830933,200.648727 452.469482,200.080673 450.108032,199.512619 
	C450.173615,199.118881 450.239166,198.725143 450.304718,198.331406 
	C452.829529,197.786804 455.354309,197.242203 457.879089,196.697617 
	C457.794952,196.147858 457.710815,195.598114 457.626648,195.048355 
	C454.701996,195.048355 451.777344,195.048355 447.974792,195.279221 
M408.733368,208.572128 
	C413.725769,210.002914 409.942627,205.183853 411.812042,204.368744 
	C415.122864,203.591675 420.142426,204.096909 418.919983,198.577698 
	C417.651215,192.849548 412.592133,195.650040 408.524109,195.035690 
	C408.524109,199.505554 408.524109,203.621399 408.733368,208.572128 
M469.701630,202.974487 
	C471.583435,205.056808 471.613434,209.147278 476.219452,208.857254 
	C476.219452,206.024506 476.394775,203.363174 476.160919,200.738327 
	C475.990631,198.826920 475.280273,196.963638 474.810638,195.078888 
	C474.166809,196.801239 473.533203,198.527573 472.868195,200.241684 
	C472.768890,200.497665 472.521790,200.696335 472.159698,201.152542 
	C470.284454,198.915710 468.434937,196.709549 465.805267,193.572800 
	C464.353210,204.556625 464.799683,207.689911 467.996124,208.980652 
	C467.996124,206.825928 467.960297,204.876373 468.051544,202.932800 
	C468.060638,202.738800 468.842255,202.581055 469.701630,202.974487 
M323.445343,197.634811 
	C325.189667,197.385635 326.933960,197.136459 328.678284,196.887283 
	C328.577881,196.403778 328.477509,195.920288 328.377136,195.436798 
	C325.038177,195.436798 321.699219,195.436798 318.410828,195.436798 
	C318.410828,200.124268 318.410828,204.388962 318.410828,208.454544 
	C322.103821,208.454544 325.504486,208.454544 329.080963,208.454544 
	C327.768250,204.456711 321.089478,209.316971 321.130402,203.183929 
	C323.960175,203.001083 326.046051,202.866318 328.131897,202.731552 
	C328.141357,202.094025 328.150818,201.456497 328.160278,200.818970 
	C326.495270,200.691818 324.820068,200.641068 323.167633,200.419952 
	C320.557922,200.070801 320.276489,199.120071 323.445343,197.634811 
M401.301422,200.892059 
	C400.689636,196.447723 397.940948,194.579620 393.698212,194.997620 
	C389.721954,195.389389 388.095581,198.090012 387.989288,201.833450 
	C387.864288,206.235001 390.232544,208.935272 394.286560,209.138458 
	C398.711365,209.360260 400.703186,207.251465 401.301422,200.892059 
M363.385498,206.687866 
	C361.402222,206.687866 359.418915,206.687866 357.262054,206.687866 
	C355.992889,199.964615 362.966492,205.191696 363.926514,200.990967 
	C362.384918,200.821289 360.885590,200.810440 359.477966,200.445587 
	C358.581543,200.213211 357.821167,199.455887 356.999756,198.933960 
	C357.890106,198.486633 358.737976,197.880692 359.680542,197.628448 
	C361.161560,197.232147 362.706360,197.074173 364.224121,196.815277 
	C364.156006,196.371735 364.087860,195.928192 364.019714,195.484650 
	C360.759186,195.484650 357.498657,195.484650 354.263092,195.484650 
	C354.263092,200.057785 354.263092,204.450882 354.263092,209.024323 
	C357.213684,209.024323 359.863647,209.138321 362.489197,208.935669 
	C363.068756,208.890945 363.561737,207.724655 363.385498,206.687866 
M338.741180,197.661545 
	C337.819366,196.707321 336.897583,195.753113 335.975800,194.798889 
	C335.621674,195.127274 335.267548,195.455673 334.913422,195.784058 
	C336.245331,199.503860 337.493103,203.257645 338.971466,206.918289 
	C339.318390,207.777374 340.358063,208.515503 341.254700,208.916916 
	C341.622070,209.081390 342.803741,208.340775 343.020508,207.781509 
	C344.589233,203.733551 346.005798,199.626617 347.470551,195.538361 
	C346.832764,195.241547 346.194946,194.944717 345.557159,194.647903 
	C344.140411,197.677795 342.723663,200.707703 341.041077,204.306122 
	C340.255951,202.069016 339.612366,200.235352 338.741180,197.661545 
M373.342590,195.176544 
	C372.686981,199.719482 372.031372,204.262405 371.407654,208.584381 
	C375.619415,208.584381 378.616577,208.584381 381.613770,208.584381 
	C381.662415,208.154434 381.711029,207.724487 381.759674,207.294525 
	C379.576447,206.927536 377.393219,206.560562 375.226257,206.196304 
	C374.877563,202.543625 374.537384,198.979980 373.342590,195.176544 
z"/>
<path fill="#141A1E" opacity="1.000000" stroke="none" 
	d="
M118.000191,78.057678 
	C118.098465,73.628059 118.160660,69.219536 111.664619,68.004395 
	C110.683502,71.942215 109.728806,75.773994 108.735619,79.760246 
	C103.923203,76.897774 103.849281,70.008911 108.646378,67.517235 
	C112.512741,65.508995 112.467873,63.727451 110.533012,60.560303 
	C109.915070,59.548798 110.277199,57.938557 110.126060,55.598423 
	C111.583511,56.683254 112.097588,57.005665 112.540176,57.406933 
	C113.738853,58.493725 114.907173,59.613995 116.087540,60.720989 
	C116.628563,59.008541 117.570160,57.307961 117.621315,55.581009 
	C117.708763,52.628529 117.044037,49.659275 117.048012,46.697536 
	C117.053886,42.316769 119.660500,40.418419 123.522591,42.563148 
	C128.059296,45.082516 130.617203,43.314709 133.119843,39.835373 
	C133.982513,38.636036 134.912277,37.104630 136.157547,36.626499 
	C141.633942,34.523800 141.869904,30.113567 142.119980,25.247530 
	C142.279251,22.148438 143.600693,19.109074 144.493256,15.689583 
	C135.040253,15.158586 137.433792,7.769028 137.000000,1.450316 
	C185.354233,1.000000 233.708450,1.000000 282.575806,1.347023 
	C286.601135,5.694057 290.099304,9.706658 293.653534,13.668962 
	C293.923187,13.969551 294.591095,13.912887 295.022522,14.381938 
	C293.464020,17.790529 291.956818,20.839466 290.221985,24.133888 
	C289.177612,25.952309 288.360840,27.525244 287.764313,28.674063 
	C291.404480,31.313286 294.662842,33.675697 298.015045,36.346367 
	C298.515961,37.399860 298.923004,38.145103 299.008545,39.097351 
	C297.791351,42.575336 296.644501,45.803268 296.074493,49.130039 
	C295.558472,52.141808 296.898468,56.521767 295.278748,58.098072 
	C290.345825,62.898697 285.867981,68.851730 278.245483,69.942757 
	C273.429993,70.632019 267.136505,67.185699 266.215881,63.063271 
	C266.652588,62.608215 266.888397,62.337215 267.494415,62.006485 
	C271.124817,61.036301 274.385040,60.125847 277.793427,59.174011 
	C276.486542,54.978638 273.518494,52.321217 269.354370,53.116215 
	C265.330750,53.884388 261.600464,56.189102 257.419952,57.912785 
	C252.396683,63.003513 247.694794,68.000320 242.720322,73.192589 
	C238.636322,79.593971 234.824890,85.799889 230.774994,92.235069 
	C229.907501,93.877045 229.278503,95.289764 228.433014,96.953018 
	C227.500671,98.808365 226.784821,100.413162 225.833939,102.282394 
	C223.779556,107.026566 221.960205,111.506317 219.907074,116.282799 
	C218.570648,120.023727 217.467987,123.467926 216.205566,127.198166 
	C215.454605,129.642624 214.863419,131.801025 214.133453,134.309097 
	C213.383209,136.765793 212.771729,138.872818 212.089554,141.357422 
	C211.778458,143.483826 211.538071,145.232681 211.182129,147.384033 
	C210.735703,150.853592 210.404816,153.920654 209.984131,157.393707 
	C209.864014,159.181198 209.833664,160.562683 209.609421,162.267731 
	C209.435257,164.375443 209.455017,166.159607 209.410797,168.319611 
	C209.767670,171.136551 210.188507,173.577652 210.658966,176.416656 
	C210.797485,177.876953 210.886368,178.939316 210.576782,180.001328 
	C207.647125,180.990479 205.054825,181.851181 202.605545,183.013306 
	C200.874817,183.834473 199.337891,185.064056 197.549957,186.090607 
	C197.385483,186.069901 197.069336,185.969986 197.102753,185.523376 
	C197.014832,182.393997 196.893478,179.711227 196.834900,176.631302 
	C196.867584,175.164688 196.837494,174.095261 196.878113,172.579605 
	C197.232864,168.118668 197.516861,164.103943 197.833099,159.633591 
	C196.677216,160.668350 195.862289,161.397888 194.994370,161.771912 
	C193.453918,159.861023 191.966461,158.305649 190.440018,156.709503 
	C192.587845,155.669418 195.006592,155.198059 196.323624,153.734955 
	C201.132843,148.392395 201.264145,137.348282 197.155685,131.360138 
	C194.098038,126.903595 191.457428,122.152779 188.268097,117.798912 
	C187.059860,116.149475 184.834427,115.245163 183.013702,113.546944 
	C183.358551,106.181496 182.583313,99.491379 178.978775,93.407753 
	C172.306137,82.145950 161.609100,78.632652 149.378021,78.366333 
	C138.921463,78.138664 128.459671,78.151321 118.000191,78.057678 
M202.004791,123.691696 
	C202.828674,124.634911 203.652573,125.578125 204.915390,127.023834 
	C205.335983,125.335953 205.628174,124.163338 206.307541,122.384186 
	C207.003616,120.306602 207.699692,118.229019 208.825562,115.595047 
	C211.568466,108.730225 214.311356,101.865395 217.633713,94.630867 
	C218.702103,92.288322 219.770493,89.945778 220.929657,87.404198 
	C212.135162,86.885689 211.818161,87.078560 208.865509,94.738365 
	C206.163086,101.470428 203.460663,108.202499 200.142105,115.428429 
	C199.566376,118.227631 198.560547,121.121223 202.004791,123.691696 
M260.240601,37.745728 
	C262.083557,36.368179 263.926514,34.990631 266.160278,33.320984 
	C264.831818,31.117758 263.901886,28.687916 262.196808,27.080118 
	C261.172485,26.114216 258.299347,25.582500 257.347534,26.300735 
	C247.067764,34.057453 238.265579,42.827133 239.506821,56.829262 
	C246.024918,50.768406 252.827332,44.443184 260.240601,37.745728 
z"/>
<path fill="#1B2024" opacity="1.000000" stroke="none" 
	d="
M386.000000,1.000000 
	C423.259277,1.000000 460.518585,1.000000 498.000000,1.000000 
	C498.000000,37.020592 498.000000,73.041634 497.638611,109.485970 
	C495.862244,109.606285 494.447266,109.303314 492.928345,108.541725 
	C492.824402,98.317879 492.824402,88.552643 492.824402,78.706055 
	C485.631561,78.706055 479.079620,78.706055 471.998993,78.706055 
	C471.998993,84.054657 471.998993,89.027336 471.655273,93.954620 
	C470.481842,93.162163 469.591888,92.471260 468.833099,91.657959 
	C466.140411,88.771645 463.724945,85.580643 460.784058,82.980576 
	C451.961670,75.180550 441.289795,69.701080 435.271790,58.482906 
	C431.695404,51.816265 431.267242,46.388912 433.974304,39.830582 
	C435.409760,36.352943 436.190277,32.561790 436.909149,28.843090 
	C437.710083,24.699755 434.370026,23.617546 431.479980,23.349016 
	C430.449707,23.253288 428.405823,25.792597 428.141235,27.352446 
	C427.471680,31.299547 425.890198,33.294720 421.622742,33.083893 
	C419.387390,32.973465 416.214600,32.918316 415.007233,34.243317 
	C410.160461,39.562374 407.180634,37.131302 404.010773,32.617500 
	C403.107483,31.331259 401.373169,30.659554 400.158630,29.553703 
	C398.358551,27.914743 396.068939,26.437153 395.066162,24.368155 
	C391.834747,17.701136 389.063660,10.808755 386.210632,3.963449 
	C385.849457,3.096891 386.056305,1.993609 386.000000,1.000000 
z"/>
<path fill="#191E22" opacity="1.000000" stroke="none" 
	d="
M385.531342,1.000000 
	C386.056305,1.993609 385.849457,3.096891 386.210632,3.963449 
	C389.063660,10.808755 391.834747,17.701136 395.066162,24.368155 
	C396.068939,26.437153 398.358551,27.914743 400.158630,29.553703 
	C401.373169,30.659554 403.107483,31.331259 404.010773,32.617500 
	C407.180634,37.131302 410.160461,39.562374 415.007233,34.243317 
	C416.214600,32.918316 419.387390,32.973465 421.622742,33.083893 
	C425.890198,33.294720 427.471680,31.299547 428.141235,27.352446 
	C428.405823,25.792597 430.449707,23.253288 431.479980,23.349016 
	C434.370026,23.617546 437.710083,24.699755 436.909149,28.843090 
	C436.190277,32.561790 435.409760,36.352943 433.974304,39.830582 
	C431.267242,46.388912 431.695404,51.816265 435.271790,58.482906 
	C441.289795,69.701080 451.961670,75.180550 460.784058,82.980576 
	C463.724945,85.580643 466.140411,88.771645 468.833099,91.657959 
	C469.591888,92.471260 470.481842,93.162163 471.762756,94.412552 
	C472.213928,106.726288 472.213928,118.536697 472.213928,131.700424 
	C459.252197,114.194809 447.291290,97.997505 435.251831,81.858795 
	C434.229462,80.488335 432.742645,78.597763 431.368805,78.507172 
	C425.643097,78.129562 419.878082,78.348251 413.740326,78.348251 
	C413.740326,101.050522 413.740326,123.027100 413.740326,145.003693 
	C409.824097,141.325974 405.585754,137.928833 402.074768,133.898178 
	C397.868225,129.069031 394.019867,123.868164 390.553833,118.482414 
	C389.115387,116.247299 388.872009,113.140854 388.530853,110.375656 
	C388.448425,109.707603 390.031830,108.632736 391.034912,108.085327 
	C392.171112,107.465279 393.516266,107.228188 394.329285,106.966583 
	C387.077393,103.973740 379.972961,101.041771 372.440369,97.597191 
	C372.063477,92.722755 372.114807,88.360924 372.558228,83.985458 
	C374.570557,83.640327 376.177673,83.207115 377.813446,82.996002 
	C383.168884,82.304817 386.938599,79.984062 387.170135,74.024010 
	C387.459564,66.573456 387.774506,59.120777 387.830231,51.667160 
	C387.840088,50.346241 386.956055,48.664654 385.943298,47.747681 
	C379.488708,41.903545 371.472137,37.524879 368.445221,28.534235 
	C368.269012,28.010952 367.473724,27.648293 366.906677,27.311853 
	C361.832520,24.301426 356.465698,21.682030 351.795410,18.142250 
	C349.863953,16.678328 349.138489,13.330334 348.433807,10.687428 
	C348.158569,9.655165 349.447388,8.205873 350.512573,5.878757 
	C347.491180,6.314927 345.612579,6.558112 343.743683,6.861237 
	C338.384033,7.730534 335.777893,6.172698 334.000000,1.000000 
	C351.020905,1.000000 368.041779,1.000000 385.531342,1.000000 
z"/>
<path fill="#181C21" opacity="1.000000" stroke="none" 
	d="
M333.533875,1.000000 
	C335.777893,6.172698 338.384033,7.730534 343.743683,6.861237 
	C345.612579,6.558112 347.491180,6.314927 350.512573,5.878757 
	C349.447388,8.205873 348.158569,9.655165 348.433807,10.687428 
	C349.138489,13.330334 349.863953,16.678328 351.795410,18.142250 
	C356.465698,21.682030 361.832520,24.301426 366.906677,27.311853 
	C367.473724,27.648293 368.269012,28.010952 368.445221,28.534235 
	C371.472137,37.524879 379.488708,41.903545 385.943298,47.747681 
	C386.956055,48.664654 387.840088,50.346241 387.830231,51.667160 
	C387.774506,59.120777 387.459564,66.573456 387.170135,74.024010 
	C386.938599,79.984062 383.168884,82.304817 377.813446,82.996002 
	C376.177673,83.207115 374.570557,83.640327 372.482513,83.541885 
	C372.014709,81.513046 372.014709,79.914146 372.014709,78.223991 
	C364.824707,78.223991 358.096649,78.223991 350.833984,78.223991 
	C350.833984,104.964867 350.833984,131.483429 350.833984,158.001984 
	C345.944336,157.591003 347.386353,152.604721 345.209839,150.258896 
	C344.069855,149.030197 342.689056,148.007050 341.339233,146.994797 
	C338.956512,145.207977 336.514313,143.500519 334.051788,140.992767 
	C333.477875,138.097870 333.412872,135.687576 332.324341,133.900772 
	C330.033752,130.140717 327.206299,126.707703 324.624512,122.773560 
	C324.609406,120.712250 324.569000,119.017838 324.709534,116.989838 
	C325.849518,111.758545 326.808472,106.860847 327.853394,101.589355 
	C328.218689,99.469788 328.498016,97.724014 328.962158,95.688400 
	C331.507996,92.473145 333.868988,89.547729 336.513000,86.429169 
	C338.203186,84.838539 339.610382,83.441048 341.309448,81.911682 
	C342.751984,80.520088 343.902649,79.260368 345.426910,77.991455 
	C347.175049,76.687035 348.549622,75.391815 349.924194,74.096596 
	C348.617615,72.731400 347.311066,71.366203 345.913147,69.587051 
	C345.496735,65.776932 345.171661,62.380756 344.893311,58.561638 
	C344.345825,54.442081 344.111389,50.626667 342.952209,47.116669 
	C342.572998,45.968472 339.604462,44.771374 338.146912,45.090309 
	C335.825104,45.598351 333.716583,47.264137 331.628632,48.611919 
	C328.987030,50.317116 326.668457,50.082058 324.359650,47.535213 
	C322.433044,44.462410 320.639435,41.727848 318.843384,38.564117 
	C319.174652,35.416595 319.508423,32.698242 320.019592,29.665720 
	C321.180115,26.901897 322.163208,24.452242 323.477478,22.077250 
	C325.620270,23.996862 327.431854,25.841812 329.243469,27.686764 
	C329.496155,24.994627 329.750671,22.302658 330.001129,19.610313 
	C330.317535,16.208740 328.767151,14.675669 325.274963,14.642959 
	C323.078308,12.308700 320.978821,10.325546 318.910858,7.882631 
	C318.961609,5.281913 318.980804,3.140957 319.000000,1.000000 
	C323.689240,1.000000 328.378510,1.000000 333.533875,1.000000 
M351.018585,55.676437 
	C351.694611,56.731773 352.370636,57.787113 353.046631,58.842445 
	C353.635559,58.400322 354.774719,57.862152 354.717224,57.532883 
	C354.482147,56.186214 353.881744,54.903328 353.415863,53.596943 
	C352.631287,54.034508 351.846710,54.472073 351.018585,55.676437 
M339.552002,35.820229 
	C339.195068,35.815544 338.838104,35.810860 338.481171,35.806171 
	C338.479248,35.954235 338.467041,36.230984 338.476868,36.231766 
	C338.832001,36.260040 339.189209,36.262615 339.552002,35.820229 
z"/>
<path fill="#1A1F23" opacity="1.000000" stroke="none" 
	d="
M493.032318,109.000343 
	C494.447266,109.303314 495.862244,109.606285 497.638611,109.954628 
	C498.000000,137.687561 498.000000,165.375122 498.000000,193.531342 
	C496.871979,194.315918 495.743988,194.631836 493.825592,194.985840 
	C490.688843,194.964844 488.342438,194.905762 485.996063,194.846680 
	C482.714813,185.566177 481.698792,185.684387 469.915680,187.015320 
	C459.094269,188.237625 449.713287,183.981873 441.968658,176.125153 
	C439.881195,174.007538 437.013092,172.659500 434.252106,170.474457 
	C434.000885,151.951889 434.000885,133.913055 434.000885,114.424820 
	C435.993713,116.957832 437.020905,118.200760 437.981110,119.493462 
	C449.891113,135.527420 461.772827,151.582474 473.730316,167.580902 
	C474.658020,168.822144 476.044464,170.487335 477.311462,170.573303 
	C482.380096,170.917236 487.485779,170.715302 492.791504,170.715302 
	C492.791504,167.947754 492.784180,165.959381 492.792664,163.971069 
	C492.871033,145.647491 492.952057,127.323921 493.032318,109.000343 
z"/>
<path fill="#12171B" opacity="1.000000" stroke="none" 
	d="
M307.665710,208.841919 
	C308.402405,210.077393 309.992371,212.146439 309.734528,212.410385 
	C308.275513,213.903915 306.373688,214.964890 304.522644,216.242142 
	C307.317688,226.095520 314.625000,229.461502 325.214661,225.134628 
	C325.268768,225.974747 325.330353,226.683105 325.355347,227.392776 
	C325.377808,228.030457 325.360077,228.669571 325.360077,229.885788 
	C327.771576,229.716080 329.980652,229.560623 332.397858,229.390518 
	C333.825073,233.363693 333.891907,238.361206 339.934692,238.990112 
	C340.862732,239.086700 341.331329,242.463379 342.229462,244.211548 
	C344.294891,248.231812 346.510529,252.174622 348.627350,256.168945 
	C349.154266,257.163239 349.537201,258.233856 349.993164,259.634705 
	C330.645782,260.000000 311.291534,260.000000 291.468658,260.000000 
	C290.727356,256.460022 289.828857,253.957993 285.237610,254.537720 
	C284.123413,254.678421 281.320496,251.674927 281.575684,250.740112 
	C283.026947,245.424332 280.089630,243.918121 275.939117,242.777740 
	C274.590729,242.407257 273.462677,241.234772 272.091736,239.908051 
	C271.949585,239.386978 271.994598,238.997437 272.236145,238.915710 
	C272.668121,238.563492 272.858521,238.292999 273.359741,237.909088 
	C275.284393,236.253265 276.898224,234.710861 278.800354,233.036545 
	C280.660889,230.607681 282.233154,228.310715 283.941010,225.612900 
	C284.045380,223.808868 284.014160,222.405701 284.074829,220.581116 
	C284.113586,218.439575 284.060425,216.719437 284.090790,214.629959 
	C284.283081,213.514618 284.391815,212.768631 284.833435,211.995422 
	C288.898865,208.967133 288.873993,207.824585 285.012054,204.649261 
	C285.741791,202.869949 286.473999,201.441681 287.206177,200.013397 
	C290.869232,200.349808 294.532318,200.686234 298.695068,201.428619 
	C299.462280,204.263229 299.729858,206.691879 299.999451,209.488297 
	C300.465607,211.168182 300.929810,212.480316 301.394012,213.792435 
	C301.829254,213.745468 302.264526,213.698486 302.699799,213.651520 
	C303.134613,212.166428 303.569427,210.681351 304.366241,209.127182 
	C305.707397,208.986038 306.686554,208.913986 307.665710,208.841919 
M307.774231,227.883331 
	C303.561066,224.340439 299.909698,219.857758 293.849792,219.262146 
	C292.289886,225.110947 295.140533,233.104248 299.690308,236.087036 
	C302.359314,237.836838 309.056610,237.197952 310.090851,234.476028 
	C310.711090,232.843613 309.055695,230.346527 307.774231,227.883331 
z"/>
<path fill="#191E22" opacity="1.000000" stroke="none" 
	d="
M318.531342,1.000000 
	C318.980804,3.140957 318.961609,5.281913 318.537903,7.793728 
	C314.298279,7.121176 310.500305,5.902704 306.618469,5.079906 
	C302.051453,4.111876 298.803009,5.695673 297.512329,10.792398 
	C296.522827,11.990991 295.798340,13.006636 295.073883,14.022282 
	C294.591095,13.912887 293.923187,13.969551 293.653534,13.668962 
	C290.099304,9.706658 286.601135,5.694057 283.044464,1.347023 
	C294.687561,1.000000 306.375122,1.000000 318.531342,1.000000 
z"/>
<path fill="#12171B" opacity="1.000000" stroke="none" 
	d="
M197.714447,186.111313 
	C199.337891,185.064056 200.874817,183.834473 202.605545,183.013306 
	C205.054825,181.851181 207.647125,180.990479 210.791595,180.281372 
	C214.634598,187.795746 219.403748,190.009674 225.575333,187.640335 
	C223.675034,184.142426 221.744217,180.588333 219.843277,176.631500 
	C219.519974,173.808777 219.166779,171.388779 218.851471,168.542252 
	C218.865021,166.403702 218.840698,164.691681 218.881927,162.582306 
	C218.919022,161.114929 218.890564,160.044907 218.934570,158.569275 
	C219.465820,154.813904 219.924591,151.464157 220.552780,147.810837 
	C221.077866,145.662216 221.433533,143.817184 221.917633,141.608643 
	C222.474365,139.211273 222.902634,137.177429 223.527206,134.852905 
	C224.185806,132.723618 224.648102,130.885025 225.359222,128.781662 
	C226.368256,126.589691 227.128448,124.662498 228.097260,123.026665 
	C229.527023,124.675316 230.830017,125.969116 231.946518,127.407654 
	C233.081970,128.870605 234.033646,130.476181 235.061890,132.401398 
	C230.705078,145.259064 226.352188,157.734665 221.769699,170.868332 
	C229.484421,170.868332 236.574921,170.868332 244.075851,170.901550 
	C247.332153,172.134659 250.431793,172.948471 252.969879,174.616653 
	C257.907959,177.862228 262.531158,181.586899 267.182495,185.420578 
	C266.418915,186.827484 265.757599,187.926941 264.840057,189.198517 
	C264.038239,190.235489 263.492584,191.100311 262.666840,192.142715 
	C259.657135,195.560577 256.927551,198.800858 253.955566,202.235168 
	C252.770309,203.477921 251.827469,204.526672 250.587250,205.721802 
	C248.779205,207.347717 247.268570,208.827225 245.434875,210.440765 
	C243.310104,211.993118 241.508408,213.411453 239.379669,214.918304 
	C236.697372,216.387711 234.342117,217.768631 231.613403,219.177704 
	C225.832474,219.864304 220.424988,220.522720 214.697479,221.089264 
	C213.934830,220.963364 213.492233,220.929321 212.912384,220.640244 
	C212.224854,220.238373 211.674576,220.091553 210.998138,219.692917 
	C210.459061,219.596252 210.046127,219.751389 209.469604,220.076233 
	C209.306000,220.245941 209.236282,220.712189 208.946259,220.843994 
	C208.548721,221.966019 208.441223,222.956238 208.173889,224.197815 
	C207.723068,224.967606 207.432068,225.486053 207.141052,226.004486 
	C198.951797,225.033981 190.783707,223.755219 182.566544,223.190933 
	C176.041687,222.742859 169.446503,222.952759 162.901276,223.264267 
	C155.396820,223.621429 147.916519,224.823685 140.419235,224.886627 
	C134.368073,224.937454 131.412720,220.879898 130.925964,214.625824 
	C130.495605,209.096375 130.531677,202.999451 122.903275,200.599915 
	C123.666061,198.710236 124.920906,197.280655 126.786591,195.155151 
	C122.381775,195.155151 118.862679,195.155151 115.343590,195.155151 
	C108.630020,189.919479 109.583565,182.527756 110.518135,175.597290 
	C111.008316,171.962234 113.542549,168.602829 115.578186,165.487549 
	C116.002663,167.327271 116.002663,168.798370 116.002663,170.354340 
	C122.939690,170.354340 129.485352,170.354340 136.458740,170.354340 
	C136.458740,160.383026 136.458740,150.773148 136.458740,141.003494 
	C140.181366,141.003494 143.466644,141.003494 146.830643,141.003494 
	C151.535553,150.190475 156.112961,159.299820 160.914642,168.289368 
	C161.520325,169.423294 163.282120,170.571503 164.546661,170.615768 
	C171.151428,170.846939 177.768585,170.723663 185.048431,170.723663 
	C178.970184,159.224503 173.172256,148.255630 167.137573,136.838852 
	C176.518158,131.841599 181.140991,123.814835 183.072632,114.001213 
	C184.834427,115.245163 187.059860,116.149475 188.268097,117.798912 
	C191.457428,122.152779 194.098038,126.903595 197.155685,131.360138 
	C201.264145,137.348282 201.132843,148.392395 196.323624,153.734955 
	C195.006592,155.198059 192.587845,155.669418 190.440018,156.709503 
	C191.966461,158.305649 193.453918,159.861023 194.930359,161.973816 
	C194.799118,162.802887 194.605682,163.004227 193.934967,163.101715 
	C189.973450,163.738007 187.512268,165.009094 190.142975,169.401215 
	C189.968109,170.072723 189.866043,170.455765 189.504059,171.043976 
	C188.552322,172.839737 187.860474,174.430313 187.114639,176.467072 
	C187.269775,179.310165 187.478897,181.707077 187.565002,184.519394 
	C187.393341,188.038101 187.643158,191.182922 187.218430,194.233856 
	C186.718704,197.823410 188.945282,198.694580 191.475647,198.852524 
	C197.291901,199.215576 199.086823,196.939575 198.167236,191.054535 
	C197.912308,189.423050 197.859818,187.759918 197.714447,186.111313 
M142.990952,197.947205 
	C142.990952,201.566742 142.990952,205.186264 142.990952,208.805801 
	C143.582016,208.972748 144.173096,209.139694 144.764160,209.306641 
	C145.428009,207.223740 146.091843,205.140823 146.820648,202.854095 
	C148.884735,205.172897 150.830063,207.358276 153.647736,210.523636 
	C153.647736,204.201492 153.647736,199.686554 153.647736,194.838623 
	C149.062820,195.890823 152.154617,199.689362 150.370361,201.809525 
	C149.206772,199.997116 148.266068,198.104248 146.922806,196.562012 
	C145.626556,195.073761 143.807648,193.170135 142.990952,197.947205 
M168.432709,203.850021 
	C169.482208,203.980042 170.531693,204.110062 171.581192,204.240082 
	C171.645355,204.685104 171.709503,205.130127 171.773666,205.575134 
	C170.147263,205.847031 167.347366,206.747238 167.098145,206.281769 
	C166.034058,204.294312 165.360672,201.898514 165.391647,199.663406 
	C165.399414,199.101654 168.517990,198.334885 170.261627,198.131790 
	C171.441284,197.994385 172.716614,198.678299 175.250183,199.329041 
	C171.591843,194.191849 168.060028,194.004639 164.411224,196.054398 
	C161.367493,197.764221 161.024933,202.463547 162.967499,206.578613 
	C165.124924,211.148819 169.124710,208.944214 172.053787,208.617752 
	C173.424500,208.464981 174.409653,204.852982 175.569565,202.808777 
	C175.087708,202.360977 174.605865,201.913162 174.124023,201.465363 
	C172.099121,202.015305 170.074203,202.565247 168.432709,203.850021 
M136.000168,201.523285 
	C135.544006,199.356705 135.087845,197.190140 134.631683,195.023560 
	C134.087845,197.267303 133.541779,199.510529 133.005035,201.755966 
	C132.967834,201.911575 132.967743,202.091537 133.004990,202.247101 
	C133.542480,204.491394 134.089325,206.733475 134.633926,208.976074 
	C135.089340,206.808609 135.544739,204.641129 136.000168,201.523285 
M210.271179,192.487762 
	C210.012100,192.733826 209.750580,192.977631 209.507568,193.238647 
	C209.501282,193.245407 209.697540,193.440720 209.799347,193.548080 
	C210.058533,193.301697 210.317719,193.055313 210.271179,192.487762 
z"/>
<path fill="#FCFCFC" opacity="1.000000" stroke="none" 
	d="
M69.353065,113.069061 
	C67.239449,116.492912 65.308228,119.567551 63.347633,122.688957 
	C75.311043,133.102676 77.554626,147.422882 68.748207,159.671768 
	C63.252213,167.316162 55.182674,169.991730 46.212494,170.648132 
	C44.885532,170.745224 43.548229,170.718674 42.215702,170.719208 
	C30.401495,170.723999 18.587290,170.722000 6.380355,170.722000 
	C6.380355,139.982437 6.380355,109.446686 6.380355,79.211037 
	C21.048717,79.211037 35.978001,77.782776 50.503414,79.593796 
	C66.542198,81.593483 74.452522,99.393303 69.353065,113.069061 
M48.053574,150.003189 
	C51.810688,147.844589 53.360416,144.537247 52.611485,140.356277 
	C51.889465,136.325531 49.179989,133.550583 45.240093,133.260803 
	C39.023643,132.803589 32.748882,133.139145 26.596275,133.139145 
	C26.596275,139.429718 26.596275,145.156448 26.596275,151.480789 
	C33.744568,151.060349 40.507359,150.662582 48.053574,150.003189 
M28.778221,97.932770 
	C27.938610,98.466446 26.392529,98.972298 26.370235,99.538170 
	C26.177626,104.427544 26.259390,109.327721 26.259390,114.475456 
	C32.259342,114.475456 37.568939,114.753471 42.835361,114.395798 
	C47.909763,114.051163 50.595230,110.561295 50.310677,105.635132 
	C50.046314,101.058479 47.108852,98.168472 42.189777,97.977798 
	C38.042606,97.817032 33.884590,97.935913 28.778221,97.932770 
z"/>
<path fill="#FCFCFC" opacity="1.000000" stroke="none" 
	d="
M183.013702,113.546944 
	C181.140991,123.814835 176.518158,131.841599 167.137573,136.838852 
	C173.172256,148.255630 178.970184,159.224503 185.048431,170.723663 
	C177.768585,170.723663 171.151428,170.846939 164.546661,170.615768 
	C163.282120,170.571503 161.520325,169.423294 160.914642,168.289368 
	C156.112961,159.299820 151.535553,150.190475 146.830643,141.003494 
	C143.466644,141.003494 140.181366,141.003494 136.458740,141.003494 
	C136.458740,150.773148 136.458740,160.383026 136.458740,170.354340 
	C129.485352,170.354340 122.939690,170.354340 116.002663,170.354340 
	C116.002663,168.798370 116.002663,167.327271 115.924530,165.428406 
	C115.904213,137.726425 115.941841,110.452126 116.070587,83.178246 
	C116.078217,81.562866 116.818069,79.950943 117.608688,78.197540 
	C128.459671,78.151321 138.921463,78.138664 149.378021,78.366333 
	C161.609100,78.632652 172.306137,82.145950 178.978775,93.407753 
	C182.583313,99.491379 183.358551,106.181496 183.013702,113.546944 
M161.814697,111.939751 
	C162.191635,103.670700 158.758606,98.726051 151.639755,98.129997 
	C146.727478,97.718681 141.752930,98.051018 136.721237,98.051018 
	C136.721237,105.905518 136.721237,113.413086 136.721237,121.145203 
	C141.263962,121.145203 145.411697,121.167252 149.559097,121.139938 
	C155.500061,121.100807 159.780655,118.647964 161.814697,111.939751 
z"/>
<path fill="#67686B" opacity="1.000000" stroke="none" 
	d="
M235.034073,238.112900 
	C232.416962,243.669876 229.784607,249.219757 227.189377,254.786942 
	C225.945847,257.454529 223.941620,258.776764 221.172424,257.482849 
	C216.252441,255.184021 211.351227,252.793472 206.668060,250.055008 
	C202.619568,247.687668 202.027542,243.966385 203.658173,239.661270 
	C204.655029,237.029419 205.286667,234.259262 206.713257,231.256577 
	C216.574158,233.345596 225.804123,235.729248 235.034073,238.112900 
z"/>
<path fill="#8B8D90" opacity="1.000000" stroke="none" 
	d="
M235.325073,237.921066 
	C225.804123,235.729248 216.574158,233.345596 206.898315,230.962234 
	C206.702576,229.588318 206.952698,228.214111 207.171936,226.422211 
	C207.432068,225.486053 207.723068,224.967606 208.550446,224.222366 
	C218.702820,226.387894 228.341324,228.695786 237.915237,231.246201 
	C239.755630,231.736481 241.342407,233.178848 243.046204,234.181976 
	C240.569489,235.364395 238.092789,236.546814 235.325073,237.921066 
z"/>
<path fill="#A2A3A7" opacity="1.000000" stroke="none" 
	d="
M243.449036,234.201797 
	C241.342407,233.178848 239.755630,231.736481 237.915237,231.246201 
	C228.341324,228.695786 218.702820,226.387894 208.710266,223.971024 
	C208.441223,222.956238 208.548721,221.966019 209.292557,220.976074 
	C210.969147,220.949341 212.009384,220.922318 213.049637,220.895294 
	C213.492233,220.929321 213.934830,220.963364 214.793030,221.434464 
	C222.383652,224.188324 229.484756,226.775604 236.750351,228.760941 
	C248.794189,232.051941 260.943878,234.955643 273.048950,238.022507 
	C272.858521,238.292999 272.668121,238.563492 271.825531,238.907211 
	C265.184723,237.637604 259.196075,236.294769 253.207443,234.951950 
	C250.088913,234.708511 246.970383,234.465057 243.449036,234.201797 
z"/>
<path fill="#E9E9EA" opacity="1.000000" stroke="none" 
	d="
M53.669701,208.724152 
	C51.842484,206.223602 50.361313,203.898468 48.263996,200.606125 
	C48.107903,204.148041 48.000740,206.579712 47.893578,209.011398 
	C47.362720,208.988724 46.831860,208.966064 46.301003,208.943390 
	C46.301003,204.444702 46.301003,199.946030 46.301003,193.912003 
	C49.000263,197.203766 51.154114,199.830399 53.688450,202.921036 
	C53.831383,199.970627 53.949841,197.525452 54.098324,194.460464 
	C57.638386,198.263290 57.139023,207.714676 53.669701,208.724152 
z"/>
<path fill="#E9E9EA" opacity="1.000000" stroke="none" 
	d="
M34.204144,195.378235 
	C35.749302,197.207504 37.578636,198.701202 38.015800,200.528046 
	C39.147102,205.255554 36.597050,208.747177 32.342827,209.131866 
	C28.164045,209.509735 25.350435,207.176315 24.943146,202.995087 
	C24.454416,197.977814 26.932926,195.094360 31.896957,194.953674 
	C32.546528,194.935257 33.201561,195.109451 34.204144,195.378235 
M27.976803,203.185745 
	C29.290577,204.374771 30.452866,205.979706 31.995123,206.541428 
	C32.584900,206.756226 35.027431,204.457428 34.907120,203.526093 
	C34.635811,201.425812 33.704739,198.149109 32.302780,197.709656 
	C29.018970,196.680298 27.836720,199.325089 27.976803,203.185745 
z"/>
<path fill="#E9E9EA" opacity="1.000000" stroke="none" 
	d="
M65.460938,201.579193 
	C63.168701,198.654984 63.877090,196.330185 66.760590,195.366791 
	C69.814751,194.346375 73.072578,194.331467 74.423553,199.059479 
	C71.781204,198.684082 69.489967,198.358582 67.198730,198.033066 
	C69.669655,201.242203 76.348137,200.054855 74.413132,206.200729 
	C73.942657,207.695023 70.156181,208.771622 67.861855,208.833557 
	C66.455643,208.871506 64.987473,206.614380 63.547127,205.387909 
	C63.855537,205.079453 64.163940,204.770981 64.472351,204.462524 
	C66.787460,205.184967 69.102570,205.907394 71.417679,206.629822 
	C71.656624,205.936172 71.895576,205.242523 72.134521,204.548889 
	C70.005653,203.645203 67.876778,202.741516 65.460938,201.579193 
z"/>
<path fill="#E9E9EA" opacity="1.000000" stroke="none" 
	d="
M82.477905,206.151794 
	C82.546776,202.135712 80.589943,198.084335 83.515343,194.999146 
	C84.022232,195.054581 84.529129,195.110001 85.036018,195.165436 
	C85.036018,197.931168 84.752022,200.740326 85.165428,203.442825 
	C85.349960,204.649109 86.936394,205.640961 87.886581,206.730148 
	C88.662636,205.665054 89.881721,204.687836 90.114380,203.514938 
	C90.495102,201.595688 90.089264,199.533234 90.305534,197.563034 
	C90.411430,196.598434 91.170479,195.705551 91.633911,194.780197 
	C92.084274,194.909439 92.534645,195.038681 92.985008,195.167923 
	C92.985008,198.730087 93.440987,202.367538 92.868484,205.835175 
	C92.168144,210.077103 86.443764,210.375565 82.477905,206.151794 
z"/>
<path fill="#E9E9EA" opacity="1.000000" stroke="none" 
	d="
M7.777192,207.264374 
	C7.344724,203.984970 6.277380,200.678101 7.215051,198.100647 
	C8.840616,193.632370 14.381735,193.924850 18.660152,199.295303 
	C14.237114,198.507828 8.359648,194.814468 9.121495,202.844070 
	C9.896376,211.011032 15.062137,203.277481 17.876795,204.589691 
	C15.447189,209.763672 13.361913,210.320587 7.777192,207.264374 
z"/>
<path fill="#8B8D90" opacity="1.000000" stroke="none" 
	d="
M253.311371,235.285217 
	C259.196075,236.294769 265.184723,237.637604 271.583984,238.988922 
	C271.994598,238.997437 271.949585,239.386978 271.925659,239.581482 
	C270.471375,240.777435 269.041016,241.778885 266.894531,242.875610 
	C262.533630,242.293533 258.888855,241.616211 255.244080,240.938873 
	C254.634491,239.165405 254.024887,237.391937 253.311371,235.285217 
z"/>
<path fill="#CDCED0" opacity="1.000000" stroke="none" 
	d="
M115.317276,195.534119 
	C118.862679,195.155151 122.381775,195.155151 126.786591,195.155151 
	C124.920906,197.280655 123.666061,198.710236 122.520462,200.571640 
	C122.468521,203.587158 122.307343,206.170868 122.143806,208.792191 
	C119.602463,208.178406 119.602463,208.178406 119.173126,198.920471 
	C117.824890,197.876038 116.557930,196.894577 115.317276,195.534119 
z"/>
<path fill="#E9E9EA" opacity="1.000000" stroke="none" 
	d="
M101.110405,196.551559 
	C103.250496,194.045898 103.933952,195.253830 103.995750,197.402573 
	C104.080605,200.353058 104.016975,203.307816 104.016975,206.205231 
	C106.593605,206.584045 108.805847,206.909286 111.018089,207.234528 
	C110.966339,207.663467 110.914589,208.092422 110.862839,208.521362 
	C107.778687,208.521362 104.694534,208.521362 101.054428,208.521362 
	C101.054428,204.818390 101.054428,200.908569 101.110405,196.551559 
z"/>
<path fill="#757679" opacity="1.000000" stroke="none" 
	d="
M255.229156,241.304916 
	C258.888855,241.616211 262.533630,242.293533 266.586334,242.983856 
	C266.284851,243.648911 265.637177,244.388519 264.856232,244.939178 
	C258.592865,249.355453 257.488220,248.971542 255.229156,241.304916 
z"/>
<path fill="#141A1E" opacity="1.000000" stroke="none" 
	d="
M108.424103,50.648289 
	C108.317772,51.055344 108.058525,51.301785 107.799286,51.548225 
	C107.697464,51.440826 107.501167,51.245483 107.507454,51.238724 
	C107.750511,50.977638 108.012070,50.733791 108.424103,50.648289 
z"/>
<path fill="#FBFBFB" opacity="1.000000" stroke="none" 
	d="
M492.928345,108.541725 
	C492.952057,127.323921 492.871033,145.647491 492.792664,163.971069 
	C492.784180,165.959381 492.791504,167.947754 492.791504,170.715302 
	C487.485779,170.715302 482.380096,170.917236 477.311462,170.573303 
	C476.044464,170.487335 474.658020,168.822144 473.730316,167.580902 
	C461.772827,151.582474 449.891113,135.527420 437.981110,119.493462 
	C437.020905,118.200760 435.993713,116.957832 434.000885,114.424820 
	C434.000885,133.913055 434.000885,151.951889 433.866089,170.434906 
	C427.283783,170.879059 420.836273,170.879059 413.903564,170.879059 
	C413.903564,162.153748 413.903564,154.040848 413.821960,145.465805 
	C413.740326,123.027100 413.740326,101.050522 413.740326,78.348251 
	C419.878082,78.348251 425.643097,78.129562 431.368805,78.507172 
	C432.742645,78.597763 434.229462,80.488335 435.251831,81.858795 
	C447.291290,97.997505 459.252197,114.194809 472.213928,131.700424 
	C472.213928,118.536697 472.213928,106.726288 472.106445,94.457947 
	C471.998993,89.027336 471.998993,84.054657 471.998993,78.706055 
	C479.079620,78.706055 485.631561,78.706055 492.824402,78.706055 
	C492.824402,88.552643 492.824402,98.317879 492.928345,108.541725 
z"/>
<path fill="#FFFFFF" opacity="1.000000" stroke="none" 
	d="
M350.908997,158.462372 
	C350.833984,131.483429 350.833984,104.964867 350.833984,78.223991 
	C358.096649,78.223991 364.824707,78.223991 372.014709,78.223991 
	C372.014709,79.914146 372.014709,81.513046 372.090424,83.555527 
	C372.114807,88.360924 372.063477,92.722755 372.089905,97.543808 
	C372.167664,122.181480 372.167664,146.359924 372.167664,170.768402 
	C364.932739,170.768402 358.218384,170.768402 350.984009,170.768402 
	C350.984009,166.776093 350.984009,162.849426 350.908997,158.462372 
z"/>
<path fill="#CDCED0" opacity="1.000000" stroke="none" 
	d="
M324.599213,123.140457 
	C327.206299,126.707703 330.033752,130.140717 332.324341,133.900772 
	C333.412872,135.687576 333.477875,138.097870 334.013000,140.645020 
	C334.019470,141.064316 333.762115,141.124664 333.215912,141.075089 
	C320.095917,138.010361 307.522095,134.995224 294.938293,131.678207 
	C294.913513,130.773682 294.898743,130.171051 295.215332,129.341141 
	C296.773132,125.438911 297.999634,121.763939 299.641479,118.079300 
	C301.841400,118.265755 303.661743,118.300568 305.404144,118.686829 
	C311.816467,120.108307 318.203003,121.646294 324.599213,123.140457 
z"/>
<path fill="#ADAEB2" opacity="1.000000" stroke="none" 
	d="
M329.844116,149.983994 
	C328.958893,152.774918 328.073639,155.565857 326.626678,158.606567 
	C313.257355,155.848694 300.449707,152.841049 287.750427,149.485474 
	C288.989899,146.440643 290.121033,143.743759 291.619934,141.104736 
	C304.606506,144.103058 317.225311,147.043518 329.844116,149.983994 
z"/>
<path fill="#989A9D" opacity="1.000000" stroke="none" 
	d="
M324.870789,161.988373 
	C324.030060,164.466141 323.189301,166.943893 321.730042,169.692215 
	C313.883942,168.191589 306.633301,166.508133 299.436127,164.620804 
	C293.899750,163.168991 288.430634,161.460693 282.930847,159.542358 
	C282.985107,158.790131 283.040161,158.361969 283.365631,157.753662 
	C284.640289,155.799057 285.644470,154.024597 286.871765,152.608368 
	C293.906281,154.756271 300.691376,156.654968 307.537079,158.301956 
	C313.278320,159.683228 319.090179,160.770782 324.870789,161.988373 
z"/>
<path fill="#757679" opacity="1.000000" stroke="none" 
	d="
M254.197968,202.041153 
	C256.927551,198.800858 259.657135,195.560577 263.003601,192.302246 
	C265.310944,192.893814 266.970551,193.614639 268.697357,194.093033 
	C274.868988,195.802856 281.063354,197.430420 287.249146,199.089096 
	C287.249146,199.089096 287.197052,199.549774 287.201630,199.781586 
	C286.473999,201.441681 285.741791,202.869949 284.840210,204.950226 
	C284.457092,206.732697 284.243347,207.863174 283.617065,208.991074 
	C273.535645,206.672699 263.866821,204.356918 254.197968,202.041153 
z"/>
<path fill="#838588" opacity="1.000000" stroke="none" 
	d="
M319.639069,174.978638 
	C318.176056,179.272247 314.553619,179.640152 310.835052,179.795792 
	C308.862488,179.878342 306.887054,179.891708 304.365295,179.563141 
	C301.891266,178.460556 300.001221,177.608505 298.031799,177.023804 
	C291.025360,174.943634 283.991943,172.954483 277.047485,170.616608 
	C278.000519,168.849777 278.874817,167.397202 280.164001,165.967133 
	C282.825714,166.530258 285.067596,167.092606 287.320251,167.607880 
	C298.091583,170.071793 308.865845,172.522949 319.639069,174.978638 
z"/>
<path fill="#8B8D90" opacity="1.000000" stroke="none" 
	d="
M319.779480,174.647873 
	C308.865845,172.522949 298.091583,170.071793 287.320251,167.607880 
	C285.067596,167.092606 282.825714,166.530258 280.256287,165.627930 
	C280.933014,163.466324 281.932312,161.666382 282.931610,159.866440 
	C288.430634,161.460693 293.899750,163.168991 299.436127,164.620804 
	C306.633301,166.508133 313.883942,168.191589 321.502991,169.973480 
	C321.236237,171.428467 320.578064,172.872787 319.779480,174.647873 
z"/>
<path fill="#67686B" opacity="1.000000" stroke="none" 
	d="
M265.096252,189.026398 
	C265.757599,187.926941 266.418915,186.827484 267.434937,185.239960 
	C268.837738,183.444901 269.885834,182.137894 271.022217,181.200775 
	C279.017639,183.708389 286.924713,185.846115 294.831818,187.983826 
	C293.426208,190.202606 292.020599,192.421387 289.938568,194.815369 
	C281.206848,193.002533 273.151550,191.014465 265.096252,189.026398 
z"/>
<path fill="#BBBCBF" opacity="1.000000" stroke="none" 
	d="
M329.995209,149.667053 
	C317.225311,147.043518 304.606506,144.103058 291.681702,140.776672 
	C291.977814,138.936813 292.579895,137.482880 293.548157,136.082642 
	C306.585541,139.089264 319.256683,142.042175 331.927856,144.995087 
	C331.333984,146.446762 330.740143,147.898438 329.995209,149.667053 
z"/>
<path fill="#C4C5C7" opacity="1.000000" stroke="none" 
	d="
M331.997589,144.645416 
	C319.256683,142.042175 306.585541,139.089264 293.615112,135.766541 
	C293.859985,134.257858 294.404144,133.118973 294.948303,131.980087 
	C307.522095,134.995224 320.095917,138.010361 333.087891,141.108032 
	C333.026520,142.225616 332.546936,143.260681 331.997589,144.645416 
z"/>
<path fill="#757679" opacity="1.000000" stroke="none" 
	d="
M276.968719,170.930878 
	C283.991943,172.954483 291.025360,174.943634 298.031799,177.023804 
	C300.001221,177.608505 301.891266,178.460556 303.914886,179.538483 
	C301.895386,181.186172 299.778717,182.485367 297.125793,183.696411 
	C288.639160,181.722504 280.688690,179.836731 272.847778,177.617645 
	C274.294464,175.166519 275.631592,173.048691 276.968719,170.930878 
z"/>
<path fill="#A2A3A7" opacity="1.000000" stroke="none" 
	d="
M324.996155,161.702057 
	C319.090179,160.770782 313.278320,159.683228 307.537079,158.301956 
	C300.691376,156.654968 293.906281,154.756271 286.916260,152.356201 
	C287.039093,151.108322 287.340576,150.470871 287.642090,149.833405 
	C300.449707,152.841049 313.257355,155.848694 326.435669,158.916794 
	C326.244720,159.790085 325.683105,160.602921 324.996155,161.702057 
z"/>
<path fill="#E0E1E1" opacity="1.000000" stroke="none" 
	d="
M426.488281,195.742294 
	C433.173737,193.505737 430.507019,199.973373 433.341370,202.475769 
	C433.916687,200.515915 434.110992,198.586700 435.033020,197.112701 
	C435.775604,195.925568 437.397919,195.288727 439.177094,194.847977 
	C439.344788,199.903656 441.135956,204.691345 438.679138,209.030487 
	C438.192780,209.012665 437.706421,208.994843 437.220062,208.977020 
	C437.081940,206.823029 436.943787,204.669022 436.807037,202.536606 
	C435.549957,204.745895 434.336151,206.879074 433.122375,209.012268 
	C431.979370,206.687729 430.840210,204.361282 429.682709,202.043991 
	C429.621216,201.920868 429.404480,201.875259 429.174286,201.745132 
	C429.063324,204.182129 428.954407,206.574081 428.845520,208.966034 
	C424.638519,205.159164 426.784027,200.427475 426.488281,195.742294 
z"/>
<path fill="#6C6D70" opacity="1.000000" stroke="none" 
	d="
M272.738251,177.950958 
	C280.688690,179.836731 288.639160,181.722504 296.851196,183.906769 
	C296.492371,185.301132 295.871979,186.397018 295.041687,187.738373 
	C286.924713,185.846115 279.017639,183.708389 271.115845,180.928955 
	C271.660187,179.508484 272.199219,178.729721 272.738251,177.950958 
z"/>
<path fill="#E0E1E1" opacity="1.000000" stroke="none" 
	d="
M448.413757,195.163788 
	C451.777344,195.048355 454.701996,195.048355 457.626648,195.048355 
	C457.710815,195.598114 457.794952,196.147858 457.879089,196.697617 
	C455.354309,197.242203 452.829529,197.786804 450.304718,198.331406 
	C450.239166,198.725143 450.173615,199.118881 450.108032,199.512619 
	C452.469482,200.080673 454.830933,200.648727 457.192383,201.216782 
	C457.197449,201.677811 457.202545,202.138824 457.207642,202.599854 
	C454.970581,202.839325 452.733551,203.078781 450.332794,203.335770 
	C450.246613,209.496796 456.765503,204.372299 458.258789,208.543488 
	C454.643860,208.543488 451.336090,208.543488 447.105499,208.543488 
	C447.383911,204.295044 447.679352,199.787125 448.413757,195.163788 
z"/>
<path fill="#E0E1E1" opacity="1.000000" stroke="none" 
	d="
M408.628723,208.154694 
	C408.524109,203.621399 408.524109,199.505554 408.524109,195.035690 
	C412.592133,195.650040 417.651215,192.849548 418.919983,198.577698 
	C420.142426,204.096909 415.122864,203.591675 411.812042,204.368744 
	C409.942627,205.183853 413.725769,210.002914 408.628723,208.154694 
z"/>
<path fill="#E9E9EA" opacity="1.000000" stroke="none" 
	d="
M469.483459,202.690491 
	C468.842255,202.581055 468.060638,202.738800 468.051544,202.932800 
	C467.960297,204.876373 467.996124,206.825928 467.996124,208.980652 
	C464.799683,207.689911 464.353210,204.556625 465.805267,193.572800 
	C468.434937,196.709549 470.284454,198.915710 472.159698,201.152542 
	C472.521790,200.696335 472.768890,200.497665 472.868195,200.241684 
	C473.533203,198.527573 474.166809,196.801239 474.810669,195.078888 
	C475.280273,196.963638 475.990631,198.826920 476.160919,200.738327 
	C476.394775,203.363174 476.219452,206.024506 476.219452,208.857254 
	C471.613434,209.147278 471.583435,205.056808 469.483459,202.690491 
z"/>
<path fill="#E0E1E1" opacity="1.000000" stroke="none" 
	d="
M323.013977,197.653076 
	C320.276489,199.120071 320.557922,200.070801 323.167633,200.419952 
	C324.820068,200.641068 326.495270,200.691818 328.160278,200.818970 
	C328.150818,201.456497 328.141357,202.094025 328.131897,202.731552 
	C326.046051,202.866318 323.960175,203.001083 321.130402,203.183929 
	C321.089478,209.316971 327.768250,204.456711 329.080963,208.454544 
	C325.504486,208.454544 322.103821,208.454544 318.410828,208.454544 
	C318.410828,204.388962 318.410828,200.124268 318.410828,195.436798 
	C321.699219,195.436798 325.038177,195.436798 328.377136,195.436798 
	C328.477509,195.920288 328.577881,196.403778 328.678284,196.887283 
	C326.933960,197.136459 325.189667,197.385635 323.013977,197.653076 
z"/>
<path fill="#E0E1E1" opacity="1.000000" stroke="none" 
	d="
M307.898376,208.556808 
	C306.686554,208.913986 305.707397,208.986038 303.970032,209.058136 
	C302.140381,209.078964 301.068878,209.099762 299.997437,209.120544 
	C299.729858,206.691879 299.462280,204.263229 299.092957,201.417358 
	C299.144653,199.213806 299.298126,197.427444 299.480103,195.308914 
	C303.417603,195.170731 307.709137,193.521912 310.073151,198.078415 
	C311.954712,201.704895 311.770996,205.446106 307.898376,208.556808 
M302.175415,203.947189 
	C302.822021,204.832977 303.590149,206.522766 304.091431,206.447006 
	C305.364227,206.254608 307.319061,205.472412 307.547455,204.561844 
	C307.987396,202.807571 307.939178,200.514160 307.094971,199.001526 
	C306.535645,197.999252 304.239655,197.966202 302.174469,197.331161 
	C302.174469,199.876007 302.174469,201.487473 302.175415,203.947189 
z"/>
<path fill="#E9E9EA" opacity="1.000000" stroke="none" 
	d="
M401.333984,201.267395 
	C400.703186,207.251465 398.711365,209.360260 394.286560,209.138458 
	C390.232544,208.935272 387.864288,206.235001 387.989288,201.833450 
	C388.095581,198.090012 389.721954,195.389389 393.698212,194.997620 
	C397.940948,194.579620 400.689636,196.447723 401.333984,201.267395 
M391.484680,199.343201 
	C391.411957,200.950134 390.897736,202.717789 391.405762,204.113266 
	C391.814301,205.235382 393.371948,206.403229 394.585358,206.618942 
	C395.527954,206.786514 397.565430,205.613174 397.650848,204.867859 
	C397.893066,202.754608 397.737122,200.408264 396.938446,198.485870 
	C396.720062,197.960236 393.683807,198.605255 391.484680,199.343201 
z"/>
<path fill="#E9E9EA" opacity="1.000000" stroke="none" 
	d="
M363.740051,206.881348 
	C363.561737,207.724655 363.068756,208.890945 362.489197,208.935669 
	C359.863647,209.138321 357.213684,209.024323 354.263092,209.024323 
	C354.263092,204.450882 354.263092,200.057785 354.263092,195.484650 
	C357.498657,195.484650 360.759186,195.484650 364.019714,195.484650 
	C364.087860,195.928192 364.156006,196.371735 364.224121,196.815277 
	C362.706360,197.074173 361.161560,197.232147 359.680542,197.628448 
	C358.737976,197.880692 357.890106,198.486633 356.999756,198.933960 
	C357.821167,199.455887 358.581543,200.213211 359.477966,200.445587 
	C360.885590,200.810440 362.384918,200.821289 363.926514,200.990967 
	C362.966492,205.191696 355.992889,199.964615 357.262054,206.687866 
	C359.418915,206.687866 361.402222,206.687866 363.740051,206.881348 
z"/>
<path fill="#6C6D70" opacity="1.000000" stroke="none" 
	d="
M264.840057,189.198517 
	C273.151550,191.014465 281.206848,193.002533 289.674438,195.008972 
	C289.316406,196.267822 288.546082,197.508316 287.512451,198.918945 
	C281.063354,197.430420 274.868988,195.802856 268.697357,194.093033 
	C266.970551,193.614639 265.310944,192.893814 263.283752,192.124664 
	C263.492584,191.100311 264.038239,190.235489 264.840057,189.198517 
z"/>
<path fill="#E9E9EA" opacity="1.000000" stroke="none" 
	d="
M338.854980,198.031616 
	C339.612366,200.235352 340.255951,202.069016 341.041077,204.306122 
	C342.723663,200.707703 344.140411,197.677795 345.557159,194.647903 
	C346.194946,194.944717 346.832764,195.241547 347.470551,195.538361 
	C346.005798,199.626617 344.589233,203.733551 343.020508,207.781509 
	C342.803741,208.340775 341.622070,209.081390 341.254700,208.916916 
	C340.358063,208.515503 339.318390,207.777374 338.971466,206.918289 
	C337.493103,203.257645 336.245331,199.503860 334.913422,195.784058 
	C335.267548,195.455673 335.621674,195.127274 335.975800,194.798889 
	C336.897583,195.753113 337.819366,196.707321 338.854980,198.031616 
z"/>
<path fill="#E0E1E1" opacity="1.000000" stroke="none" 
	d="
M485.613342,194.922379 
	C488.342438,194.905762 490.688843,194.964844 493.474487,195.027252 
	C493.174561,195.917496 492.435333,196.804459 491.066833,197.811401 
	C490.375885,198.282532 490.314178,198.633667 490.252472,198.984818 
	C490.252472,202.248917 490.252472,205.513016 490.252472,208.777115 
	C489.631165,208.884308 489.009888,208.991516 488.388580,209.098709 
	C485.597992,206.227997 488.012970,201.980179 486.856812,198.739517 
	C485.637360,197.808807 484.397003,196.862137 483.156616,195.915466 
	C483.847931,195.609680 484.539276,195.303879 485.613342,194.922379 
z"/>
<path fill="#E9E9EA" opacity="1.000000" stroke="none" 
	d="
M373.769897,195.296432 
	C374.537384,198.979980 374.877563,202.543625 375.226257,206.196304 
	C377.393219,206.560562 379.576447,206.927536 381.759674,207.294525 
	C381.711029,207.724487 381.662415,208.154434 381.613770,208.584381 
	C378.616577,208.584381 375.619415,208.584381 371.407654,208.584381 
	C372.031372,204.262405 372.686981,199.719482 373.769897,195.296432 
z"/>
<path fill="#1A1F23" opacity="1.000000" stroke="none" 
	d="
M490.421814,198.849213 
	C490.314178,198.633667 490.375885,198.282532 490.719727,197.944809 
	C490.933044,198.247025 490.796112,198.498810 490.421814,198.849213 
z"/>
<path fill="#181C21" opacity="1.000000" stroke="none" 
	d="
M299.226135,118.088959 
	C297.999634,121.763939 296.773132,125.438911 295.000122,129.017029 
	C290.426575,117.511169 286.416718,106.096031 282.364807,94.695839 
	C280.479889,89.392540 279.965668,81.992165 276.187317,79.411095 
	C272.170654,76.667221 265.010925,78.696297 259.250946,78.271240 
	C255.492599,77.993896 253.886856,79.240044 252.623840,82.942924 
	C247.015549,99.385071 240.959747,115.674583 235.065796,132.019302 
	C234.033646,130.476181 233.081970,128.870605 231.946518,127.407654 
	C230.830017,125.969116 229.527023,124.675316 228.097351,122.656189 
	C228.210114,120.323402 228.531357,118.652458 228.999756,116.652313 
	C231.115128,112.239212 233.083328,108.155296 235.315552,103.880127 
	C236.081497,102.490616 236.583420,101.292358 237.352707,99.888046 
	C238.455933,97.832153 239.291794,95.982338 240.390564,93.916069 
	C244.623245,87.561798 248.593033,81.423988 252.836975,75.144073 
	C257.412415,71.083748 261.713715,67.165535 266.014984,63.247322 
	C267.136505,67.185699 273.429993,70.632019 278.245483,69.942757 
	C285.867981,68.851730 290.345825,62.898697 295.278748,58.098072 
	C296.898468,56.521767 295.558472,52.141808 296.074493,49.130039 
	C296.644501,45.803268 297.791351,42.575336 299.264282,39.277046 
	C300.752716,40.886814 301.663849,42.523888 302.657837,44.519928 
	C303.468872,46.922977 304.197083,48.967052 304.899292,51.428680 
	C305.521851,55.906208 306.170410,59.966179 306.728638,64.467606 
	C306.747162,67.606857 306.856018,70.304672 306.761230,73.313507 
	C306.424042,75.076645 306.290527,76.528748 306.086792,78.437698 
	C305.810883,82.554588 305.605133,86.214638 305.274017,90.205048 
	C304.839355,92.678574 304.530029,94.821739 304.110992,97.357620 
	C303.078552,102.194572 302.155792,106.638817 301.114471,111.430550 
	C300.405945,113.881683 299.816040,115.985321 299.226135,118.088959 
z"/>
<path fill="#E0E1E1" opacity="1.000000" stroke="none" 
	d="
M295.022522,14.381935 
	C295.798340,13.006636 296.522827,11.990991 297.703461,11.139657 
	C304.401367,13.195510 310.681244,14.973036 316.864532,17.039446 
	C319.077484,17.778996 321.057190,19.216591 323.165039,20.615032 
	C323.173279,21.263844 323.159790,21.633213 323.146301,22.002586 
	C322.163208,24.452242 321.180115,26.901897 319.609131,29.663284 
	C317.556183,29.767530 316.069763,29.655991 314.629456,29.336657 
	C306.563385,27.548306 298.508392,25.709787 290.449646,23.888401 
	C291.956818,20.839466 293.464020,17.790529 295.022522,14.381935 
z"/>
<path fill="#606063" opacity="1.000000" stroke="none" 
	d="
M259.935181,37.931847 
	C252.827332,44.443184 246.024918,50.768406 239.506821,56.829262 
	C238.265579,42.827133 247.067764,34.057453 257.347534,26.300735 
	C258.299347,25.582500 261.172485,26.114216 262.196808,27.080118 
	C263.901886,28.687916 264.831818,31.117758 266.160278,33.320984 
	C263.926514,34.990631 262.083557,36.368179 259.935181,37.931847 
z"/>
<path fill="#CDCED0" opacity="1.000000" stroke="none" 
	d="
M290.221985,24.133888 
	C298.508392,25.709787 306.563385,27.548306 314.629456,29.336657 
	C316.069763,29.655991 317.556183,29.767530 319.431763,29.977451 
	C319.508423,32.698242 319.174652,35.416595 318.441528,38.560555 
	C315.634796,38.469715 313.248047,37.802406 310.815552,37.470089 
	C306.532196,36.884918 302.220825,36.504356 297.921204,36.038116 
	C294.662842,33.675697 291.404480,31.313286 287.764313,28.674063 
	C288.360840,27.525244 289.177612,25.952309 290.221985,24.133888 
z"/>
<path fill="#6C6D70" opacity="1.000000" stroke="none" 
	d="
M252.562820,75.286179 
	C248.593033,81.423988 244.623245,87.561798 240.120132,93.638824 
	C236.729034,93.053963 233.871246,92.529884 231.013474,92.005806 
	C234.824890,85.799889 238.636322,79.593971 243.138824,73.194183 
	C246.740875,73.762268 249.651840,74.524223 252.562820,75.286179 
z"/>
<path fill="#67686B" opacity="1.000000" stroke="none" 
	d="
M252.836975,75.144073 
	C249.651840,74.524223 246.740875,73.762268 243.411407,72.998718 
	C247.694794,68.000320 252.396683,63.003513 257.777222,58.088551 
	C261.345306,59.469002 264.234741,60.767609 267.124207,62.066216 
	C266.888397,62.337215 266.652588,62.608215 266.215881,63.063271 
	C261.713715,67.165535 257.412415,71.083748 252.836975,75.144073 
z"/>
<path fill="#C4C5C7" opacity="1.000000" stroke="none" 
	d="
M200.758255,114.934570 
	C203.460663,108.202499 206.163086,101.470428 209.426941,94.408875 
	C212.343658,94.386452 214.698959,94.693512 217.054260,95.000572 
	C214.311356,101.865395 211.568466,108.730225 208.171692,115.833939 
	C205.264648,115.693405 203.011444,115.313988 200.758255,114.934570 
z"/>
<path fill="#C4C5C7" opacity="1.000000" stroke="none" 
	d="
M298.015045,36.346371 
	C302.220825,36.504356 306.532196,36.884918 310.815552,37.470089 
	C313.248047,37.802406 315.634796,38.469715 318.444000,38.989723 
	C320.639435,41.727848 322.433044,44.462410 323.894470,47.564995 
	C321.318756,47.669796 319.050415,47.537262 316.836853,47.116463 
	C312.067932,46.209892 307.327240,45.155098 302.574982,44.160965 
	C301.663849,42.523888 300.752716,40.886814 299.585815,39.070045 
	C298.923004,38.145103 298.515961,37.399860 298.015045,36.346371 
z"/>
<path fill="#838588" opacity="1.000000" stroke="none" 
	d="
M197.549957,186.090607 
	C197.859818,187.759918 197.912308,189.423050 198.167236,191.054535 
	C199.086823,196.939575 197.291901,199.215576 191.475647,198.852524 
	C188.945282,198.694580 186.718704,197.823410 187.218430,194.233856 
	C187.643158,191.182922 187.393341,188.038101 187.912140,184.494156 
	C191.277985,184.692322 194.173660,185.331146 197.069336,185.969986 
	C197.069336,185.969986 197.385483,186.069901 197.549957,186.090607 
z"/>
<path fill="#CDCED0" opacity="1.000000" stroke="none" 
	d="
M235.051544,104.071381 
	C233.083328,108.155296 231.115128,112.239212 228.595215,116.658768 
	C225.409286,116.658295 222.775070,116.322182 220.140854,115.986069 
	C221.960205,111.506317 223.779556,107.026566 226.236618,102.280243 
	C229.600067,102.699585 232.325806,103.385483 235.051544,104.071381 
z"/>
<path fill="#6C6D70" opacity="1.000000" stroke="none" 
	d="
M219.813400,177.034241 
	C221.744217,180.588333 223.675034,184.142426 225.575333,187.640335 
	C219.403748,190.009674 214.634598,187.795746 211.190079,180.281738 
	C210.886368,178.939316 210.797485,177.876953 211.111404,176.414749 
	C214.280609,176.354691 217.046997,176.694473 219.813400,177.034241 
z"/>
<path fill="#606063" opacity="1.000000" stroke="none" 
	d="
M267.494415,62.006485 
	C264.234741,60.767609 261.345306,59.469002 258.098572,57.994629 
	C261.600464,56.189102 265.330750,53.884388 269.354370,53.116215 
	C273.518494,52.321217 276.486542,54.978638 277.793427,59.174011 
	C274.385040,60.125847 271.124817,61.036301 267.494415,62.006485 
z"/>
<path fill="#BBBCBF" opacity="1.000000" stroke="none" 
	d="
M219.907074,116.282799 
	C222.775070,116.322182 225.409286,116.658295 228.448044,116.987961 
	C228.531357,118.652458 228.210114,120.323402 227.888763,122.364838 
	C227.128448,124.662498 226.368256,126.589691 224.965668,128.716705 
	C221.670624,128.248398 219.017975,127.580269 216.365326,126.912125 
	C217.467987,123.467926 218.570648,120.023727 219.907074,116.282799 
z"/>
<path fill="#838588" opacity="1.000000" stroke="none" 
	d="
M220.383362,148.114426 
	C219.924591,151.464157 219.465820,154.813904 218.555725,158.561447 
	C215.427567,158.302078 212.750748,157.644882 210.073929,156.987701 
	C210.404816,153.920654 210.735703,150.853592 211.585663,147.388367 
	C214.864273,147.364944 217.623810,147.739685 220.383362,148.114426 
z"/>
<path fill="#757679" opacity="1.000000" stroke="none" 
	d="
M197.102753,185.523376 
	C194.173660,185.331146 191.277985,184.692322 188.035156,184.078735 
	C187.478897,181.707077 187.269775,179.310165 187.521301,176.461517 
	C190.912003,176.349335 193.842056,176.688904 196.772125,177.028473 
	C196.893478,179.711227 197.014832,182.393997 197.102753,185.523376 
z"/>
<path fill="#606063" opacity="1.000000" stroke="none" 
	d="
M219.843277,176.631500 
	C217.046997,176.694473 214.280609,176.354691 211.061768,176.016846 
	C210.188507,173.577652 209.767670,171.136551 209.789108,168.334259 
	C213.092117,168.304977 215.952866,168.636871 218.813599,168.968781 
	C219.166779,171.388779 219.519974,173.808777 219.843277,176.631500 
z"/>
<path fill="#989A9D" opacity="1.000000" stroke="none" 
	d="
M223.330902,135.143585 
	C222.902634,137.177429 222.474365,139.211273 221.512146,141.615875 
	C218.038879,141.651047 215.099579,141.315460 212.160263,140.979858 
	C212.771729,138.872818 213.383209,136.765793 214.540070,134.312927 
	C217.833939,134.359253 220.582413,134.751419 223.330902,135.143585 
z"/>
<path fill="#838588" opacity="1.000000" stroke="none" 
	d="
M217.343994,94.815720 
	C214.698959,94.693512 212.343658,94.386452 209.583176,94.092545 
	C211.818161,87.078560 212.135162,86.885689 220.929657,87.404198 
	C219.770493,89.945778 218.702103,92.288322 217.343994,94.815720 
z"/>
<path fill="#ADAEB2" opacity="1.000000" stroke="none" 
	d="
M223.527191,134.852905 
	C220.582413,134.751419 217.833939,134.359253 214.678833,133.963257 
	C214.863419,131.801025 215.454605,129.642624 216.205566,127.198174 
	C219.017975,127.580269 221.670624,128.248398 224.716827,128.981491 
	C224.648102,130.885025 224.185806,132.723618 223.527191,134.852905 
z"/>
<path fill="#838588" opacity="1.000000" stroke="none" 
	d="
M230.774994,92.235069 
	C233.871246,92.529884 236.729034,93.053963 239.857239,93.855286 
	C239.291794,95.982338 238.455933,97.832153 237.119675,99.600365 
	C233.962692,98.579994 231.306091,97.641235 228.649506,96.702469 
	C229.278503,95.289764 229.907501,93.877045 230.774994,92.235069 
z"/>
<path fill="#6C6D70" opacity="1.000000" stroke="none" 
	d="
M218.851471,168.542236 
	C215.952866,168.636871 213.092117,168.304977 209.853073,167.958435 
	C209.455017,166.159607 209.435257,164.375443 210.035080,162.286407 
	C213.375229,162.314270 216.095795,162.646973 218.816376,162.979675 
	C218.840698,164.691681 218.865021,166.403702 218.851471,168.542236 
z"/>
<path fill="#8B8D90" opacity="1.000000" stroke="none" 
	d="
M212.089554,141.357422 
	C215.099579,141.315460 218.038879,141.651047 221.383698,141.979401 
	C221.433533,143.817184 221.077866,145.662216 220.552780,147.810837 
	C217.623810,147.739685 214.864273,147.364944 211.701202,146.985870 
	C211.538071,145.232681 211.778458,143.483826 212.089554,141.357422 
z"/>
<path fill="#606063" opacity="1.000000" stroke="none" 
	d="
M189.763962,170.838806 
	C189.866043,170.455765 189.968109,170.072723 190.409042,169.212921 
	C191.944962,166.869186 193.141998,165.002228 194.339050,163.135284 
	C194.605682,163.004227 194.799118,162.802887 194.983368,162.329330 
	C195.862289,161.397888 196.677216,160.668350 197.833099,159.633591 
	C197.516861,164.103943 197.232864,168.118668 196.524017,172.512787 
	C193.987427,172.207733 191.875702,171.523270 189.763962,170.838806 
z"/>
<path fill="#BBBCBF" opacity="1.000000" stroke="none" 
	d="
M200.450180,115.181503 
	C203.011444,115.313988 205.264648,115.693405 207.956802,116.112129 
	C207.699692,118.229019 207.003616,120.306602 205.703918,122.687485 
	C204.007217,123.020004 202.914169,123.049225 201.821106,123.078445 
	C198.560547,121.121223 199.566376,118.227631 200.450180,115.181503 
z"/>
<path fill="#ADAEB2" opacity="1.000000" stroke="none" 
	d="
M228.433014,96.953018 
	C231.306091,97.641235 233.962692,98.579994 236.852310,99.806427 
	C236.583420,101.292358 236.081497,102.490616 235.315552,103.880127 
	C232.325806,103.385483 229.600067,102.699585 226.471649,102.015823 
	C226.784821,100.413162 227.500671,98.808365 228.433014,96.953018 
z"/>
<path fill="#6C6D70" opacity="1.000000" stroke="none" 
	d="
M189.504059,171.043976 
	C191.875702,171.523270 193.987427,172.207733 196.453278,172.959015 
	C196.837494,174.095261 196.867584,175.164688 196.834900,176.631302 
	C193.842056,176.688904 190.912003,176.349335 187.575287,176.015320 
	C187.860474,174.430313 188.552322,172.839737 189.504059,171.043976 
z"/>
<path fill="#757679" opacity="1.000000" stroke="none" 
	d="
M218.881927,162.582306 
	C216.095795,162.646973 213.375229,162.314270 210.228989,161.962875 
	C209.833664,160.562683 209.864014,159.181198 209.984131,157.393707 
	C212.750748,157.644882 215.427567,158.302078 218.483246,158.967072 
	C218.890564,160.044907 218.919022,161.114929 218.881927,162.582306 
z"/>
<path fill="#ADAEB2" opacity="1.000000" stroke="none" 
	d="
M201.912949,123.385071 
	C202.914169,123.049225 204.007217,123.020004 205.510315,122.990753 
	C205.628174,124.163338 205.335983,125.335953 204.915390,127.023834 
	C203.652573,125.578125 202.828674,124.634911 201.912949,123.385071 
z"/>
<path fill="#ADAEB2" opacity="1.000000" stroke="none" 
	d="
M306.818970,64.026154 
	C306.170410,59.966179 305.521851,55.906208 305.334656,51.426445 
	C308.867004,51.506874 311.963135,51.887699 315.004333,52.529243 
	C324.962524,54.629951 334.900726,56.825504 344.846619,58.984589 
	C345.171661,62.380756 345.496735,65.776932 345.799622,69.827499 
	C345.698822,71.008781 345.620209,71.535667 345.077820,72.044502 
	C342.327423,71.726540 340.002838,71.597092 337.760681,71.097557 
	C327.434204,68.796883 317.130676,66.393013 306.818970,64.026154 
z"/>
<path fill="#8B8D90" opacity="1.000000" stroke="none" 
	d="
M305.399353,89.874695 
	C305.605133,86.214638 305.810883,82.554588 306.486755,78.447517 
	C315.714722,80.082626 324.486816,82.108269 333.212799,84.316284 
	C334.340790,84.601715 335.230103,85.830498 336.229980,86.622307 
	C333.868988,89.547729 331.507996,92.473145 328.573975,95.676682 
	C320.467072,93.928093 312.933197,91.901390 305.399353,89.874695 
z"/>
<path fill="#757679" opacity="1.000000" stroke="none" 
	d="
M301.233063,111.083054 
	C302.155792,106.638817 303.078552,102.194572 304.488098,97.380295 
	C312.572418,98.661217 320.169922,100.312187 327.767456,101.963158 
	C326.808472,106.860847 325.849518,111.758545 324.403931,116.709869 
	C316.355896,114.870026 308.794464,112.976540 301.233063,111.083054 
z"/>
<path fill="#A2A3A7" opacity="1.000000" stroke="none" 
	d="
M306.728607,64.467606 
	C317.130676,66.393013 327.434204,68.796883 337.760681,71.097557 
	C340.002838,71.597092 342.327423,71.726540 345.172791,72.361481 
	C345.505493,74.464554 345.279419,76.232597 345.053314,78.000641 
	C343.902649,79.260368 342.751984,80.520088 341.086975,81.628311 
	C329.370087,78.652039 318.167480,75.827255 306.964905,73.002480 
	C306.856018,70.304672 306.747162,67.606857 306.728607,64.467606 
z"/>
<path fill="#BBBCBF" opacity="1.000000" stroke="none" 
	d="
M344.893311,58.561638 
	C334.900726,56.825504 324.962524,54.629951 315.004333,52.529243 
	C311.963135,51.887699 308.867004,51.506874 305.360657,51.008888 
	C304.197083,48.967052 303.468872,46.922977 302.657837,44.519932 
	C307.327240,45.155098 312.067932,46.209892 316.836853,47.116463 
	C319.050415,47.537262 321.318756,47.669796 324.027466,47.903229 
	C326.668457,50.082058 328.987030,50.317116 331.628632,48.611919 
	C333.716583,47.264137 335.825104,45.598351 338.146912,45.090309 
	C339.604462,44.771374 342.572998,45.968472 342.952209,47.116669 
	C344.111389,50.626667 344.345825,54.442081 344.893311,58.561638 
z"/>
<path fill="#E9E9EA" opacity="1.000000" stroke="none" 
	d="
M323.143311,20.335583 
	C321.057190,19.216591 319.077484,17.778996 316.864532,17.039446 
	C310.681244,14.973036 304.401367,13.195510 297.968506,10.956709 
	C298.803009,5.695673 302.051453,4.111876 306.618469,5.079906 
	C310.500305,5.902704 314.298279,7.121176 318.506348,8.253490 
	C320.978821,10.325546 323.078308,12.308700 325.130676,14.981269 
	C324.436768,17.225649 323.790039,18.780613 323.143311,20.335583 
z"/>
<path fill="#989A9D" opacity="1.000000" stroke="none" 
	d="
M306.761230,73.313507 
	C318.167480,75.827255 329.370087,78.652039 340.795105,81.760185 
	C339.610382,83.441048 338.203186,84.838539 336.513000,86.429169 
	C335.230103,85.830498 334.340790,84.601715 333.212799,84.316284 
	C324.486816,82.108269 315.714722,80.082626 306.556946,77.990677 
	C306.290527,76.528748 306.424042,75.076645 306.761230,73.313507 
z"/>
<path fill="#989A9D" opacity="1.000000" stroke="none" 
	d="
M301.114471,111.430550 
	C308.794464,112.976540 316.355896,114.870026 324.222931,117.043472 
	C324.569000,119.017838 324.609406,120.712250 324.624512,122.773552 
	C318.203003,121.646294 311.816467,120.108307 305.404144,118.686829 
	C303.661743,118.300568 301.841400,118.265755 299.641479,118.079300 
	C299.816040,115.985321 300.405945,113.881683 301.114471,111.430550 
z"/>
<path fill="#838588" opacity="1.000000" stroke="none" 
	d="
M327.853394,101.589355 
	C320.169922,100.312187 312.572418,98.661217 304.597778,96.987579 
	C304.530029,94.821739 304.839355,92.678574 305.273987,90.205048 
	C312.933197,91.901390 320.467072,93.928093 328.389130,95.966522 
	C328.498016,97.724014 328.218689,99.469788 327.853394,101.589355 
z"/>
<path fill="#191E22" opacity="1.000000" stroke="none" 
	d="
M323.165039,20.615025 
	C323.790039,18.780613 324.436768,17.225649 325.227814,15.332375 
	C328.767151,14.675669 330.317535,16.208740 330.001129,19.610313 
	C329.750671,22.302658 329.496155,24.994627 329.243469,27.686764 
	C327.431854,25.841812 325.620270,23.996862 323.477478,22.077248 
	C323.159790,21.633213 323.173279,21.263844 323.165039,20.615025 
z"/>
<path fill="#191E22" opacity="1.000000" stroke="none" 
	d="
M345.426910,77.991447 
	C345.279419,76.232597 345.505493,74.464554 345.636597,72.379539 
	C345.620209,71.535667 345.698822,71.008781 345.890991,70.241447 
	C347.311066,71.366203 348.617615,72.731400 349.924194,74.096596 
	C348.549622,75.391815 347.175049,76.687035 345.426910,77.991447 
z"/>
<path fill="#191E22" opacity="1.000000" stroke="none" 
	d="
M351.040344,55.293037 
	C351.846710,54.472073 352.631287,54.034508 353.415863,53.596947 
	C353.881744,54.903328 354.482147,56.186214 354.717224,57.532883 
	C354.774719,57.862152 353.635559,58.400322 353.046631,58.842445 
	C352.370636,57.787113 351.694611,56.731773 351.040344,55.293037 
z"/>
<path fill="#191E22" opacity="1.000000" stroke="none" 
	d="
M339.549072,36.044483 
	C339.189209,36.262615 338.832001,36.260040 338.476868,36.231766 
	C338.467041,36.230984 338.479248,35.954235 338.481171,35.806171 
	C338.838104,35.810860 339.195068,35.815544 339.549072,36.044483 
z"/>
<path fill="#A2A3A7" opacity="1.000000" stroke="none" 
	d="
M231.986862,219.149536 
	C234.342117,217.768631 236.697372,216.387711 239.748383,215.091431 
	C254.897903,218.788635 269.351685,222.401199 283.805450,226.013763 
	C282.233154,228.310715 280.660889,230.607681 278.407104,232.888214 
	C264.113922,229.514801 250.479813,226.243790 236.917236,222.699112 
	C235.089386,222.221390 233.621460,220.366638 231.986862,219.149536 
z"/>
<path fill="#ADAEB2" opacity="1.000000" stroke="none" 
	d="
M231.613403,219.177704 
	C233.621460,220.366638 235.089386,222.221390 236.917236,222.699112 
	C250.479813,226.243790 264.113922,229.514801 278.118805,233.020111 
	C276.898224,234.710861 275.284393,236.253265 273.359741,237.909088 
	C260.943878,234.955643 248.794189,232.051941 236.750351,228.760941 
	C229.484756,226.775604 222.383652,224.188324 215.113068,221.526337 
	C220.424988,220.522720 225.832474,219.864304 231.613403,219.177704 
z"/>
<path fill="#8B8D90" opacity="1.000000" stroke="none" 
	d="
M245.757935,210.306732 
	C247.268570,208.827225 248.779205,207.347717 250.665695,206.113632 
	C251.596939,206.912491 252.071335,207.817398 252.719833,207.966888 
	C263.135864,210.367905 273.574097,212.672668 284.007263,214.999313 
	C284.060425,216.719437 284.113586,218.439575 283.665222,220.579636 
	C271.602478,218.302658 260.029419,215.654083 248.499908,212.827866 
	C247.443390,212.568893 246.665298,211.174103 245.757935,210.306732 
z"/>
<path fill="#838588" opacity="1.000000" stroke="none" 
	d="
M284.090790,214.629959 
	C273.574097,212.672668 263.135864,210.367905 252.719833,207.966888 
	C252.071335,207.817398 251.596939,206.912491 250.963104,205.967224 
	C251.827469,204.526672 252.770309,203.477921 253.955551,202.235168 
	C263.866821,204.356918 273.535645,206.672699 283.673645,209.371658 
	C284.262054,210.510773 284.381317,211.266708 284.500580,212.022644 
	C284.391815,212.768631 284.283081,213.514618 284.090790,214.629959 
z"/>
<path fill="#151A1E" opacity="1.000000" stroke="none" 
	d="
M308.098663,228.060699 
	C309.055695,230.346527 310.711090,232.843613 310.090851,234.476028 
	C309.056610,237.197952 302.359314,237.836838 299.690308,236.087036 
	C295.140533,233.104248 292.289886,225.110947 293.849792,219.262146 
	C299.909698,219.857758 303.561066,224.340439 308.098663,228.060699 
z"/>
<path fill="#989A9D" opacity="1.000000" stroke="none" 
	d="
M245.434875,210.440765 
	C246.665298,211.174103 247.443390,212.568893 248.499908,212.827866 
	C260.029419,215.654083 271.602478,218.302658 283.573303,221.001038 
	C284.014160,222.405701 284.045380,223.808868 283.941010,225.612915 
	C269.351685,222.401199 254.897903,218.788635 240.075409,215.002930 
	C241.508408,213.411453 243.310104,211.993118 245.434875,210.440765 
z"/>
<path fill="#151A1E" opacity="1.000000" stroke="none" 
	d="
M284.833435,211.995422 
	C284.381317,211.266708 284.262054,210.510773 284.086182,209.374252 
	C284.243347,207.863174 284.457092,206.732697 284.842651,205.301270 
	C288.873993,207.824585 288.898865,208.967133 284.833435,211.995422 
z"/>
<path fill="#151A1E" opacity="1.000000" stroke="none" 
	d="
M299.999420,209.488297 
	C301.068878,209.099762 302.140381,209.078964 303.608032,209.127228 
	C303.569427,210.681351 303.134613,212.166428 302.699799,213.651520 
	C302.264526,213.698486 301.829254,213.745468 301.394012,213.792435 
	C300.929810,212.480316 300.465607,211.168182 299.999420,209.488297 
z"/>
<path fill="#FCFCFC" opacity="1.000000" stroke="none" 
	d="
M235.061890,132.401398 
	C240.959747,115.674583 247.015549,99.385071 252.623840,82.942924 
	C253.886856,79.240044 255.492599,77.993896 259.250946,78.271240 
	C265.010925,78.696297 272.170654,76.667221 276.187317,79.411095 
	C279.965668,81.992165 280.479889,89.392540 282.364807,94.695839 
	C286.416718,106.096031 290.426575,117.511169 294.668823,129.244293 
	C294.898743,130.171051 294.913513,130.773682 294.938293,131.678207 
	C294.404144,133.118973 293.859985,134.257858 293.248901,135.712830 
	C292.579895,137.482880 291.977814,138.936813 291.313965,140.718811 
	C290.121033,143.743759 288.989899,146.440643 287.750427,149.485474 
	C287.340576,150.470871 287.039093,151.108322 286.693115,151.997955 
	C285.644470,154.024597 284.640289,155.799057 283.212280,157.418442 
	C282.031769,152.260620 279.226654,150.799347 274.218048,151.201080 
	C267.624817,151.729904 260.949921,151.514633 254.324646,151.252884 
	C251.066360,151.124146 249.707413,152.242004 248.855820,155.347687 
	C247.415436,160.600677 245.424744,165.702789 243.665421,170.868332 
	C236.574921,170.868332 229.484421,170.868332 221.769699,170.868332 
	C226.352188,157.734665 230.705078,145.259064 235.061890,132.401398 
M271.110229,131.959717 
	C272.022400,131.881027 272.934540,131.802322 274.226837,131.690826 
	C271.331573,122.441757 268.565033,113.603828 265.487122,103.771255 
	C262.393158,113.668907 259.598755,122.608276 256.675476,131.959915 
	C261.554199,131.959915 265.872223,131.959915 271.110229,131.959717 
z"/>
<path fill="#181C21" opacity="1.000000" stroke="none" 
	d="
M244.075851,170.901550 
	C245.424744,165.702789 247.415436,160.600677 248.855820,155.347687 
	C249.707413,152.242004 251.066360,151.124146 254.324646,151.252884 
	C260.949921,151.514633 267.624817,151.729904 274.218048,151.201080 
	C279.226654,150.799347 282.031769,152.260620 282.941833,157.598587 
	C283.040161,158.361969 282.985107,158.790131 282.930847,159.542358 
	C281.932312,161.666382 280.933014,163.466324 279.841431,165.605453 
	C278.874817,167.397202 278.000519,168.849777 277.047485,170.616608 
	C275.631592,173.048691 274.294464,175.166519 272.847778,177.617645 
	C272.199219,178.729721 271.660187,179.508484 271.027527,180.559082 
	C269.885834,182.137894 268.837738,183.444901 267.537170,184.932526 
	C262.531158,181.586899 257.907959,177.862228 252.969879,174.616653 
	C250.431793,172.948471 247.332153,172.134659 244.075851,170.901550 
z"/>
<path fill="#FBFBFB" opacity="1.000000" stroke="none" 
	d="
M142.992584,197.507385 
	C143.807648,193.170135 145.626556,195.073761 146.922806,196.562012 
	C148.266068,198.104248 149.206772,199.997116 150.370361,201.809525 
	C152.154617,199.689362 149.062820,195.890823 153.647736,194.838623 
	C153.647736,199.686554 153.647736,204.201492 153.647736,210.523636 
	C150.830063,207.358276 148.884735,205.172897 146.820648,202.854095 
	C146.091843,205.140823 145.428009,207.223740 144.764160,209.306641 
	C144.173096,209.139694 143.582016,208.972748 142.990952,208.805801 
	C142.990952,205.186264 142.990952,201.566742 142.992584,197.507385 
z"/>
<path fill="#E9E9EA" opacity="1.000000" stroke="none" 
	d="
M168.240997,203.482605 
	C170.074203,202.565247 172.099121,202.015305 174.124023,201.465363 
	C174.605865,201.913162 175.087708,202.360977 175.569565,202.808777 
	C174.409653,204.852982 173.424500,208.464981 172.053787,208.617752 
	C169.124710,208.944214 165.124924,211.148819 162.967499,206.578613 
	C161.024933,202.463547 161.367493,197.764221 164.411224,196.054398 
	C168.060028,194.004639 171.591843,194.191849 175.250183,199.329041 
	C172.716614,198.678299 171.441284,197.994385 170.261627,198.131790 
	C168.517990,198.334885 165.399414,199.101654 165.391647,199.663406 
	C165.360672,201.898514 166.034058,204.294312 167.098145,206.281769 
	C167.347366,206.747238 170.147263,205.847031 171.773666,205.575134 
	C171.709503,205.130127 171.645355,204.685104 171.581192,204.240082 
	C170.531693,204.110062 169.482208,203.980042 168.240997,203.482605 
z"/>
<path fill="#FFFFFF" opacity="1.000000" stroke="none" 
	d="
M136.000153,201.998474 
	C135.544739,204.641129 135.089340,206.808609 134.633926,208.976074 
	C134.089325,206.733475 133.542480,204.491394 133.004990,202.247101 
	C132.967743,202.091537 132.967834,201.911575 133.005035,201.755966 
	C133.541779,199.510529 134.087845,197.267303 134.631683,195.023560 
	C135.087845,197.190140 135.544006,199.356705 136.000153,201.998474 
z"/>
<path fill="#141A1E" opacity="1.000000" stroke="none" 
	d="
M193.934967,163.101715 
	C193.141998,165.002228 191.944962,166.869186 190.481842,168.924438 
	C187.512268,165.009094 189.973450,163.738007 193.934967,163.101715 
z"/>
<path fill="#ADAEB2" opacity="1.000000" stroke="none" 
	d="
M212.912384,220.640228 
	C212.009384,220.922318 210.969147,220.949341 209.582581,220.844269 
	C209.236282,220.712189 209.306000,220.245941 209.842834,220.098572 
	C210.627869,219.949066 210.876068,219.946899 211.124283,219.944733 
	C211.674576,220.091553 212.224854,220.238373 212.912384,220.640228 
z"/>
<path fill="#141A1E" opacity="1.000000" stroke="none" 
	d="
M210.424042,192.648346 
	C210.317719,193.055313 210.058533,193.301697 209.799347,193.548080 
	C209.697540,193.440720 209.501282,193.245407 209.507568,193.238647 
	C209.750580,192.977631 210.012100,192.733826 210.424042,192.648346 
z"/>
<path fill="#A2A3A7" opacity="1.000000" stroke="none" 
	d="
M210.998138,219.692932 
	C210.876068,219.946899 210.627869,219.949066 210.006439,219.928864 
	C210.046127,219.751389 210.459061,219.596252 210.998138,219.692932 
z"/>
<path fill="#181C21" opacity="1.000000" stroke="none" 
	d="
M47.661865,150.134003 
	C40.507359,150.662582 33.744568,151.060349 26.596275,151.480789 
	C26.596275,145.156448 26.596275,139.429718 26.596275,133.139145 
	C32.748882,133.139145 39.023643,132.803589 45.240093,133.260803 
	C49.179989,133.550583 51.889465,136.325531 52.611485,140.356277 
	C53.360416,144.537247 51.810688,147.844589 47.661865,150.134003 
z"/>
<path fill="#1B2024" opacity="1.000000" stroke="none" 
	d="
M29.254799,97.931900 
	C33.884590,97.935913 38.042606,97.817032 42.189777,97.977798 
	C47.108852,98.168472 50.046314,101.058479 50.310677,105.635132 
	C50.595230,110.561295 47.909763,114.051163 42.835361,114.395798 
	C37.568939,114.753471 32.259342,114.475456 26.259390,114.475456 
	C26.259390,109.327721 26.177626,104.427544 26.370235,99.538170 
	C26.392529,98.972298 27.938610,98.466446 29.254799,97.931900 
z"/>
<path fill="#1A1F23" opacity="1.000000" stroke="none" 
	d="
M161.719757,112.330284 
	C159.780655,118.647964 155.500061,121.100807 149.559097,121.139938 
	C145.411697,121.167252 141.263962,121.145203 136.721237,121.145203 
	C136.721237,113.413086 136.721237,105.905518 136.721237,98.051018 
	C141.752930,98.051018 146.727478,97.718681 151.639755,98.129997 
	C158.758606,98.726051 162.191635,103.670700 161.719757,112.330284 
z"/>
<path fill="#1B2024" opacity="1.000000" stroke="none" 
	d="
M27.949718,202.789703 
	C27.836720,199.325089 29.018970,196.680298 32.302780,197.709656 
	C33.704739,198.149109 34.635811,201.425812 34.907120,203.526093 
	C35.027431,204.457428 32.584900,206.756226 31.995123,206.541428 
	C30.452866,205.979706 29.290577,204.374771 27.949718,202.789703 
z"/>
<path fill="#1B2024" opacity="1.000000" stroke="none" 
	d="
M302.174927,203.523071 
	C302.174469,201.487473 302.174469,199.876007 302.174469,197.331161 
	C304.239655,197.966202 306.535645,197.999252 307.094971,199.001526 
	C307.939178,200.514160 307.987396,202.807571 307.547455,204.561844 
	C307.319061,205.472412 305.364227,206.254608 304.091431,206.447006 
	C303.590149,206.522766 302.822021,204.832977 302.174927,203.523071 
z"/>
<path fill="#1B2024" opacity="1.000000" stroke="none" 
	d="
M391.712708,199.028122 
	C393.683807,198.605255 396.720062,197.960236 396.938446,198.485870 
	C397.737122,200.408264 397.893066,202.754608 397.650848,204.867859 
	C397.565430,205.613174 395.527954,206.786514 394.585358,206.618942 
	C393.371948,206.403229 391.814301,205.235382 391.405762,204.113266 
	C390.897736,202.717789 391.411957,200.950134 391.712708,199.028122 
z"/>
<path fill="#1B2024" opacity="1.000000" stroke="none" 
	d="
M270.650238,131.959808 
	C265.872223,131.959915 261.554199,131.959915 256.675476,131.959915 
	C259.598755,122.608276 262.393158,113.668907 265.487122,103.771255 
	C268.565033,113.603828 271.331573,122.441757 274.226837,131.690826 
	C272.934540,131.802322 272.022400,131.881027 270.650238,131.959808 
z"/>
</svg>